<svg xmlns="http://www.w3.org/2000/svg" xmlns:xlink="http://www.w3.org/1999/xlink" id="Layer_2" viewBox="0 0 1090.91 771.7"><defs><pattern id="New_Pattern" width="288.31" height="288.34" x="0" y="0" patternTransform="translate(-254.83 -34.15)" patternUnits="userSpaceOnUse" viewBox="0 0 288.31 288.34"><rect width="288.31" height="288.34" x="0" y="0" style="fill:none;stroke-width:0"/><path d="m4.34,0H1.99c.08.17.2.31.34.37-.47.21-.73.93-.52,1.39.18-.65,1.19-.57,1.78-.99.35-.24.59-.5.75-.78h0ZM0,0v.81C.44.81.8.45.8,0h0s-.8,0-.8,0h0Zm0,2c.55-.26,1.49-.14,1.79.8-.36-.39-.96-.17-1.06.16-.12.4-.05.85.98,1.03,1.19.2,2.11-.21,3.83,1.46,1.73,1.68,4.7,4.64,6.58,6.48l-.19.19c-1.97-1.89-5-4.72-6.73-6.31-.93-.85-1.66-1.09-2.27-1.13-1.03-.06-2.04.21-2.93-.33V2Z" opacity=".2" style="fill:#a3836b;fill-rule:evenodd;stroke-width:0"/><path d="m36.13,12.11l-.19-.19c-1.84,1.88-4.8,4.85-6.48,6.58-1.67,1.72-1.26,2.64-1.46,3.83-.18,1.03-.63,1.1-1.03.98-.33-.1-.55-.7-.16-1.06-1.23.4-1.06,1.88-.46,2.16-.47.21-.73.93-.52,1.39.18-.65,1.19-.57,1.78-.99,1.49-1.04,1-2.36,1.08-3.7.04-.61.27-1.35,1.13-2.27,1.59-1.73,4.42-4.76,6.31-6.73h0Zm-12.1,11.12c-.44,0-.8.36-.8.8s.36.8.8.8.8-.36.8-.8-.36-.8-.8-.8h0Zm11.93,12.91c-1.97-1.89-5-4.72-6.73-6.31-.93-.85-1.66-1.09-2.27-1.13-1.34-.08-2.65.41-3.7-1.08-.42-.59-.34-1.6-.99-1.78.46-.21,1.17.05,1.39.52.28-.6,1.76-.77,2.16.46-.36-.39-.96-.17-1.06.16-.12.4-.05.85.98,1.03,1.19.2,2.11-.21,3.83,1.46,1.73,1.68,4.7,4.64,6.58,6.48l-.19.19h0Zm-24.04-.19l.19.19c1.84-1.88,4.81-4.83,6.49-6.56,1.68-1.72,1.26-2.64,1.46-3.83.18-1.03.63-1.1,1.03-.98.33.1.55.7.16,1.06,1.23-.4,1.06-1.88.46-2.16.47-.21.73-.93.52-1.39-.18.65-1.19.57-1.78.99-1.49,1.04-1,2.36-1.08,3.7-.04.61-.27,1.35-1.13,2.27-1.59,1.73-4.43,4.75-6.32,6.71h0Zm6.91-17.71c.93.85,1.66,1.09,2.27,1.13,1.34.08,2.65-.41,3.7,1.08.42.59.34,1.6.99,1.78-.46.21-1.17-.05-1.39-.52-.28.6-1.76.77-2.16-.46.36.39.96.17,1.06-.16.12-.4.05-.85-.98-1.03-1.19-.2-2.11.21-3.83-1.46-1.73-1.68-4.69-4.66-6.56-6.49l.19-.19c1.97,1.89,4.99,4.73,6.71,6.32Z" opacity=".2" style="fill:#a3836b;fill-rule:evenodd;stroke-width:0"/><path d="m52.4,0h-2.36c.08.17.2.31.34.37-.47.21-.73.93-.52,1.39.18-.65,1.19-.57,1.78-.99.35-.24.59-.5.75-.78h0Zm-8.68,0c-.55.89-.27,1.91-.33,2.93-.04.61-.27,1.35-1.13,2.27-1.59,1.73-4.43,4.75-6.32,6.71l.19.19c1.84-1.88,4.81-4.83,6.49-6.56,1.68-1.72,1.26-2.64,1.46-3.83.18-1.03.63-1.1,1.03-.98.33.1.55.7.16,1.06.94-.3,1.06-1.25.79-1.8h-2.34Zm3.53,0h0c0,.45.36.81.8.81s.8-.36.8-.8h0s-1.61,0-1.61,0h0Zm6,5.8c-.93-.85-1.66-1.09-2.27-1.13-1.34-.08-2.65.41-3.7-1.08-.42-.59-.34-1.6-.99-1.78.46-.21,1.17.05,1.39.52.28-.6,1.76-.77,2.16.46-.36-.39-.96-.17-1.06.16-.12.4-.05.85.98,1.03,1.19.2,2.11-.21,3.83,1.46,1.73,1.68,4.7,4.64,6.58,6.48l-.19.19c-1.97-1.89-5-4.72-6.73-6.31Z" opacity=".2" style="fill:#a3836b;fill-rule:evenodd;stroke-width:0"/><path d="m84.19,12.11l-.19-.19c-1.84,1.88-4.8,4.85-6.48,6.58-1.67,1.72-1.26,2.64-1.46,3.83-.18,1.03-.63,1.1-1.03.98-.33-.1-.55-.7-.16-1.06-1.23.4-1.06,1.88-.46,2.16-.47.21-.73.93-.52,1.39.18-.65,1.19-.57,1.78-.99,1.49-1.04,1-2.36,1.08-3.7.04-.61.27-1.35,1.13-2.27,1.59-1.73,4.42-4.76,6.31-6.73h0Zm-12.1,11.12c-.44,0-.8.36-.8.8s.36.8.8.8.8-.36.8-.8-.36-.8-.8-.8h0Zm11.93,12.91c-1.97-1.89-5-4.72-6.73-6.31-.93-.85-1.66-1.09-2.27-1.13-1.34-.08-2.65.41-3.7-1.08-.42-.59-.34-1.6-.99-1.78.46-.21,1.17.05,1.39.52.28-.6,1.76-.77,2.16.46-.36-.39-.96-.17-1.06.16-.12.4-.05.85.98,1.03,1.19.2,2.11-.21,3.83,1.46,1.73,1.68,4.7,4.64,6.58,6.48l-.19.19h0Zm-24.04-.19l.19.19c1.84-1.88,4.81-4.83,6.49-6.56,1.68-1.72,1.26-2.64,1.46-3.83.18-1.03.63-1.1,1.03-.98.33.1.55.7.16,1.06,1.23-.4,1.06-1.88.46-2.16.47-.21.73-.93.52-1.39-.18.65-1.19.57-1.78.99-1.49,1.04-1,2.36-1.08,3.7-.04.61-.27,1.35-1.13,2.27-1.59,1.73-4.43,4.75-6.32,6.71h0Zm6.91-17.71c.93.85,1.66,1.09,2.27,1.13,1.34.08,2.65-.41,3.7,1.08.42.59.34,1.6.99,1.78-.46.21-1.17-.05-1.39-.52-.28.6-1.76.77-2.16-.46.36.39.96.17,1.06-.16.12-.4.05-.85-.98-1.03-1.19-.2-2.11.21-3.83-1.46-1.73-1.68-4.69-4.66-6.56-6.49l.19-.19c1.97,1.89,4.99,4.73,6.71,6.32Z" opacity=".2" style="fill:#a3836b;fill-rule:evenodd;stroke-width:0"/><path d="m91.78,0c-.55.89-.27,1.91-.33,2.93-.04.61-.27,1.35-1.13,2.27-1.59,1.73-4.43,4.75-6.32,6.71l.19.19c1.84-1.88,4.81-4.83,6.49-6.56,1.68-1.72,1.26-2.64,1.46-3.83.18-1.03.63-1.1,1.03-.98.33.1.55.7.16,1.06.94-.3,1.06-1.25.79-1.8h-2.34Zm3.53,0h0c0,.45.36.81.8.81v-.81h-.8Zm.8,4.35c-.27-.16-.53-.4-.77-.75-.42-.59-.34-1.6-.99-1.78.46-.21,1.17.05,1.39.52.07-.14.2-.26.37-.34v2.35Z" opacity=".2" style="fill:#a3836b;fill-rule:evenodd;stroke-width:0"/><path d="m12.1,36.14l-.19-.19c-1.84,1.88-4.8,4.85-6.48,6.58-1.67,1.72-1.26,2.64-1.46,3.83-.18,1.03-.63,1.1-1.03.98-.33-.1-.55-.7-.16-1.06-1.23.4-1.06,1.88-.46,2.16-.47.21-.73.93-.52,1.39.18-.65,1.19-.57,1.78-.99,1.49-1.04,1-2.36,1.08-3.7.04-.61.27-1.35,1.13-2.27,1.59-1.73,4.42-4.76,6.31-6.73h0ZM0,52.4v-2.35c.55-.26,1.49-.14,1.79.8-.36-.39-.96-.17-1.06.16-.12.4-.05.85.98,1.03,1.19.2,2.11-.21,3.83,1.46,1.73,1.68,4.7,4.64,6.58,6.48l-.19.19c-1.97-1.89-5-4.72-6.73-6.31-.93-.85-1.66-1.09-2.27-1.13-1.03-.06-2.04.21-2.93-.33h0Zm0-3.54c.44,0,.8-.36.8-.8s-.36-.8-.8-.8v1.61h0Zm0-5.14c.27.16.53.4.77.75.42.59.34,1.6.99,1.78-.46.21-1.17-.05-1.39-.52-.07.14-.2.26-.37.34v-2.35Z" opacity=".2" style="fill:#a3836b;fill-rule:evenodd;stroke-width:0"/><path d="m36.13,60.16l-.19-.19c-1.84,1.88-4.8,4.85-6.48,6.58-1.67,1.72-1.26,2.64-1.46,3.83-.18,1.03-.63,1.1-1.03.98-.33-.1-.55-.7-.16-1.06-1.23.4-1.06,1.88-.46,2.16-.47.21-.73.93-.52,1.39.18-.65,1.19-.57,1.78-.99,1.49-1.04,1-2.36,1.08-3.7.04-.61.27-1.35,1.13-2.27,1.59-1.73,4.42-4.76,6.31-6.73h0Zm-12.1,11.12c-.44,0-.8.36-.8.8s.36.8.8.8.8-.36.8-.8-.36-.8-.8-.8h0Zm11.93,12.91c-1.97-1.89-5-4.72-6.73-6.31-.93-.85-1.66-1.09-2.27-1.13-1.34-.08-2.65.41-3.7-1.08-.42-.59-.34-1.6-.99-1.78.46-.21,1.17.05,1.39.52.28-.6,1.76-.77,2.16.46-.36-.39-.96-.17-1.06.16-.12.4-.05.85.98,1.03,1.19.2,2.11-.21,3.83,1.46,1.73,1.68,4.7,4.64,6.58,6.48l-.19.19h0Zm-24.04-.19l.19.19c1.84-1.88,4.81-4.83,6.49-6.56,1.68-1.72,1.26-2.64,1.46-3.83.18-1.03.63-1.1,1.03-.98.33.1.55.7.16,1.06,1.23-.4,1.06-1.88.46-2.16.47-.21.73-.93.52-1.39-.18.65-1.19.57-1.78.99-1.49,1.04-1,2.36-1.08,3.7-.04.61-.27,1.35-1.13,2.27-1.59,1.73-4.43,4.75-6.32,6.71h0Zm6.91-17.71c.93.85,1.66,1.09,2.27,1.13,1.34.08,2.65-.41,3.7,1.08.42.59.34,1.6.99,1.78-.46.21-1.17-.05-1.39-.52-.28.6-1.76.77-2.16-.46.36.39.96.17,1.06-.16.12-.4.05-.85-.98-1.03-1.19-.2-2.11.21-3.83-1.46-1.73-1.68-4.69-4.66-6.56-6.49l.19-.19c1.97,1.89,4.99,4.73,6.71,6.32Z" opacity=".2" style="fill:#a3836b;fill-rule:evenodd;stroke-width:0"/><path d="m60.16,36.14l-.19-.19c-1.84,1.88-4.8,4.85-6.48,6.58-1.67,1.72-1.26,2.64-1.46,3.83-.18,1.03-.63,1.1-1.03.98-.33-.1-.55-.7-.16-1.06-1.23.4-1.06,1.88-.46,2.16-.47.21-.73.93-.52,1.39.18-.65,1.19-.57,1.78-.99,1.49-1.04,1-2.36,1.08-3.7.04-.61.27-1.35,1.13-2.27,1.59-1.73,4.42-4.76,6.31-6.73h0Zm-12.1,11.12c-.44,0-.8.36-.8.8s.36.8.8.8.8-.36.8-.8-.36-.8-.8-.8h0Zm11.93,12.91c-1.97-1.89-5-4.72-6.73-6.31-.93-.85-1.66-1.09-2.27-1.13-1.34-.08-2.65.41-3.7-1.08-.42-.59-.34-1.6-.99-1.78.46-.21,1.17.05,1.39.52.28-.6,1.76-.77,2.16.46-.36-.39-.96-.17-1.06.16-.12.4-.05.85.98,1.03,1.19.2,2.11-.21,3.83,1.46,1.73,1.68,4.7,4.64,6.58,6.48l-.19.19h0Zm-24.04-.19l.19.19c1.84-1.88,4.81-4.83,6.49-6.56,1.68-1.72,1.26-2.64,1.46-3.83.18-1.03.63-1.1,1.03-.98.33.1.55.7.16,1.06,1.23-.4,1.06-1.88.46-2.16.47-.21.73-.93.52-1.39-.18.65-1.19.57-1.78.99-1.49,1.04-1,2.36-1.08,3.7-.04.61-.27,1.35-1.13,2.27-1.59,1.73-4.43,4.75-6.32,6.71h0Zm6.91-17.71c.93.85,1.66,1.09,2.27,1.13,1.34.08,2.65-.41,3.7,1.08.42.59.34,1.6.99,1.78-.46.21-1.17-.05-1.39-.52-.28.6-1.76.77-2.16-.46.36.39.96.17,1.06-.16.12-.4.05-.85-.98-1.03-1.19-.2-2.11.21-3.83-1.46-1.73-1.68-4.69-4.66-6.56-6.49l.19-.19c1.97,1.89,4.99,4.73,6.71,6.32Z" opacity=".2" style="fill:#a3836b;fill-rule:evenodd;stroke-width:0"/><path d="m84.19,60.16l-.19-.19c-1.84,1.88-4.8,4.85-6.48,6.58-1.67,1.72-1.26,2.64-1.46,3.83-.18,1.03-.63,1.1-1.03.98-.33-.1-.55-.7-.16-1.06-1.23.4-1.06,1.88-.46,2.16-.47.21-.73.93-.52,1.39.18-.65,1.19-.57,1.78-.99,1.49-1.04,1-2.36,1.08-3.7.04-.61.27-1.35,1.13-2.27,1.59-1.73,4.42-4.76,6.31-6.73h0Zm-12.1,11.12c-.44,0-.8.36-.8.8s.36.8.8.8.8-.36.8-.8-.36-.8-.8-.8h0Zm11.93,12.91c-1.97-1.89-5-4.72-6.73-6.31-.93-.85-1.66-1.09-2.27-1.13-1.34-.08-2.65.41-3.7-1.08-.42-.59-.34-1.6-.99-1.78.46-.21,1.17.05,1.39.52.28-.6,1.76-.77,2.16.46-.36-.39-.96-.17-1.06.16-.12.4-.05.85.98,1.03,1.19.2,2.11-.21,3.83,1.46,1.73,1.68,4.7,4.64,6.58,6.48l-.19.19h0Zm-24.04-.19l.19.19c1.84-1.88,4.81-4.83,6.49-6.56,1.68-1.72,1.26-2.64,1.46-3.83.18-1.03.63-1.1,1.03-.98.33.1.55.7.16,1.06,1.23-.4,1.06-1.88.46-2.16.47-.21.73-.93.52-1.39-.18.65-1.19.57-1.78.99-1.49,1.04-1,2.36-1.08,3.7-.04.61-.27,1.35-1.13,2.27-1.59,1.73-4.43,4.75-6.32,6.71h0Zm6.91-17.71c.93.85,1.66,1.09,2.27,1.13,1.34.08,2.65-.41,3.7,1.08.42.59.34,1.6.99,1.78-.46.21-1.17-.05-1.39-.52-.28.6-1.76.77-2.16-.46.36.39.96.17,1.06-.16.12-.4.05-.85-.98-1.03-1.19-.2-2.11.21-3.83-1.46-1.73-1.68-4.69-4.66-6.56-6.49l.19-.19c1.97,1.89,4.99,4.73,6.71,6.32Z" opacity=".2" style="fill:#a3836b;fill-rule:evenodd;stroke-width:0"/><path d="m96.11,43.72c-.89-.54-1.9-.27-2.93-.33-.61-.04-1.35-.27-2.27-1.13-1.73-1.59-4.75-4.43-6.71-6.32l-.19.19c1.88,1.84,4.83,4.81,6.56,6.49,1.72,1.68,2.64,1.26,3.83,1.46,1.03.18,1.1.63.98,1.03-.1.33-.7.55-1.06.16.3.94,1.24,1.06,1.79.8v-2.35h0Zm0,3.54c-.44,0-.8.36-.8.8s.36.8.8.8v-1.61h0Zm0,2.79c-.17.08-.3.2-.37.34-.21-.47-.93-.73-1.39-.52.65.18.57,1.19.99,1.78.24.35.5.58.77.75v-2.35h0Zm-5.79,3.21c.85-.93,1.09-1.66,1.13-2.27.08-1.34-.41-2.65,1.08-3.7.59-.42,1.6-.34,1.78-.99.21.46-.05,1.17-.52,1.39.6.28.77,1.76-.46,2.16.39-.36.17-.96-.16-1.06-.4-.12-.85-.05-1.03.98-.2,1.19.21,2.11-1.46,3.83-1.68,1.73-4.66,4.69-6.49,6.56l-.19-.19c1.89-1.97,4.73-4.99,6.32-6.71Z" opacity=".2" style="fill:#a3836b;fill-rule:evenodd;stroke-width:0"/><path d="m12.1,84.19l-.19-.19c-1.84,1.88-4.8,4.85-6.48,6.58-1.67,1.72-1.26,2.64-1.46,3.83-.18,1.03-.63,1.1-1.03.98-.33-.1-.55-.7-.16-1.06-1.23.4-1.06,1.88-.46,2.16-.47.21-.73.93-.52,1.39.18-.65,1.19-.57,1.78-.99,1.49-1.04,1-2.36,1.08-3.7.04-.61.27-1.35,1.13-2.27,1.59-1.73,4.42-4.76,6.31-6.73h0ZM0,100.46v-2.35c.55-.26,1.49-.14,1.79.8-.36-.39-.96-.17-1.06.16-.12.4-.05.85.98,1.03,1.19.2,2.11-.21,3.83,1.46,1.73,1.68,4.7,4.64,6.58,6.48l-.19.19c-1.97-1.89-5-4.72-6.73-6.31-.93-.85-1.66-1.09-2.27-1.13-1.03-.06-2.04.21-2.93-.33h0Zm0-3.54c.44,0,.8-.36.8-.8s-.36-.8-.8-.8v1.61h0Zm0-5.14c.27.16.53.4.77.75.42.59.34,1.6.99,1.78-.46.21-1.17-.05-1.39-.52-.07.14-.2.26-.37.34v-2.35Z" opacity=".2" style="fill:#a3836b;fill-rule:evenodd;stroke-width:0"/><path d="m36.13,108.22l-.19-.19c-1.84,1.88-4.8,4.85-6.48,6.58-1.67,1.72-1.26,2.64-1.46,3.83-.18,1.03-.63,1.1-1.03.98-.33-.1-.55-.7-.16-1.06-1.23.4-1.06,1.88-.46,2.16-.47.21-.73.93-.52,1.39.18-.65,1.19-.57,1.78-.99,1.49-1.04,1-2.36,1.08-3.7.04-.61.27-1.35,1.13-2.27,1.59-1.73,4.42-4.76,6.31-6.73h0Zm-12.1,11.12c-.44,0-.8.36-.8.8s.36.8.8.8.8-.36.8-.8-.36-.8-.8-.8h0Zm11.93,12.91c-1.97-1.89-5-4.72-6.73-6.31-.93-.85-1.66-1.09-2.27-1.13-1.34-.08-2.65.41-3.7-1.08-.42-.59-.34-1.6-.99-1.78.46-.21,1.17.05,1.39.52.28-.6,1.76-.77,2.16.46-.36-.39-.96-.17-1.06.16-.12.4-.05.85.98,1.03,1.19.2,2.11-.21,3.83,1.46,1.73,1.68,4.7,4.64,6.58,6.48l-.19.19h0Zm-24.04-.19l.19.19c1.84-1.88,4.81-4.83,6.49-6.56,1.68-1.72,1.26-2.64,1.46-3.83.18-1.03.63-1.1,1.03-.98.33.1.55.7.16,1.06,1.23-.4,1.06-1.88.46-2.16.47-.21.73-.93.52-1.39-.18.65-1.19.57-1.78.99-1.49,1.04-1,2.36-1.08,3.7-.04.61-.27,1.35-1.13,2.27-1.59,1.73-4.43,4.75-6.32,6.71h0Zm6.91-17.71c.93.85,1.66,1.09,2.27,1.13,1.34.08,2.65-.41,3.7,1.08.42.59.34,1.6.99,1.78-.46.21-1.17-.05-1.39-.52-.28.6-1.76.77-2.16-.46.36.39.96.17,1.06-.16.12-.4.05-.85-.98-1.03-1.19-.2-2.11.21-3.83-1.46-1.73-1.68-4.69-4.66-6.56-6.49l.19-.19c1.97,1.89,4.99,4.73,6.71,6.32Z" opacity=".2" style="fill:#a3836b;fill-rule:evenodd;stroke-width:0"/><path d="m60.16,84.19l-.19-.19c-1.84,1.88-4.8,4.85-6.48,6.58-1.67,1.72-1.26,2.64-1.46,3.83-.18,1.03-.63,1.1-1.03.98-.33-.1-.55-.7-.16-1.06-1.23.4-1.06,1.88-.46,2.16-.47.21-.73.93-.52,1.39.18-.65,1.19-.57,1.78-.99,1.49-1.04,1-2.36,1.08-3.7.04-.61.27-1.35,1.13-2.27,1.59-1.73,4.42-4.76,6.31-6.73h0Zm-12.1,11.12c-.44,0-.8.36-.8.8s.36.8.8.8.8-.36.8-.8-.36-.8-.8-.8h0Zm11.93,12.91c-1.97-1.89-5-4.72-6.73-6.31-.93-.85-1.66-1.09-2.27-1.13-1.34-.08-2.65.41-3.7-1.08-.42-.59-.34-1.6-.99-1.78.46-.21,1.17.05,1.39.52.28-.6,1.76-.77,2.16.46-.36-.39-.96-.17-1.06.16-.12.4-.05.85.98,1.03,1.19.2,2.11-.21,3.83,1.46,1.73,1.68,4.7,4.64,6.58,6.48l-.19.19h0Zm-24.04-.19l.19.19c1.84-1.88,4.81-4.83,6.49-6.56,1.68-1.72,1.26-2.64,1.46-3.83.18-1.03.63-1.1,1.03-.98.33.1.55.7.16,1.06,1.23-.4,1.06-1.88.46-2.16.47-.21.73-.93.52-1.39-.18.65-1.19.57-1.78.99-1.49,1.04-1,2.36-1.08,3.7-.04.61-.27,1.35-1.13,2.27-1.59,1.73-4.43,4.75-6.32,6.71h0Zm6.91-17.71c.93.85,1.66,1.09,2.27,1.13,1.34.08,2.65-.41,3.7,1.08.42.59.34,1.6.99,1.78-.46.21-1.17-.05-1.39-.52-.28.6-1.76.77-2.16-.46.36.39.96.17,1.06-.16.12-.4.05-.85-.98-1.03-1.19-.2-2.11.21-3.83-1.46-1.73-1.68-4.69-4.66-6.56-6.49l.19-.19c1.97,1.89,4.99,4.73,6.71,6.32Z" opacity=".2" style="fill:#a3836b;fill-rule:evenodd;stroke-width:0"/><path d="m84.19,108.22l-.19-.19c-1.84,1.88-4.8,4.85-6.48,6.58-1.67,1.72-1.26,2.64-1.46,3.83-.18,1.03-.63,1.1-1.03.98-.33-.1-.55-.7-.16-1.06-1.23.4-1.06,1.88-.46,2.16-.47.21-.73.93-.52,1.39.18-.65,1.19-.57,1.78-.99,1.49-1.04,1-2.36,1.08-3.7.04-.61.27-1.35,1.13-2.27,1.59-1.73,4.42-4.76,6.31-6.73h0Zm-12.1,11.12c-.44,0-.8.36-.8.8s.36.8.8.8.8-.36.8-.8-.36-.8-.8-.8h0Zm11.93,12.91c-1.97-1.89-5-4.72-6.73-6.31-.93-.85-1.66-1.09-2.27-1.13-1.34-.08-2.65.41-3.7-1.08-.42-.59-.34-1.6-.99-1.78.46-.21,1.17.05,1.39.52.28-.6,1.76-.77,2.16.46-.36-.39-.96-.17-1.06.16-.12.4-.05.85.98,1.03,1.19.2,2.11-.21,3.83,1.46,1.73,1.68,4.7,4.64,6.58,6.48l-.19.19h0Zm-24.04-.19l.19.19c1.84-1.88,4.81-4.83,6.49-6.56,1.68-1.72,1.26-2.64,1.46-3.83.18-1.03.63-1.1,1.03-.98.33.1.55.7.16,1.06,1.23-.4,1.06-1.88.46-2.16.47-.21.73-.93.52-1.39-.18.65-1.19.57-1.78.99-1.49,1.04-1,2.36-1.08,3.7-.04.61-.27,1.35-1.13,2.27-1.59,1.73-4.43,4.75-6.32,6.71h0Zm6.91-17.71c.93.85,1.66,1.09,2.27,1.13,1.34.08,2.65-.41,3.7,1.08.42.59.34,1.6.99,1.78-.46.21-1.17-.05-1.39-.52-.28.6-1.76.77-2.16-.46.36.39.96.17,1.06-.16.12-.4.05-.85-.98-1.03-1.19-.2-2.11.21-3.83-1.46-1.73-1.68-4.69-4.66-6.56-6.49l.19-.19c1.97,1.89,4.99,4.73,6.71,6.32Z" opacity=".2" style="fill:#a3836b;fill-rule:evenodd;stroke-width:0"/><path d="m96.11,91.78c-.89-.54-1.9-.27-2.93-.33-.61-.04-1.35-.27-2.27-1.13-1.73-1.59-4.75-4.43-6.71-6.32l-.19.19c1.88,1.84,4.83,4.81,6.56,6.49,1.72,1.68,2.64,1.26,3.83,1.46,1.03.18,1.1.63.98,1.03-.1.33-.7.55-1.06.16.3.94,1.24,1.06,1.79.8v-2.35h0Zm0,3.54c-.44,0-.8.36-.8.8s.36.8.8.8v-1.61h0Zm0,2.79c-.17.08-.3.2-.37.34-.21-.47-.93-.73-1.39-.52.65.18.57,1.19.99,1.78.24.35.5.58.77.75v-2.35h0Zm-5.79,3.21c.85-.93,1.09-1.66,1.13-2.27.08-1.34-.41-2.65,1.08-3.7.59-.42,1.6-.34,1.78-.99.21.46-.05,1.17-.52,1.39.6.28.77,1.76-.46,2.16.39-.36.17-.96-.16-1.06-.4-.12-.85-.05-1.03.98-.2,1.19.21,2.11-1.46,3.83-1.68,1.73-4.66,4.69-6.49,6.56l-.19-.19c1.89-1.97,4.73-4.99,6.32-6.71Z" opacity=".2" style="fill:#a3836b;fill-rule:evenodd;stroke-width:0"/><path d="m12.1,132.25l-.19-.19c-1.84,1.88-4.8,4.85-6.48,6.58-1.67,1.72-1.26,2.64-1.46,3.83-.18,1.03-.63,1.1-1.03.98-.33-.1-.55-.7-.16-1.06-1.23.4-1.06,1.88-.46,2.16-.47.21-.73.93-.52,1.39.18-.65,1.19-.57,1.78-.99,1.49-1.04,1-2.36,1.08-3.7.04-.61.27-1.35,1.13-2.27,1.59-1.73,4.42-4.76,6.31-6.73h0ZM0,148.52v-2.35c.55-.26,1.49-.14,1.79.8-.36-.39-.96-.17-1.06.16-.12.4-.05.85.98,1.03,1.19.2,2.11-.21,3.83,1.46,1.73,1.68,4.7,4.64,6.58,6.48l-.19.19c-1.97-1.89-5-4.72-6.73-6.31-.93-.85-1.66-1.09-2.27-1.13-1.03-.06-2.04.21-2.93-.33h0Zm0-3.54c.44,0,.8-.36.8-.8s-.36-.8-.8-.8v1.61h0Zm0-5.14c.27.16.53.4.77.75.42.59.34,1.6.99,1.78-.46.21-1.17-.05-1.39-.52-.07.14-.2.26-.37.34v-2.35Z" opacity=".2" style="fill:#a3836b;fill-rule:evenodd;stroke-width:0"/><path d="m36.13,156.28l-.19-.19c-1.84,1.88-4.8,4.85-6.48,6.58-1.67,1.72-1.26,2.64-1.46,3.83-.18,1.03-.63,1.1-1.03.98-.33-.1-.55-.7-.16-1.06-1.23.4-1.06,1.88-.46,2.16-.47.21-.73.93-.52,1.39.18-.65,1.19-.57,1.78-.99,1.49-1.04,1-2.36,1.08-3.7.04-.61.27-1.35,1.13-2.27,1.59-1.73,4.42-4.76,6.31-6.73h0Zm-12.1,11.12c-.44,0-.8.36-.8.8s.36.8.8.8.8-.36.8-.8-.36-.8-.8-.8h0Zm11.93,12.91c-1.97-1.89-5-4.72-6.73-6.31-.93-.85-1.66-1.09-2.27-1.13-1.34-.08-2.65.41-3.7-1.08-.42-.59-.34-1.6-.99-1.78.46-.21,1.17.05,1.39.52.28-.6,1.76-.77,2.16.46-.36-.39-.96-.17-1.06.16-.12.4-.05.85.98,1.03,1.19.2,2.11-.21,3.83,1.46,1.73,1.68,4.7,4.64,6.58,6.48l-.19.19h0Zm-24.04-.19l.19.19c1.84-1.88,4.81-4.83,6.49-6.56,1.68-1.72,1.26-2.64,1.46-3.83.18-1.03.63-1.1,1.03-.98.33.1.55.7.16,1.06,1.23-.4,1.06-1.88.46-2.16.47-.21.73-.93.52-1.39-.18.65-1.19.57-1.78.99-1.49,1.04-1,2.36-1.08,3.7-.04.61-.27,1.35-1.13,2.27-1.59,1.73-4.43,4.75-6.32,6.71h0Zm6.91-17.71c.93.85,1.66,1.09,2.27,1.13,1.34.08,2.65-.41,3.7,1.08.42.59.34,1.6.99,1.78-.46.21-1.17-.05-1.39-.52-.28.6-1.76.77-2.16-.46.36.39.96.17,1.06-.16.12-.4.05-.85-.98-1.03-1.19-.2-2.11.21-3.83-1.46-1.73-1.68-4.69-4.66-6.56-6.49l.19-.19c1.97,1.89,4.99,4.73,6.71,6.32Z" opacity=".2" style="fill:#a3836b;fill-rule:evenodd;stroke-width:0"/><path d="m60.16,132.25l-.19-.19c-1.84,1.88-4.8,4.85-6.48,6.58-1.67,1.72-1.26,2.64-1.46,3.83-.18,1.03-.63,1.1-1.03.98-.33-.1-.55-.7-.16-1.06-1.23.4-1.06,1.88-.46,2.16-.47.21-.73.93-.52,1.39.18-.65,1.19-.57,1.78-.99,1.49-1.04,1-2.36,1.08-3.7.04-.61.27-1.35,1.13-2.27,1.59-1.73,4.42-4.76,6.31-6.73h0Zm-12.1,11.12c-.44,0-.8.36-.8.8s.36.8.8.8.8-.36.8-.8-.36-.8-.8-.8h0Zm11.93,12.91c-1.97-1.89-5-4.72-6.73-6.31-.93-.85-1.66-1.09-2.27-1.13-1.34-.08-2.65.41-3.7-1.08-.42-.59-.34-1.6-.99-1.78.46-.21,1.17.05,1.39.52.28-.6,1.76-.77,2.16.46-.36-.39-.96-.17-1.06.16-.12.4-.05.85.98,1.03,1.19.2,2.11-.21,3.83,1.46,1.73,1.68,4.7,4.64,6.58,6.48l-.19.19h0Zm-24.04-.19l.19.19c1.84-1.88,4.81-4.83,6.49-6.56,1.68-1.72,1.26-2.64,1.46-3.83.18-1.03.63-1.1,1.03-.98.33.1.55.7.16,1.06,1.23-.4,1.06-1.88.46-2.16.47-.21.73-.93.52-1.39-.18.65-1.19.57-1.78.99-1.49,1.04-1,2.36-1.08,3.7-.04.61-.27,1.35-1.13,2.27-1.59,1.73-4.43,4.75-6.32,6.71h0Zm6.91-17.71c.93.85,1.66,1.09,2.27,1.13,1.34.08,2.65-.41,3.7,1.08.42.59.34,1.6.99,1.78-.46.21-1.17-.05-1.39-.52-.28.6-1.76.77-2.16-.46.36.39.96.17,1.06-.16.12-.4.05-.85-.98-1.03-1.19-.2-2.11.21-3.83-1.46-1.73-1.68-4.69-4.66-6.56-6.49l.19-.19c1.97,1.89,4.99,4.73,6.71,6.32Z" opacity=".2" style="fill:#a3836b;fill-rule:evenodd;stroke-width:0"/><path d="m84.19,156.28l-.19-.19c-1.84,1.88-4.8,4.85-6.48,6.58-1.67,1.72-1.26,2.64-1.46,3.83-.18,1.03-.63,1.1-1.03.98-.33-.1-.55-.7-.16-1.06-1.23.4-1.06,1.88-.46,2.16-.47.21-.73.93-.52,1.39.18-.65,1.19-.57,1.78-.99,1.49-1.04,1-2.36,1.08-3.7.04-.61.27-1.35,1.13-2.27,1.59-1.73,4.42-4.76,6.31-6.73h0Zm-12.1,11.12c-.44,0-.8.36-.8.8s.36.8.8.8.8-.36.8-.8-.36-.8-.8-.8h0Zm11.93,12.91c-1.97-1.89-5-4.72-6.73-6.31-.93-.85-1.66-1.09-2.27-1.13-1.34-.08-2.65.41-3.7-1.08-.42-.59-.34-1.6-.99-1.78.46-.21,1.17.05,1.39.52.28-.6,1.76-.77,2.16.46-.36-.39-.96-.17-1.06.16-.12.4-.05.85.98,1.03,1.19.2,2.11-.21,3.83,1.46,1.73,1.68,4.7,4.64,6.58,6.48l-.19.19h0Zm-24.04-.19l.19.19c1.84-1.88,4.81-4.83,6.49-6.56,1.68-1.72,1.26-2.64,1.46-3.83.18-1.03.63-1.1,1.03-.98.33.1.55.7.16,1.06,1.23-.4,1.06-1.88.46-2.16.47-.21.73-.93.52-1.39-.18.65-1.19.57-1.78.99-1.49,1.04-1,2.36-1.08,3.7-.04.61-.27,1.35-1.13,2.27-1.59,1.73-4.43,4.75-6.32,6.71h0Zm6.91-17.71c.93.85,1.66,1.09,2.27,1.13,1.34.08,2.65-.41,3.7,1.08.42.59.34,1.6.99,1.78-.46.21-1.17-.05-1.39-.52-.28.6-1.76.77-2.16-.46.36.39.96.17,1.06-.16.12-.4.05-.85-.98-1.03-1.19-.2-2.11.21-3.83-1.46-1.73-1.68-4.69-4.66-6.56-6.49l.19-.19c1.97,1.89,4.99,4.73,6.71,6.32Z" opacity=".2" style="fill:#a3836b;fill-rule:evenodd;stroke-width:0"/><path d="m96.11,139.83c-.89-.54-1.9-.27-2.93-.33-.61-.04-1.35-.27-2.27-1.13-1.73-1.59-4.75-4.43-6.71-6.32l-.19.19c1.88,1.84,4.83,4.81,6.56,6.49,1.72,1.68,2.64,1.26,3.83,1.46,1.03.18,1.1.63.98,1.03-.1.33-.7.55-1.06.16.3.94,1.24,1.06,1.79.8v-2.35h0Zm0,3.54c-.44,0-.8.36-.8.8s.36.8.8.8v-1.61h0Zm0,2.79c-.17.08-.3.2-.37.34-.21-.47-.93-.73-1.39-.52.65.18.57,1.19.99,1.78.24.35.5.58.77.75v-2.35h0Zm-5.79,3.21c.85-.93,1.09-1.66,1.13-2.27.08-1.34-.41-2.65,1.08-3.7.59-.42,1.6-.34,1.78-.99.21.46-.05,1.17-.52,1.39.6.28.77,1.76-.46,2.16.39-.36.17-.96-.16-1.06-.4-.12-.85-.05-1.03.98-.2,1.19.21,2.11-1.46,3.83-1.68,1.73-4.66,4.69-6.49,6.56l-.19-.19c1.89-1.97,4.73-4.99,6.32-6.71Z" opacity=".2" style="fill:#a3836b;fill-rule:evenodd;stroke-width:0"/><path d="m12.1,180.31l-.19-.19c-1.84,1.88-4.8,4.85-6.48,6.58-1.67,1.72-1.26,2.64-1.46,3.83-.18,1.03-.63,1.1-1.03.98-.33-.1-.55-.7-.16-1.06-1.23.4-1.06,1.88-.46,2.16-.47.21-.73.93-.52,1.39.18-.65,1.19-.57,1.78-.99,1.49-1.04,1-2.36,1.08-3.7.04-.61.27-1.35,1.13-2.27,1.59-1.73,4.42-4.76,6.31-6.73h0ZM0,196.57v-2.35c.55-.26,1.49-.14,1.79.8-.36-.39-.96-.17-1.06.16-.12.4-.05.85.98,1.03,1.19.2,2.11-.21,3.83,1.46,1.73,1.68,4.7,4.64,6.58,6.48l-.19.19c-1.97-1.89-5-4.72-6.73-6.31-.93-.85-1.66-1.09-2.27-1.13-1.03-.06-2.04.21-2.93-.33h0Zm0-3.54c.44,0,.8-.36.8-.8s-.36-.8-.8-.8v1.61h0Zm0-5.14c.27.16.53.4.77.75.42.59.34,1.6.99,1.78-.46.21-1.17-.05-1.39-.52-.07.14-.2.26-.37.34v-2.35Z" opacity=".2" style="fill:#a3836b;fill-rule:evenodd;stroke-width:0"/><path d="m36.13,204.33l-.19-.19c-1.84,1.88-4.8,4.85-6.48,6.58-1.67,1.72-1.26,2.64-1.46,3.83-.18,1.03-.63,1.1-1.03.98-.33-.1-.55-.7-.16-1.06-1.23.4-1.06,1.88-.46,2.16-.47.21-.73.93-.52,1.39.18-.65,1.19-.57,1.78-.99,1.49-1.04,1-2.36,1.08-3.7.04-.61.27-1.35,1.13-2.27,1.59-1.73,4.42-4.76,6.31-6.73h0Zm-12.1,11.12c-.44,0-.8.36-.8.8s.36.8.8.8.8-.36.8-.8-.36-.8-.8-.8h0Zm11.93,12.91c-1.97-1.89-5-4.72-6.73-6.31-.93-.85-1.66-1.09-2.27-1.13-1.34-.08-2.65.41-3.7-1.08-.42-.59-.34-1.6-.99-1.78.46-.21,1.17.05,1.39.52.28-.6,1.76-.77,2.16.46-.36-.39-.96-.17-1.06.16-.12.4-.05.85.98,1.03,1.19.2,2.11-.21,3.83,1.46,1.73,1.68,4.7,4.64,6.58,6.48l-.19.19h0Zm-24.04-.19l.19.19c1.84-1.88,4.81-4.83,6.49-6.56,1.68-1.72,1.26-2.64,1.46-3.83.18-1.03.63-1.1,1.03-.98.33.1.55.7.16,1.06,1.23-.4,1.06-1.88.46-2.16.47-.21.73-.93.52-1.39-.18.65-1.19.57-1.78.99-1.49,1.04-1,2.36-1.08,3.7-.04.61-.27,1.35-1.13,2.27-1.59,1.73-4.43,4.75-6.32,6.71h0Zm6.91-17.71c.93.85,1.66,1.09,2.27,1.13,1.34.08,2.65-.41,3.7,1.08.42.59.34,1.6.99,1.78-.46.21-1.17-.05-1.39-.52-.28.6-1.76.77-2.16-.46.36.39.96.17,1.06-.16.12-.4.05-.85-.98-1.03-1.19-.2-2.11.21-3.83-1.46-1.73-1.68-4.69-4.66-6.56-6.49l.19-.19c1.97,1.89,4.99,4.73,6.71,6.32Z" opacity=".2" style="fill:#a3836b;fill-rule:evenodd;stroke-width:0"/><path d="m60.16,180.31l-.19-.19c-1.84,1.88-4.8,4.85-6.48,6.58-1.67,1.72-1.26,2.64-1.46,3.83-.18,1.03-.63,1.1-1.03.98-.33-.1-.55-.7-.16-1.06-1.23.4-1.06,1.88-.46,2.16-.47.21-.73.93-.52,1.39.18-.65,1.19-.57,1.78-.99,1.49-1.04,1-2.36,1.08-3.7.04-.61.27-1.35,1.13-2.27,1.59-1.73,4.42-4.76,6.31-6.73h0Zm-12.1,11.12c-.44,0-.8.36-.8.8s.36.8.8.8.8-.36.8-.8-.36-.8-.8-.8h0Zm11.93,12.91c-1.97-1.89-5-4.72-6.73-6.31-.93-.85-1.66-1.09-2.27-1.13-1.34-.08-2.65.41-3.7-1.08-.42-.59-.34-1.6-.99-1.78.46-.21,1.17.05,1.39.52.28-.6,1.76-.77,2.16.46-.36-.39-.96-.17-1.06.16-.12.4-.05.85.98,1.03,1.19.2,2.11-.21,3.83,1.46,1.73,1.68,4.7,4.64,6.58,6.48l-.19.19h0Zm-24.04-.19l.19.19c1.84-1.88,4.81-4.83,6.49-6.56,1.68-1.72,1.26-2.64,1.46-3.83.18-1.03.63-1.1,1.03-.98.33.1.55.7.16,1.06,1.23-.4,1.06-1.88.46-2.16.47-.21.73-.93.52-1.39-.18.65-1.19.57-1.78.99-1.49,1.04-1,2.36-1.08,3.7-.04.61-.27,1.35-1.13,2.27-1.59,1.73-4.43,4.75-6.32,6.71h0Zm6.91-17.71c.93.85,1.66,1.09,2.27,1.13,1.34.08,2.65-.41,3.7,1.08.42.59.34,1.6.99,1.78-.46.21-1.17-.05-1.39-.52-.28.6-1.76.77-2.16-.46.36.39.96.17,1.06-.16.12-.4.05-.85-.98-1.03-1.19-.2-2.11.21-3.83-1.46-1.73-1.68-4.69-4.66-6.56-6.49l.19-.19c1.97,1.89,4.99,4.73,6.71,6.32Z" opacity=".2" style="fill:#a3836b;fill-rule:evenodd;stroke-width:0"/><path d="m84.19,204.33l-.19-.19c-1.84,1.88-4.8,4.85-6.48,6.58-1.67,1.72-1.26,2.64-1.46,3.83-.18,1.03-.63,1.1-1.03.98-.33-.1-.55-.7-.16-1.06-1.23.4-1.06,1.88-.46,2.16-.47.21-.73.93-.52,1.39.18-.65,1.19-.57,1.78-.99,1.49-1.04,1-2.36,1.08-3.7.04-.61.27-1.35,1.13-2.27,1.59-1.73,4.42-4.76,6.31-6.73h0Zm-12.1,11.12c-.44,0-.8.36-.8.8s.36.8.8.8.8-.36.8-.8-.36-.8-.8-.8h0Zm11.93,12.91c-1.97-1.89-5-4.72-6.73-6.31-.93-.85-1.66-1.09-2.27-1.13-1.34-.08-2.65.41-3.7-1.08-.42-.59-.34-1.6-.99-1.78.46-.21,1.17.05,1.39.52.28-.6,1.76-.77,2.16.46-.36-.39-.96-.17-1.06.16-.12.4-.05.85.98,1.03,1.19.2,2.11-.21,3.83,1.46,1.73,1.68,4.7,4.64,6.58,6.48l-.19.19h0Zm-24.04-.19l.19.19c1.84-1.88,4.81-4.83,6.49-6.56,1.68-1.72,1.26-2.64,1.46-3.83.18-1.03.63-1.1,1.03-.98.33.1.55.7.16,1.06,1.23-.4,1.06-1.88.46-2.16.47-.21.73-.93.52-1.39-.18.65-1.19.57-1.78.99-1.49,1.04-1,2.36-1.08,3.7-.04.61-.27,1.35-1.13,2.27-1.59,1.73-4.43,4.75-6.32,6.71h0Zm6.91-17.71c.93.85,1.66,1.09,2.27,1.13,1.34.08,2.65-.41,3.7,1.08.42.59.34,1.6.99,1.78-.46.21-1.17-.05-1.39-.52-.28.6-1.76.77-2.16-.46.36.39.96.17,1.06-.16.12-.4.05-.85-.98-1.03-1.19-.2-2.11.21-3.83-1.46-1.73-1.68-4.69-4.66-6.56-6.49l.19-.19c1.97,1.89,4.99,4.73,6.71,6.32Z" opacity=".2" style="fill:#a3836b;fill-rule:evenodd;stroke-width:0"/><path d="m96.11,187.89c-.89-.54-1.9-.27-2.93-.33-.61-.04-1.35-.27-2.27-1.13-1.73-1.59-4.75-4.43-6.71-6.32l-.19.19c1.88,1.84,4.83,4.81,6.56,6.49,1.72,1.68,2.64,1.26,3.83,1.46,1.03.18,1.1.63.98,1.03-.1.33-.7.55-1.06.16.3.94,1.24,1.06,1.79.8v-2.35h0Zm0,3.54c-.44,0-.8.36-.8.8s.36.8.8.8v-1.61h0Zm0,2.79c-.17.08-.3.2-.37.34-.21-.47-.93-.73-1.39-.52.65.18.57,1.19.99,1.78.24.35.5.58.77.75v-2.35h0Zm-5.79,3.21c.85-.93,1.09-1.66,1.13-2.27.08-1.34-.41-2.65,1.08-3.7.59-.42,1.6-.34,1.78-.99.21.46-.05,1.17-.52,1.39.6.28.77,1.76-.46,2.16.39-.36.17-.96-.16-1.06-.4-.12-.85-.05-1.03.98-.2,1.19.21,2.11-1.46,3.83-1.68,1.73-4.66,4.69-6.49,6.56l-.19-.19c1.89-1.97,4.73-4.99,6.32-6.71Z" opacity=".2" style="fill:#a3836b;fill-rule:evenodd;stroke-width:0"/><path d="m12.1,228.36l-.19-.19c-1.84,1.88-4.8,4.85-6.48,6.58-1.67,1.72-1.26,2.64-1.46,3.83-.18,1.03-.63,1.1-1.03.98-.33-.1-.55-.7-.16-1.06-1.23.4-1.06,1.88-.46,2.16-.47.21-.73.93-.52,1.39.18-.65,1.19-.57,1.78-.99,1.49-1.04,1-2.36,1.08-3.7.04-.61.27-1.35,1.13-2.27,1.59-1.73,4.42-4.76,6.31-6.73h0ZM0,244.63v-2.35c.55-.26,1.49-.14,1.79.8-.36-.39-.96-.17-1.06.16-.12.4-.05.85.98,1.03,1.19.2,2.11-.21,3.83,1.46,1.73,1.68,4.7,4.64,6.58,6.48l-.19.19c-1.97-1.89-5-4.72-6.73-6.31-.93-.85-1.66-1.09-2.27-1.13-1.03-.06-2.04.21-2.93-.33h0Zm0-3.54c.44,0,.8-.36.8-.8s-.36-.8-.8-.8v1.61h0Zm0-5.14c.27.16.53.4.77.75.42.59.34,1.6.99,1.78-.46.21-1.17-.05-1.39-.52-.07.14-.2.26-.37.34v-2.35Z" opacity=".2" style="fill:#a3836b;fill-rule:evenodd;stroke-width:0"/><path d="m36.13,252.39l-.19-.19c-1.84,1.88-4.8,4.85-6.48,6.58-1.67,1.72-1.26,2.64-1.46,3.83-.18,1.03-.63,1.1-1.03.98-.33-.1-.55-.7-.16-1.06-1.23.4-1.06,1.88-.46,2.16-.47.21-.73.93-.52,1.39.18-.65,1.19-.57,1.78-.99,1.49-1.04,1-2.36,1.08-3.7.04-.61.27-1.35,1.13-2.27,1.59-1.73,4.42-4.76,6.31-6.73h0Zm-12.1,11.12c-.44,0-.8.36-.8.8s.36.8.8.8.8-.36.8-.8-.36-.8-.8-.8h0Zm11.93,12.91c-1.97-1.89-5-4.72-6.73-6.31-.93-.85-1.66-1.09-2.27-1.13-1.34-.08-2.65.41-3.7-1.08-.42-.59-.34-1.6-.99-1.78.46-.21,1.17.05,1.39.52.28-.6,1.76-.77,2.16.46-.36-.39-.96-.17-1.06.16-.12.4-.05.85.98,1.03,1.19.2,2.11-.21,3.83,1.46,1.73,1.68,4.7,4.64,6.58,6.48l-.19.19h0Zm-24.04-.19l.19.19c1.84-1.88,4.81-4.83,6.49-6.56,1.68-1.72,1.26-2.64,1.46-3.83.18-1.03.63-1.1,1.03-.98.33.1.55.7.16,1.06,1.23-.4,1.06-1.88.46-2.16.47-.21.73-.93.52-1.39-.18.65-1.19.57-1.78.99-1.49,1.04-1,2.36-1.08,3.7-.04.61-.27,1.35-1.13,2.27-1.59,1.73-4.43,4.75-6.32,6.71h0Zm6.91-17.71c.93.85,1.66,1.09,2.27,1.13,1.34.08,2.65-.41,3.7,1.08.42.59.34,1.6.99,1.78-.46.21-1.17-.05-1.39-.52-.28.6-1.76.77-2.16-.46.36.39.96.17,1.06-.16.12-.4.05-.85-.98-1.03-1.19-.2-2.11.21-3.83-1.46-1.73-1.68-4.69-4.66-6.56-6.49l.19-.19c1.97,1.89,4.99,4.73,6.71,6.32Z" opacity=".2" style="fill:#a3836b;fill-rule:evenodd;stroke-width:0"/><path d="m60.16,228.36l-.19-.19c-1.84,1.88-4.8,4.85-6.48,6.58-1.67,1.72-1.26,2.64-1.46,3.83-.18,1.03-.63,1.1-1.03.98-.33-.1-.55-.7-.16-1.06-1.23.4-1.06,1.88-.46,2.16-.47.21-.73.93-.52,1.39.18-.65,1.19-.57,1.78-.99,1.49-1.04,1-2.36,1.08-3.7.04-.61.27-1.35,1.13-2.27,1.59-1.73,4.42-4.76,6.31-6.73h0Zm-12.1,11.12c-.44,0-.8.36-.8.8s.36.8.8.8.8-.36.8-.8-.36-.8-.8-.8h0Zm11.93,12.91c-1.97-1.89-5-4.72-6.73-6.31-.93-.85-1.66-1.09-2.27-1.13-1.34-.08-2.65.41-3.7-1.08-.42-.59-.34-1.6-.99-1.78.46-.21,1.17.05,1.39.52.28-.6,1.76-.77,2.16.46-.36-.39-.96-.17-1.06.16-.12.4-.05.85.98,1.03,1.19.2,2.11-.21,3.83,1.46,1.73,1.68,4.7,4.64,6.58,6.48l-.19.19h0Zm-24.04-.19l.19.19c1.84-1.88,4.81-4.83,6.49-6.56,1.68-1.72,1.26-2.64,1.46-3.83.18-1.03.63-1.1,1.03-.98.33.1.55.7.16,1.06,1.23-.4,1.06-1.88.46-2.16.47-.21.73-.93.52-1.39-.18.65-1.19.57-1.78.99-1.49,1.04-1,2.36-1.08,3.7-.04.61-.27,1.35-1.13,2.27-1.59,1.73-4.43,4.75-6.32,6.71h0Zm6.91-17.71c.93.85,1.66,1.09,2.27,1.13,1.34.08,2.65-.41,3.7,1.08.42.59.34,1.6.99,1.78-.46.21-1.17-.05-1.39-.52-.28.6-1.76.77-2.16-.46.36.39.96.17,1.06-.16.12-.4.05-.85-.98-1.03-1.19-.2-2.11.21-3.83-1.46-1.73-1.68-4.69-4.66-6.56-6.49l.19-.19c1.97,1.89,4.99,4.73,6.71,6.32Z" opacity=".2" style="fill:#a3836b;fill-rule:evenodd;stroke-width:0"/><path d="m84.19,252.39l-.19-.19c-1.84,1.88-4.8,4.85-6.48,6.58-1.67,1.72-1.26,2.64-1.46,3.83-.18,1.03-.63,1.1-1.03.98-.33-.1-.55-.7-.16-1.06-1.23.4-1.06,1.88-.46,2.16-.47.21-.73.93-.52,1.39.18-.65,1.19-.57,1.78-.99,1.49-1.04,1-2.36,1.08-3.7.04-.61.27-1.35,1.13-2.27,1.59-1.73,4.42-4.76,6.31-6.73h0Zm-12.1,11.12c-.44,0-.8.36-.8.8s.36.8.8.8.8-.36.8-.8-.36-.8-.8-.8h0Zm11.93,12.91c-1.97-1.89-5-4.72-6.73-6.31-.93-.85-1.66-1.09-2.27-1.13-1.34-.08-2.65.41-3.7-1.08-.42-.59-.34-1.6-.99-1.78.46-.21,1.17.05,1.39.52.28-.6,1.76-.77,2.16.46-.36-.39-.96-.17-1.06.16-.12.4-.05.85.98,1.03,1.19.2,2.11-.21,3.83,1.46,1.73,1.68,4.7,4.64,6.58,6.48l-.19.19h0Zm-24.04-.19l.19.19c1.84-1.88,4.81-4.83,6.49-6.56,1.68-1.72,1.26-2.64,1.46-3.83.18-1.03.63-1.1,1.03-.98.33.1.55.7.16,1.06,1.23-.4,1.06-1.88.46-2.16.47-.21.73-.93.52-1.39-.18.65-1.19.57-1.78.99-1.49,1.04-1,2.36-1.08,3.7-.04.61-.27,1.35-1.13,2.27-1.59,1.73-4.43,4.75-6.32,6.71h0Zm6.91-17.71c.93.85,1.66,1.09,2.27,1.13,1.34.08,2.65-.41,3.7,1.08.42.59.34,1.6.99,1.78-.46.21-1.17-.05-1.39-.52-.28.6-1.76.77-2.16-.46.36.39.96.17,1.06-.16.12-.4.05-.85-.98-1.03-1.19-.2-2.11.21-3.83-1.46-1.73-1.68-4.69-4.66-6.56-6.49l.19-.19c1.97,1.89,4.99,4.73,6.71,6.32Z" opacity=".2" style="fill:#a3836b;fill-rule:evenodd;stroke-width:0"/><path d="m96.11,235.95c-.89-.54-1.9-.27-2.93-.33-.61-.04-1.35-.27-2.27-1.13-1.73-1.59-4.75-4.43-6.71-6.32l-.19.19c1.88,1.84,4.83,4.81,6.56,6.49,1.72,1.68,2.64,1.26,3.83,1.46,1.03.18,1.1.63.98,1.03-.1.33-.7.55-1.06.16.3.94,1.24,1.06,1.79.8v-2.35h0Zm0,3.54c-.44,0-.8.36-.8.8s.36.8.8.8v-1.61h0Zm0,2.79c-.17.08-.3.2-.37.34-.21-.47-.93-.73-1.39-.52.65.18.57,1.19.99,1.78.24.35.5.58.77.75v-2.35h0Zm-5.79,3.21c.85-.93,1.09-1.66,1.13-2.27.08-1.34-.41-2.65,1.08-3.7.59-.42,1.6-.34,1.78-.99.21.46-.05,1.17-.52,1.39.6.28.77,1.76-.46,2.16.39-.36.17-.96-.16-1.06-.4-.12-.85-.05-1.03.98-.2,1.19.21,2.11-1.46,3.83-1.68,1.73-4.66,4.69-6.49,6.56l-.19-.19c1.89-1.97,4.73-4.99,6.32-6.71Z" opacity=".2" style="fill:#a3836b;fill-rule:evenodd;stroke-width:0"/><path d="m12.1,276.42l-.19-.19c-1.84,1.88-4.8,4.85-6.48,6.58-1.67,1.72-1.26,2.64-1.46,3.83-.18,1.03-.63,1.1-1.03.98-.33-.1-.55-.7-.16-1.06-.93.3-1.06,1.24-.8,1.79h2.36c.54-.89.26-1.9.32-2.92.04-.61.27-1.35,1.13-2.27,1.59-1.73,4.42-4.76,6.31-6.73h0Zm-11.3,11.92c0-.44-.36-.8-.8-.8v.8h.8Zm-.8-4.33c.27.16.53.4.77.75.42.59.34,1.6.99,1.78-.46.21-1.17-.05-1.39-.52-.07.14-.2.26-.37.34v-2.35Z" opacity=".2" style="fill:#a3836b;fill-rule:evenodd;stroke-width:0"/><path d="m60.16,276.42l-.19-.19c-1.84,1.88-4.8,4.85-6.48,6.58-1.67,1.72-1.26,2.64-1.46,3.83-.18,1.03-.63,1.1-1.03.98-.33-.1-.55-.7-.16-1.06-.93.3-1.06,1.24-.8,1.79h2.36c.54-.89.26-1.9.32-2.92.04-.61.27-1.35,1.13-2.27,1.59-1.73,4.42-4.76,6.31-6.73h0Zm-11.3,11.92c0-.44-.36-.8-.8-.8s-.8.36-.8.8h1.61Zm-2.8,0c-.08-.17-.2-.3-.34-.36.47-.21.73-.93.52-1.39-.18.65-1.19.57-1.78.99-.34.24-.58.5-.74.76h2.34Zm-3.21-5.79c.93.85,1.66,1.09,2.27,1.13,1.34.08,2.65-.41,3.7,1.08.42.59.34,1.6.99,1.78-.46.21-1.17-.05-1.39-.52-.28.6-1.76.77-2.16-.46.36.39.96.17,1.06-.16.12-.4.05-.85-.98-1.03-1.19-.2-2.11.22-3.83-1.46-1.73-1.68-4.69-4.66-6.56-6.49l.19-.19c1.97,1.89,4.99,4.73,6.71,6.32Z" opacity=".2" style="fill:#a3836b;fill-rule:evenodd;stroke-width:0"/><path d="m96.11,284c-.89-.54-1.9-.27-2.93-.33-.61-.04-1.35-.27-2.27-1.13-1.73-1.59-4.75-4.43-6.71-6.32l-.19.19c1.88,1.84,4.83,4.81,6.56,6.49,1.72,1.68,2.64,1.26,3.83,1.46,1.03.18,1.1.63.98,1.03-.1.33-.7.55-1.06.16.3.94,1.24,1.06,1.79.8v-2.35h0Zm0,3.54c-.44,0-.8.36-.8.8h.8v-.8h0Zm-4.34.8c.16-.27.4-.52.74-.76.59-.42,1.6-.34,1.78-.99.21.46-.05,1.17-.52,1.39.14.06.26.19.34.36h-2.34Z" opacity=".2" style="fill:#a3836b;fill-rule:evenodd;stroke-width:0"/><path d="m100.46,0h-2.36c.08.17.2.31.34.37-.47.21-.73.93-.52,1.39.18-.65,1.19-.57,1.78-.99.35-.24.59-.5.75-.78h0Zm-4.34,0v.81c.44,0,.8-.36.8-.8h0s-.8,0-.8,0h0Zm0,2c.55-.26,1.49-.14,1.79.8-.36-.39-.96-.17-1.06.16-.12.4-.05.85.98,1.03,1.19.2,2.11-.21,3.83,1.46,1.73,1.68,4.7,4.64,6.58,6.48l-.19.19c-1.97-1.89-5-4.72-6.73-6.31-.93-.85-1.66-1.09-2.27-1.13-1.03-.06-2.04.21-2.93-.33V2Z" opacity=".2" style="fill:#a3836b;fill-rule:evenodd;stroke-width:0"/><path d="m132.24,12.11l-.19-.19c-1.84,1.88-4.8,4.85-6.48,6.58-1.67,1.72-1.26,2.64-1.46,3.83-.18,1.03-.63,1.1-1.03.98-.33-.1-.55-.7-.16-1.06-1.23.4-1.06,1.88-.46,2.16-.47.21-.73.93-.52,1.39.18-.65,1.19-.57,1.78-.99,1.49-1.04,1-2.36,1.08-3.7.04-.61.27-1.35,1.13-2.27,1.59-1.73,4.42-4.76,6.31-6.73h0Zm-12.1,11.12c-.44,0-.8.36-.8.8s.36.8.8.8.8-.36.8-.8-.36-.8-.8-.8h0Zm11.93,12.91c-1.97-1.89-5-4.72-6.73-6.31-.93-.85-1.66-1.09-2.27-1.13-1.34-.08-2.65.41-3.7-1.08-.42-.59-.34-1.6-.99-1.78.46-.21,1.17.05,1.39.52.28-.6,1.76-.77,2.16.46-.36-.39-.96-.17-1.06.16-.12.4-.05.85.98,1.03,1.19.2,2.11-.21,3.83,1.46,1.73,1.68,4.7,4.64,6.58,6.48l-.19.19h0Zm-24.04-.19l.19.19c1.84-1.88,4.81-4.83,6.49-6.56,1.68-1.72,1.26-2.64,1.46-3.83.18-1.03.63-1.1,1.03-.98.33.1.55.7.16,1.06,1.23-.4,1.06-1.88.46-2.16.47-.21.73-.93.52-1.39-.18.65-1.19.57-1.78.99-1.49,1.04-1,2.36-1.08,3.7-.04.61-.27,1.35-1.13,2.27-1.59,1.73-4.43,4.75-6.32,6.71h0Zm6.91-17.71c.93.85,1.66,1.09,2.27,1.13,1.34.08,2.65-.41,3.7,1.08.42.59.34,1.6.99,1.78-.46.21-1.17-.05-1.39-.52-.28.6-1.76.77-2.16-.46.36.39.96.17,1.06-.16.12-.4.05-.85-.98-1.03-1.19-.2-2.11.21-3.83-1.46-1.73-1.68-4.69-4.66-6.56-6.49l.19-.19c1.97,1.89,4.99,4.73,6.71,6.32Z" opacity=".2" style="fill:#a3836b;fill-rule:evenodd;stroke-width:0"/><path d="m148.52,0h-2.36c.08.17.2.31.34.37-.47.21-.73.93-.52,1.39.18-.65,1.19-.57,1.78-.99.35-.24.59-.5.75-.78h0Zm-8.68,0c-.55.89-.27,1.91-.33,2.93-.04.61-.27,1.35-1.13,2.27-1.59,1.73-4.43,4.75-6.32,6.71l.19.19c1.84-1.88,4.81-4.83,6.49-6.56,1.68-1.72,1.26-2.64,1.46-3.83.18-1.03.63-1.1,1.03-.98.33.1.55.7.16,1.06.94-.3,1.06-1.25.79-1.8h-2.34Zm3.53,0h0c0,.45.36.81.8.81s.8-.36.8-.8h0s-1.61,0-1.61,0h0Zm6,5.8c-.93-.85-1.66-1.09-2.27-1.13-1.34-.08-2.65.41-3.7-1.08-.42-.59-.34-1.6-.99-1.78.46-.21,1.17.05,1.39.52.28-.6,1.76-.77,2.16.46-.36-.39-.96-.17-1.06.16-.12.4-.05.85.98,1.03,1.19.2,2.11-.21,3.83,1.46,1.73,1.68,4.7,4.64,6.58,6.48l-.19.19c-1.97-1.89-5-4.72-6.73-6.31Z" opacity=".2" style="fill:#a3836b;fill-rule:evenodd;stroke-width:0"/><path d="m180.3,12.11l-.19-.19c-1.84,1.88-4.8,4.85-6.48,6.58-1.67,1.72-1.26,2.64-1.46,3.83-.18,1.03-.63,1.1-1.03.98-.33-.1-.55-.7-.16-1.06-1.23.4-1.06,1.88-.46,2.16-.47.21-.73.93-.52,1.39.18-.65,1.19-.57,1.78-.99,1.49-1.04,1-2.36,1.08-3.7.04-.61.27-1.35,1.13-2.27,1.59-1.73,4.42-4.76,6.31-6.73h0Zm-12.1,11.12c-.44,0-.8.36-.8.8s.36.8.8.8.8-.36.8-.8-.36-.8-.8-.8h0Zm11.93,12.91c-1.97-1.89-5-4.72-6.73-6.31-.93-.85-1.66-1.09-2.27-1.13-1.34-.08-2.65.41-3.7-1.08-.42-.59-.34-1.6-.99-1.78.46-.21,1.17.05,1.39.52.28-.6,1.76-.77,2.16.46-.36-.39-.96-.17-1.06.16-.12.4-.05.85.98,1.03,1.19.2,2.11-.21,3.83,1.46,1.73,1.68,4.7,4.64,6.58,6.48l-.19.19h0Zm-24.04-.19l.19.19c1.84-1.88,4.81-4.83,6.49-6.56,1.68-1.72,1.26-2.64,1.46-3.83.18-1.03.63-1.1,1.03-.98.33.1.55.7.16,1.06,1.23-.4,1.06-1.88.46-2.16.47-.21.73-.93.52-1.39-.18.65-1.19.57-1.78.99-1.49,1.04-1,2.36-1.08,3.7-.04.61-.27,1.35-1.13,2.27-1.59,1.73-4.43,4.75-6.32,6.71h0Zm6.91-17.71c.93.85,1.66,1.09,2.27,1.13,1.34.08,2.65-.41,3.7,1.08.42.59.34,1.6.99,1.78-.46.21-1.17-.05-1.39-.52-.28.6-1.76.77-2.16-.46.36.39.96.17,1.06-.16.12-.4.05-.85-.98-1.03-1.19-.2-2.11.21-3.83-1.46-1.73-1.68-4.69-4.66-6.56-6.49l.19-.19c1.97,1.89,4.99,4.73,6.71,6.32Z" opacity=".2" style="fill:#a3836b;fill-rule:evenodd;stroke-width:0"/><path d="m187.89,0c-.55.89-.27,1.91-.33,2.93-.04.61-.27,1.35-1.13,2.27-1.59,1.73-4.43,4.75-6.32,6.71l.19.19c1.84-1.88,4.81-4.83,6.49-6.56,1.68-1.72,1.26-2.64,1.46-3.83.18-1.03.63-1.1,1.03-.98.33.1.55.7.16,1.06.94-.3,1.06-1.25.79-1.8h-2.34Zm3.53,0h0c0,.45.36.81.8.81v-.81h-.8Zm.8,4.35c-.27-.16-.53-.4-.77-.75-.42-.59-.34-1.6-.99-1.78.46-.21,1.17.05,1.39.52.07-.14.2-.26.37-.34v2.35Z" opacity=".2" style="fill:#a3836b;fill-rule:evenodd;stroke-width:0"/><path d="m108.22,36.14l-.19-.19c-1.84,1.88-4.8,4.85-6.48,6.58-1.67,1.72-1.26,2.64-1.46,3.83-.18,1.03-.63,1.1-1.03.98-.33-.1-.55-.7-.16-1.06-1.23.4-1.06,1.88-.46,2.16-.47.21-.73.93-.52,1.39.18-.65,1.19-.57,1.78-.99,1.49-1.04,1-2.36,1.08-3.7.04-.61.27-1.35,1.13-2.27,1.59-1.73,4.42-4.76,6.31-6.73h0Zm-12.1,16.27v-2.35c.55-.26,1.49-.14,1.79.8-.36-.39-.96-.17-1.06.16-.12.4-.05.85.98,1.03,1.19.2,2.11-.21,3.83,1.46,1.73,1.68,4.7,4.64,6.58,6.48l-.19.19c-1.97-1.89-5-4.72-6.73-6.31-.93-.85-1.66-1.09-2.27-1.13-1.03-.06-2.04.21-2.93-.33h0Zm0-3.54c.44,0,.8-.36.8-.8s-.36-.8-.8-.8v1.61h0Zm0-5.14c.27.16.53.4.77.75.42.59.34,1.6.99,1.78-.46.21-1.17-.05-1.39-.52-.07.14-.2.26-.37.34v-2.35Z" opacity=".2" style="fill:#a3836b;fill-rule:evenodd;stroke-width:0"/><path d="m132.24,60.16l-.19-.19c-1.84,1.88-4.8,4.85-6.48,6.58-1.67,1.72-1.26,2.64-1.46,3.83-.18,1.03-.63,1.1-1.03.98-.33-.1-.55-.7-.16-1.06-1.23.4-1.06,1.88-.46,2.16-.47.21-.73.93-.52,1.39.18-.65,1.19-.57,1.78-.99,1.49-1.04,1-2.36,1.08-3.7.04-.61.27-1.35,1.13-2.27,1.59-1.73,4.42-4.76,6.31-6.73h0Zm-12.1,11.12c-.44,0-.8.36-.8.8s.36.8.8.8.8-.36.8-.8-.36-.8-.8-.8h0Zm11.93,12.91c-1.97-1.89-5-4.72-6.73-6.31-.93-.85-1.66-1.09-2.27-1.13-1.34-.08-2.65.41-3.7-1.08-.42-.59-.34-1.6-.99-1.78.46-.21,1.17.05,1.39.52.28-.6,1.76-.77,2.16.46-.36-.39-.96-.17-1.06.16-.12.4-.05.85.98,1.03,1.19.2,2.11-.21,3.83,1.46,1.73,1.68,4.7,4.64,6.58,6.48l-.19.19h0Zm-24.04-.19l.19.19c1.84-1.88,4.81-4.83,6.49-6.56,1.68-1.72,1.26-2.64,1.46-3.83.18-1.03.63-1.1,1.03-.98.33.1.55.7.16,1.06,1.23-.4,1.06-1.88.46-2.16.47-.21.73-.93.52-1.39-.18.65-1.19.57-1.78.99-1.49,1.04-1,2.36-1.08,3.7-.04.61-.27,1.35-1.13,2.27-1.59,1.73-4.43,4.75-6.32,6.71h0Zm6.91-17.71c.93.85,1.66,1.09,2.27,1.13,1.34.08,2.65-.41,3.7,1.08.42.59.34,1.6.99,1.78-.46.21-1.17-.05-1.39-.52-.28.6-1.76.77-2.16-.46.36.39.96.17,1.06-.16.12-.4.05-.85-.98-1.03-1.19-.2-2.11.21-3.83-1.46-1.73-1.68-4.69-4.66-6.56-6.49l.19-.19c1.97,1.89,4.99,4.73,6.71,6.32Z" opacity=".2" style="fill:#a3836b;fill-rule:evenodd;stroke-width:0"/><path d="m156.27,36.14l-.19-.19c-1.84,1.88-4.8,4.85-6.48,6.58-1.67,1.72-1.26,2.64-1.46,3.83-.18,1.03-.63,1.1-1.03.98-.33-.1-.55-.7-.16-1.06-1.23.4-1.06,1.88-.46,2.16-.47.21-.73.93-.52,1.39.18-.65,1.19-.57,1.78-.99,1.49-1.04,1-2.36,1.08-3.7.04-.61.27-1.35,1.13-2.27,1.59-1.73,4.42-4.76,6.31-6.73h0Zm-12.1,11.12c-.44,0-.8.36-.8.8s.36.8.8.8.8-.36.8-.8-.36-.8-.8-.8h0Zm11.93,12.91c-1.97-1.89-5-4.72-6.73-6.31-.93-.85-1.66-1.09-2.27-1.13-1.34-.08-2.65.41-3.7-1.08-.42-.59-.34-1.6-.99-1.78.46-.21,1.17.05,1.39.52.28-.6,1.76-.77,2.16.46-.36-.39-.96-.17-1.06.16-.12.4-.05.85.98,1.03,1.19.2,2.11-.21,3.83,1.46,1.73,1.68,4.7,4.64,6.58,6.48l-.19.19h0Zm-24.04-.19l.19.19c1.84-1.88,4.81-4.83,6.49-6.56,1.68-1.72,1.26-2.64,1.46-3.83.18-1.03.63-1.1,1.03-.98.33.1.55.7.16,1.06,1.23-.4,1.06-1.88.46-2.16.47-.21.73-.93.52-1.39-.18.65-1.19.57-1.78.99-1.49,1.04-1,2.36-1.08,3.7-.04.61-.27,1.35-1.13,2.27-1.59,1.73-4.43,4.75-6.32,6.71h0Zm6.91-17.71c.93.85,1.66,1.09,2.27,1.13,1.34.08,2.65-.41,3.7,1.08.42.59.34,1.6.99,1.78-.46.21-1.17-.05-1.39-.52-.28.6-1.76.77-2.16-.46.36.39.96.17,1.06-.16.12-.4.05-.85-.98-1.03-1.19-.2-2.11.21-3.83-1.46-1.73-1.68-4.69-4.66-6.56-6.49l.19-.19c1.97,1.89,4.99,4.73,6.71,6.32Z" opacity=".2" style="fill:#a3836b;fill-rule:evenodd;stroke-width:0"/><path d="m180.3,60.16l-.19-.19c-1.84,1.88-4.8,4.85-6.48,6.58-1.67,1.72-1.26,2.64-1.46,3.83-.18,1.03-.63,1.1-1.03.98-.33-.1-.55-.7-.16-1.06-1.23.4-1.06,1.88-.46,2.16-.47.21-.73.93-.52,1.39.18-.65,1.19-.57,1.78-.99,1.49-1.04,1-2.36,1.08-3.7.04-.61.27-1.35,1.13-2.27,1.59-1.73,4.42-4.76,6.31-6.73h0Zm-12.1,11.12c-.44,0-.8.36-.8.8s.36.8.8.8.8-.36.8-.8-.36-.8-.8-.8h0Zm11.93,12.91c-1.97-1.89-5-4.72-6.73-6.31-.93-.85-1.66-1.09-2.27-1.13-1.34-.08-2.65.41-3.7-1.08-.42-.59-.34-1.6-.99-1.78.46-.21,1.17.05,1.39.52.28-.6,1.76-.77,2.16.46-.36-.39-.96-.17-1.06.16-.12.4-.05.85.98,1.03,1.19.2,2.11-.21,3.83,1.46,1.73,1.68,4.7,4.64,6.58,6.48l-.19.19h0Zm-24.04-.19l.19.19c1.84-1.88,4.81-4.83,6.49-6.56,1.68-1.72,1.26-2.64,1.46-3.83.18-1.03.63-1.1,1.03-.98.33.1.55.7.16,1.06,1.23-.4,1.06-1.88.46-2.16.47-.21.73-.93.52-1.39-.18.65-1.19.57-1.78.99-1.49,1.04-1,2.36-1.08,3.7-.04.61-.27,1.35-1.13,2.27-1.59,1.73-4.43,4.75-6.32,6.71h0Zm6.91-17.71c.93.85,1.66,1.09,2.27,1.13,1.34.08,2.65-.41,3.7,1.08.42.59.34,1.6.99,1.78-.46.21-1.17-.05-1.39-.52-.28.6-1.76.77-2.16-.46.36.39.96.17,1.06-.16.12-.4.05-.85-.98-1.03-1.19-.2-2.11.21-3.83-1.46-1.73-1.68-4.69-4.66-6.56-6.49l.19-.19c1.97,1.89,4.99,4.73,6.71,6.32Z" opacity=".2" style="fill:#a3836b;fill-rule:evenodd;stroke-width:0"/><path d="m192.23,43.72c-.89-.54-1.9-.27-2.93-.33-.61-.04-1.35-.27-2.27-1.13-1.73-1.59-4.75-4.43-6.71-6.32l-.19.19c1.88,1.84,4.83,4.81,6.56,6.49,1.72,1.68,2.64,1.26,3.83,1.46,1.03.18,1.1.63.98,1.03-.1.33-.7.55-1.06.16.3.94,1.24,1.06,1.79.8v-2.35h0Zm0,3.54c-.44,0-.8.36-.8.8s.36.8.8.8v-1.61h0Zm0,2.79c-.17.08-.3.2-.37.34-.21-.47-.93-.73-1.39-.52.65.18.57,1.19.99,1.78.24.35.5.58.77.75v-2.35h0Zm-5.79,3.21c.85-.93,1.09-1.66,1.13-2.27.08-1.34-.41-2.65,1.08-3.7.59-.42,1.6-.34,1.78-.99.21.46-.05,1.17-.52,1.39.6.28.77,1.76-.46,2.16.39-.36.17-.96-.16-1.06-.4-.12-.85-.05-1.03.98-.2,1.19.21,2.11-1.46,3.83-1.68,1.73-4.66,4.69-6.49,6.56l-.19-.19c1.89-1.97,4.73-4.99,6.32-6.71Z" opacity=".2" style="fill:#a3836b;fill-rule:evenodd;stroke-width:0"/><path d="m108.22,84.19l-.19-.19c-1.84,1.88-4.8,4.85-6.48,6.58-1.67,1.72-1.26,2.64-1.46,3.83-.18,1.03-.63,1.1-1.03.98-.33-.1-.55-.7-.16-1.06-1.23.4-1.06,1.88-.46,2.16-.47.21-.73.93-.52,1.39.18-.65,1.19-.57,1.78-.99,1.49-1.04,1-2.36,1.08-3.7.04-.61.27-1.35,1.13-2.27,1.59-1.73,4.42-4.76,6.31-6.73h0Zm-12.1,16.27v-2.35c.55-.26,1.49-.14,1.79.8-.36-.39-.96-.17-1.06.16-.12.4-.05.85.98,1.03,1.19.2,2.11-.21,3.83,1.46,1.73,1.68,4.7,4.64,6.58,6.48l-.19.19c-1.97-1.89-5-4.72-6.73-6.31-.93-.85-1.66-1.09-2.27-1.13-1.03-.06-2.04.21-2.93-.33h0Zm0-3.54c.44,0,.8-.36.8-.8s-.36-.8-.8-.8v1.61h0Zm0-5.14c.27.16.53.4.77.75.42.59.34,1.6.99,1.78-.46.21-1.17-.05-1.39-.52-.07.14-.2.26-.37.34v-2.35Z" opacity=".2" style="fill:#a3836b;fill-rule:evenodd;stroke-width:0"/><path d="m132.24,108.22l-.19-.19c-1.84,1.88-4.8,4.85-6.48,6.58-1.67,1.72-1.26,2.64-1.46,3.83-.18,1.03-.63,1.1-1.03.98-.33-.1-.55-.7-.16-1.06-1.23.4-1.06,1.88-.46,2.16-.47.21-.73.93-.52,1.39.18-.65,1.19-.57,1.78-.99,1.49-1.04,1-2.36,1.08-3.7.04-.61.27-1.35,1.13-2.27,1.59-1.73,4.42-4.76,6.31-6.73h0Zm-12.1,11.12c-.44,0-.8.36-.8.8s.36.8.8.8.8-.36.8-.8-.36-.8-.8-.8h0Zm11.93,12.91c-1.97-1.89-5-4.72-6.73-6.31-.93-.85-1.66-1.09-2.27-1.13-1.34-.08-2.65.41-3.7-1.08-.42-.59-.34-1.6-.99-1.78.46-.21,1.17.05,1.39.52.28-.6,1.76-.77,2.16.46-.36-.39-.96-.17-1.06.16-.12.4-.05.85.98,1.03,1.19.2,2.11-.21,3.83,1.46,1.73,1.68,4.7,4.64,6.58,6.48l-.19.19h0Zm-24.04-.19l.19.19c1.84-1.88,4.81-4.83,6.49-6.56,1.68-1.72,1.26-2.64,1.46-3.83.18-1.03.63-1.1,1.03-.98.33.1.55.7.16,1.06,1.23-.4,1.06-1.88.46-2.16.47-.21.73-.93.52-1.39-.18.65-1.19.57-1.78.99-1.49,1.04-1,2.36-1.08,3.7-.04.61-.27,1.35-1.13,2.27-1.59,1.73-4.43,4.75-6.32,6.71h0Zm6.91-17.71c.93.85,1.66,1.09,2.27,1.13,1.34.08,2.65-.41,3.7,1.08.42.59.34,1.6.99,1.78-.46.21-1.17-.05-1.39-.52-.28.6-1.76.77-2.16-.46.36.39.96.17,1.06-.16.12-.4.05-.85-.98-1.03-1.19-.2-2.11.21-3.83-1.46-1.73-1.68-4.69-4.66-6.56-6.49l.19-.19c1.97,1.89,4.99,4.73,6.71,6.32Z" opacity=".2" style="fill:#a3836b;fill-rule:evenodd;stroke-width:0"/><path d="m156.27,84.19l-.19-.19c-1.84,1.88-4.8,4.85-6.48,6.58-1.67,1.72-1.26,2.64-1.46,3.83-.18,1.03-.63,1.1-1.03.98-.33-.1-.55-.7-.16-1.06-1.23.4-1.06,1.88-.46,2.16-.47.21-.73.93-.52,1.39.18-.65,1.19-.57,1.78-.99,1.49-1.04,1-2.36,1.08-3.7.04-.61.27-1.35,1.13-2.27,1.59-1.73,4.42-4.76,6.31-6.73h0Zm-12.1,11.12c-.44,0-.8.36-.8.8s.36.8.8.8.8-.36.8-.8-.36-.8-.8-.8h0Zm11.93,12.91c-1.97-1.89-5-4.72-6.73-6.31-.93-.85-1.66-1.09-2.27-1.13-1.34-.08-2.65.41-3.7-1.08-.42-.59-.34-1.6-.99-1.78.46-.21,1.17.05,1.39.52.28-.6,1.76-.77,2.16.46-.36-.39-.96-.17-1.06.16-.12.4-.05.85.98,1.03,1.19.2,2.11-.21,3.83,1.46,1.73,1.68,4.7,4.64,6.58,6.48l-.19.19h0Zm-24.04-.19l.19.19c1.84-1.88,4.81-4.83,6.49-6.56,1.68-1.72,1.26-2.64,1.46-3.83.18-1.03.63-1.1,1.03-.98.33.1.55.7.16,1.06,1.23-.4,1.06-1.88.46-2.16.47-.21.73-.93.52-1.39-.18.65-1.19.57-1.78.99-1.49,1.04-1,2.36-1.08,3.7-.04.61-.27,1.35-1.13,2.27-1.59,1.73-4.43,4.75-6.32,6.71h0Zm6.91-17.71c.93.85,1.66,1.09,2.27,1.13,1.34.08,2.65-.41,3.7,1.08.42.59.34,1.6.99,1.78-.46.21-1.17-.05-1.39-.52-.28.6-1.76.77-2.16-.46.36.39.96.17,1.06-.16.12-.4.05-.85-.98-1.03-1.19-.2-2.11.21-3.83-1.46-1.73-1.68-4.69-4.66-6.56-6.49l.19-.19c1.97,1.89,4.99,4.73,6.71,6.32Z" opacity=".2" style="fill:#a3836b;fill-rule:evenodd;stroke-width:0"/><path d="m180.3,108.22l-.19-.19c-1.84,1.88-4.8,4.85-6.48,6.58-1.67,1.72-1.26,2.64-1.46,3.83-.18,1.03-.63,1.1-1.03.98-.33-.1-.55-.7-.16-1.06-1.23.4-1.06,1.88-.46,2.16-.47.21-.73.93-.52,1.39.18-.65,1.19-.57,1.78-.99,1.49-1.04,1-2.36,1.08-3.7.04-.61.27-1.35,1.13-2.27,1.59-1.73,4.42-4.76,6.31-6.73h0Zm-12.1,11.12c-.44,0-.8.36-.8.8s.36.8.8.8.8-.36.8-.8-.36-.8-.8-.8h0Zm11.93,12.91c-1.97-1.89-5-4.72-6.73-6.31-.93-.85-1.66-1.09-2.27-1.13-1.34-.08-2.65.41-3.7-1.08-.42-.59-.34-1.6-.99-1.78.46-.21,1.17.05,1.39.52.28-.6,1.76-.77,2.16.46-.36-.39-.96-.17-1.06.16-.12.4-.05.85.98,1.03,1.19.2,2.11-.21,3.83,1.46,1.73,1.68,4.7,4.64,6.58,6.48l-.19.19h0Zm-24.04-.19l.19.19c1.84-1.88,4.81-4.83,6.49-6.56,1.68-1.72,1.26-2.64,1.46-3.83.18-1.03.63-1.1,1.03-.98.33.1.55.7.16,1.06,1.23-.4,1.06-1.88.46-2.16.47-.21.73-.93.52-1.39-.18.65-1.19.57-1.78.99-1.49,1.04-1,2.36-1.08,3.7-.04.61-.27,1.35-1.13,2.27-1.59,1.73-4.43,4.75-6.32,6.71h0Zm6.91-17.71c.93.85,1.66,1.09,2.27,1.13,1.34.08,2.65-.41,3.7,1.08.42.59.34,1.6.99,1.78-.46.21-1.17-.05-1.39-.52-.28.6-1.76.77-2.16-.46.36.39.96.17,1.06-.16.12-.4.05-.85-.98-1.03-1.19-.2-2.11.21-3.83-1.46-1.73-1.68-4.69-4.66-6.56-6.49l.19-.19c1.97,1.89,4.99,4.73,6.71,6.32Z" opacity=".2" style="fill:#a3836b;fill-rule:evenodd;stroke-width:0"/><path d="m192.23,91.78c-.89-.54-1.9-.27-2.93-.33-.61-.04-1.35-.27-2.27-1.13-1.73-1.59-4.75-4.43-6.71-6.32l-.19.19c1.88,1.84,4.83,4.81,6.56,6.49,1.72,1.68,2.64,1.26,3.83,1.46,1.03.18,1.1.63.98,1.03-.1.33-.7.55-1.06.16.3.94,1.24,1.06,1.79.8v-2.35h0Zm0,3.54c-.44,0-.8.36-.8.8s.36.8.8.8v-1.61h0Zm0,2.79c-.17.08-.3.2-.37.34-.21-.47-.93-.73-1.39-.52.65.18.57,1.19.99,1.78.24.35.5.58.77.75v-2.35h0Zm-5.79,3.21c.85-.93,1.09-1.66,1.13-2.27.08-1.34-.41-2.65,1.08-3.7.59-.42,1.6-.34,1.78-.99.21.46-.05,1.17-.52,1.39.6.28.77,1.76-.46,2.16.39-.36.17-.96-.16-1.06-.4-.12-.85-.05-1.03.98-.2,1.19.21,2.11-1.46,3.83-1.68,1.73-4.66,4.69-6.49,6.56l-.19-.19c1.89-1.97,4.73-4.99,6.32-6.71Z" opacity=".2" style="fill:#a3836b;fill-rule:evenodd;stroke-width:0"/><path d="m108.22,132.25l-.19-.19c-1.84,1.88-4.8,4.85-6.48,6.58-1.67,1.72-1.26,2.64-1.46,3.83-.18,1.03-.63,1.1-1.03.98-.33-.1-.55-.7-.16-1.06-1.23.4-1.06,1.88-.46,2.16-.47.21-.73.93-.52,1.39.18-.65,1.19-.57,1.78-.99,1.49-1.04,1-2.36,1.08-3.7.04-.61.27-1.35,1.13-2.27,1.59-1.73,4.42-4.76,6.31-6.73h0Zm-12.1,16.27v-2.35c.55-.26,1.49-.14,1.79.8-.36-.39-.96-.17-1.06.16-.12.4-.05.85.98,1.03,1.19.2,2.11-.21,3.83,1.46,1.73,1.68,4.7,4.64,6.58,6.48l-.19.19c-1.97-1.89-5-4.72-6.73-6.31-.93-.85-1.66-1.09-2.27-1.13-1.03-.06-2.04.21-2.93-.33h0Zm0-3.54c.44,0,.8-.36.8-.8s-.36-.8-.8-.8v1.61h0Zm0-5.14c.27.16.53.4.77.75.42.59.34,1.6.99,1.78-.46.21-1.17-.05-1.39-.52-.07.14-.2.26-.37.34v-2.35Z" opacity=".2" style="fill:#a3836b;fill-rule:evenodd;stroke-width:0"/><path d="m132.24,156.28l-.19-.19c-1.84,1.88-4.8,4.85-6.48,6.58-1.67,1.72-1.26,2.64-1.46,3.83-.18,1.03-.63,1.1-1.03.98-.33-.1-.55-.7-.16-1.06-1.23.4-1.06,1.88-.46,2.16-.47.21-.73.93-.52,1.39.18-.65,1.19-.57,1.78-.99,1.49-1.04,1-2.36,1.08-3.7.04-.61.27-1.35,1.13-2.27,1.59-1.73,4.42-4.76,6.31-6.73h0Zm-12.1,11.12c-.44,0-.8.36-.8.8s.36.8.8.8.8-.36.8-.8-.36-.8-.8-.8h0Zm11.93,12.91c-1.97-1.89-5-4.72-6.73-6.31-.93-.85-1.66-1.09-2.27-1.13-1.34-.08-2.65.41-3.7-1.08-.42-.59-.34-1.6-.99-1.78.46-.21,1.17.05,1.39.52.28-.6,1.76-.77,2.16.46-.36-.39-.96-.17-1.06.16-.12.4-.05.85.98,1.03,1.19.2,2.11-.21,3.83,1.46,1.73,1.68,4.7,4.64,6.58,6.48l-.19.19h0Zm-24.04-.19l.19.19c1.84-1.88,4.81-4.83,6.49-6.56,1.68-1.72,1.26-2.64,1.46-3.83.18-1.03.63-1.1,1.03-.98.33.1.55.7.16,1.06,1.23-.4,1.06-1.88.46-2.16.47-.21.73-.93.52-1.39-.18.65-1.19.57-1.78.99-1.49,1.04-1,2.36-1.08,3.7-.04.61-.27,1.35-1.13,2.27-1.59,1.73-4.43,4.75-6.32,6.71h0Zm6.91-17.71c.93.85,1.66,1.09,2.27,1.13,1.34.08,2.65-.41,3.7,1.08.42.59.34,1.6.99,1.78-.46.21-1.17-.05-1.39-.52-.28.6-1.76.77-2.16-.46.36.39.96.17,1.06-.16.12-.4.05-.85-.98-1.03-1.19-.2-2.11.21-3.83-1.46-1.73-1.68-4.69-4.66-6.56-6.49l.19-.19c1.97,1.89,4.99,4.73,6.71,6.32Z" opacity=".2" style="fill:#a3836b;fill-rule:evenodd;stroke-width:0"/><path d="m156.27,132.25l-.19-.19c-1.84,1.88-4.8,4.85-6.48,6.58-1.67,1.72-1.26,2.64-1.46,3.83-.18,1.03-.63,1.1-1.03.98-.33-.1-.55-.7-.16-1.06-1.23.4-1.06,1.88-.46,2.16-.47.21-.73.93-.52,1.39.18-.65,1.19-.57,1.78-.99,1.49-1.04,1-2.36,1.08-3.7.04-.61.27-1.35,1.13-2.27,1.59-1.73,4.42-4.76,6.31-6.73h0Zm-12.1,11.12c-.44,0-.8.36-.8.8s.36.8.8.8.8-.36.8-.8-.36-.8-.8-.8h0Zm11.93,12.91c-1.97-1.89-5-4.72-6.73-6.31-.93-.85-1.66-1.09-2.27-1.13-1.34-.08-2.65.41-3.7-1.08-.42-.59-.34-1.6-.99-1.78.46-.21,1.17.05,1.39.52.28-.6,1.76-.77,2.16.46-.36-.39-.96-.17-1.06.16-.12.4-.05.85.98,1.03,1.19.2,2.11-.21,3.83,1.46,1.73,1.68,4.7,4.64,6.58,6.48l-.19.19h0Zm-24.04-.19l.19.19c1.84-1.88,4.81-4.83,6.49-6.56,1.68-1.72,1.26-2.64,1.46-3.83.18-1.03.63-1.1,1.03-.98.33.1.55.7.16,1.06,1.23-.4,1.06-1.88.46-2.16.47-.21.73-.93.52-1.39-.18.65-1.19.57-1.78.99-1.49,1.04-1,2.36-1.08,3.7-.04.61-.27,1.35-1.13,2.27-1.59,1.73-4.43,4.75-6.32,6.71h0Zm6.91-17.71c.93.85,1.66,1.09,2.27,1.13,1.34.08,2.65-.41,3.7,1.08.42.59.34,1.6.99,1.78-.46.21-1.17-.05-1.39-.52-.28.6-1.76.77-2.16-.46.36.39.96.17,1.06-.16.12-.4.05-.85-.98-1.03-1.19-.2-2.11.21-3.83-1.46-1.73-1.68-4.69-4.66-6.56-6.49l.19-.19c1.97,1.89,4.99,4.73,6.71,6.32Z" opacity=".2" style="fill:#a3836b;fill-rule:evenodd;stroke-width:0"/><path d="m180.3,156.28l-.19-.19c-1.84,1.88-4.8,4.85-6.48,6.58-1.67,1.72-1.26,2.64-1.46,3.83-.18,1.03-.63,1.1-1.03.98-.33-.1-.55-.7-.16-1.06-1.23.4-1.06,1.88-.46,2.16-.47.21-.73.93-.52,1.39.18-.65,1.19-.57,1.78-.99,1.49-1.04,1-2.36,1.08-3.7.04-.61.27-1.35,1.13-2.27,1.59-1.73,4.42-4.76,6.31-6.73h0Zm-12.1,11.12c-.44,0-.8.36-.8.8s.36.8.8.8.8-.36.8-.8-.36-.8-.8-.8h0Zm11.93,12.91c-1.97-1.89-5-4.72-6.73-6.31-.93-.85-1.66-1.09-2.27-1.13-1.34-.08-2.65.41-3.7-1.08-.42-.59-.34-1.6-.99-1.78.46-.21,1.17.05,1.39.52.28-.6,1.76-.77,2.16.46-.36-.39-.96-.17-1.06.16-.12.4-.05.85.98,1.03,1.19.2,2.11-.21,3.83,1.46,1.73,1.68,4.7,4.64,6.58,6.48l-.19.19h0Zm-24.04-.19l.19.19c1.84-1.88,4.81-4.83,6.49-6.56,1.68-1.72,1.26-2.64,1.46-3.83.18-1.03.63-1.1,1.03-.98.33.1.55.7.16,1.06,1.23-.4,1.06-1.88.46-2.16.47-.21.73-.93.52-1.39-.18.65-1.19.57-1.78.99-1.49,1.04-1,2.36-1.08,3.7-.04.61-.27,1.35-1.13,2.27-1.59,1.73-4.43,4.75-6.32,6.71h0Zm6.91-17.71c.93.85,1.66,1.09,2.27,1.13,1.34.08,2.65-.41,3.7,1.08.42.59.34,1.6.99,1.78-.46.21-1.17-.05-1.39-.52-.28.6-1.76.77-2.16-.46.36.39.96.17,1.06-.16.12-.4.05-.85-.98-1.03-1.19-.2-2.11.21-3.83-1.46-1.73-1.68-4.69-4.66-6.56-6.49l.19-.19c1.97,1.89,4.99,4.73,6.71,6.32Z" opacity=".2" style="fill:#a3836b;fill-rule:evenodd;stroke-width:0"/><path d="m192.23,139.83c-.89-.54-1.9-.27-2.93-.33-.61-.04-1.35-.27-2.27-1.13-1.73-1.59-4.75-4.43-6.71-6.32l-.19.19c1.88,1.84,4.83,4.81,6.56,6.49,1.72,1.68,2.64,1.26,3.83,1.46,1.03.18,1.1.63.98,1.03-.1.33-.7.55-1.06.16.3.94,1.24,1.06,1.79.8v-2.35h0Zm0,3.54c-.44,0-.8.36-.8.8s.36.8.8.8v-1.61h0Zm0,2.79c-.17.08-.3.2-.37.34-.21-.47-.93-.73-1.39-.52.65.18.57,1.19.99,1.78.24.35.5.58.77.75v-2.35h0Zm-5.79,3.21c.85-.93,1.09-1.66,1.13-2.27.08-1.34-.41-2.65,1.08-3.7.59-.42,1.6-.34,1.78-.99.21.46-.05,1.17-.52,1.39.6.28.77,1.76-.46,2.16.39-.36.17-.96-.16-1.06-.4-.12-.85-.05-1.03.98-.2,1.19.21,2.11-1.46,3.83-1.68,1.73-4.66,4.69-6.49,6.56l-.19-.19c1.89-1.97,4.73-4.99,6.32-6.71Z" opacity=".2" style="fill:#a3836b;fill-rule:evenodd;stroke-width:0"/><path d="m108.22,180.31l-.19-.19c-1.84,1.88-4.8,4.85-6.48,6.58-1.67,1.72-1.26,2.64-1.46,3.83-.18,1.03-.63,1.1-1.03.98-.33-.1-.55-.7-.16-1.06-1.23.4-1.06,1.88-.46,2.16-.47.21-.73.93-.52,1.39.18-.65,1.19-.57,1.78-.99,1.49-1.04,1-2.36,1.08-3.7.04-.61.27-1.35,1.13-2.27,1.59-1.73,4.42-4.76,6.31-6.73h0Zm-12.1,16.27v-2.35c.55-.26,1.49-.14,1.79.8-.36-.39-.96-.17-1.06.16-.12.4-.05.85.98,1.03,1.19.2,2.11-.21,3.83,1.46,1.73,1.68,4.7,4.64,6.58,6.48l-.19.19c-1.97-1.89-5-4.72-6.73-6.31-.93-.85-1.66-1.09-2.27-1.13-1.03-.06-2.04.21-2.93-.33h0Zm0-3.54c.44,0,.8-.36.8-.8s-.36-.8-.8-.8v1.61h0Zm0-5.14c.27.16.53.4.77.75.42.59.34,1.6.99,1.78-.46.21-1.17-.05-1.39-.52-.07.14-.2.26-.37.34v-2.35Z" opacity=".2" style="fill:#a3836b;fill-rule:evenodd;stroke-width:0"/><path d="m132.24,204.33l-.19-.19c-1.84,1.88-4.8,4.85-6.48,6.58-1.67,1.72-1.26,2.64-1.46,3.83-.18,1.03-.63,1.1-1.03.98-.33-.1-.55-.7-.16-1.06-1.23.4-1.06,1.88-.46,2.16-.47.21-.73.93-.52,1.39.18-.65,1.19-.57,1.78-.99,1.49-1.04,1-2.36,1.08-3.7.04-.61.27-1.35,1.13-2.27,1.59-1.73,4.42-4.76,6.31-6.73h0Zm-12.1,11.12c-.44,0-.8.36-.8.8s.36.8.8.8.8-.36.8-.8-.36-.8-.8-.8h0Zm11.93,12.91c-1.97-1.89-5-4.72-6.73-6.31-.93-.85-1.66-1.09-2.27-1.13-1.34-.08-2.65.41-3.7-1.08-.42-.59-.34-1.6-.99-1.78.46-.21,1.17.05,1.39.52.28-.6,1.76-.77,2.16.46-.36-.39-.96-.17-1.06.16-.12.4-.05.85.98,1.03,1.19.2,2.11-.21,3.83,1.46,1.73,1.68,4.7,4.64,6.58,6.48l-.19.19h0Zm-24.04-.19l.19.19c1.84-1.88,4.81-4.83,6.49-6.56,1.68-1.72,1.26-2.64,1.46-3.83.18-1.03.63-1.1,1.03-.98.33.1.55.7.16,1.06,1.23-.4,1.06-1.88.46-2.16.47-.21.73-.93.52-1.39-.18.65-1.19.57-1.78.99-1.49,1.04-1,2.36-1.08,3.7-.04.61-.27,1.35-1.13,2.27-1.59,1.73-4.43,4.75-6.32,6.71h0Zm6.91-17.71c.93.85,1.66,1.09,2.27,1.13,1.34.08,2.65-.41,3.7,1.08.42.59.34,1.6.99,1.78-.46.21-1.17-.05-1.39-.52-.28.6-1.76.77-2.16-.46.36.39.96.17,1.06-.16.12-.4.05-.85-.98-1.03-1.19-.2-2.11.21-3.83-1.46-1.73-1.68-4.69-4.66-6.56-6.49l.19-.19c1.97,1.89,4.99,4.73,6.71,6.32Z" opacity=".2" style="fill:#a3836b;fill-rule:evenodd;stroke-width:0"/><path d="m156.27,180.31l-.19-.19c-1.84,1.88-4.8,4.85-6.48,6.58-1.67,1.72-1.26,2.64-1.46,3.83-.18,1.03-.63,1.1-1.03.98-.33-.1-.55-.7-.16-1.06-1.23.4-1.06,1.88-.46,2.16-.47.21-.73.93-.52,1.39.18-.65,1.19-.57,1.78-.99,1.49-1.04,1-2.36,1.08-3.7.04-.61.27-1.35,1.13-2.27,1.59-1.73,4.42-4.76,6.31-6.73h0Zm-12.1,11.12c-.44,0-.8.36-.8.8s.36.8.8.8.8-.36.8-.8-.36-.8-.8-.8h0Zm11.93,12.91c-1.97-1.89-5-4.72-6.73-6.31-.93-.85-1.66-1.09-2.27-1.13-1.34-.08-2.65.41-3.7-1.08-.42-.59-.34-1.6-.99-1.78.46-.21,1.17.05,1.39.52.28-.6,1.76-.77,2.16.46-.36-.39-.96-.17-1.06.16-.12.4-.05.85.98,1.03,1.19.2,2.11-.21,3.83,1.46,1.73,1.68,4.7,4.64,6.58,6.48l-.19.19h0Zm-24.04-.19l.19.19c1.84-1.88,4.81-4.83,6.49-6.56,1.68-1.72,1.26-2.64,1.46-3.83.18-1.03.63-1.1,1.03-.98.33.1.55.7.16,1.06,1.23-.4,1.06-1.88.46-2.16.47-.21.73-.93.52-1.39-.18.65-1.19.57-1.78.99-1.49,1.04-1,2.36-1.08,3.7-.04.61-.27,1.35-1.13,2.27-1.59,1.73-4.43,4.75-6.32,6.71h0Zm6.91-17.71c.93.85,1.66,1.09,2.27,1.13,1.34.08,2.65-.41,3.7,1.08.42.59.34,1.6.99,1.78-.46.21-1.17-.05-1.39-.52-.28.6-1.76.77-2.16-.46.36.39.96.17,1.06-.16.12-.4.05-.85-.98-1.03-1.19-.2-2.11.21-3.83-1.46-1.73-1.68-4.69-4.66-6.56-6.49l.19-.19c1.97,1.89,4.99,4.73,6.71,6.32Z" opacity=".2" style="fill:#a3836b;fill-rule:evenodd;stroke-width:0"/><path d="m180.3,204.33l-.19-.19c-1.84,1.88-4.8,4.85-6.48,6.58-1.67,1.72-1.26,2.64-1.46,3.83-.18,1.03-.63,1.1-1.03.98-.33-.1-.55-.7-.16-1.06-1.23.4-1.06,1.88-.46,2.16-.47.21-.73.93-.52,1.39.18-.65,1.19-.57,1.78-.99,1.49-1.04,1-2.36,1.08-3.7.04-.61.27-1.35,1.13-2.27,1.59-1.73,4.42-4.76,6.31-6.73h0Zm-12.1,11.12c-.44,0-.8.36-.8.8s.36.8.8.8.8-.36.8-.8-.36-.8-.8-.8h0Zm11.93,12.91c-1.97-1.89-5-4.72-6.73-6.31-.93-.85-1.66-1.09-2.27-1.13-1.34-.08-2.65.41-3.7-1.08-.42-.59-.34-1.6-.99-1.78.46-.21,1.17.05,1.39.52.28-.6,1.76-.77,2.16.46-.36-.39-.96-.17-1.06.16-.12.4-.05.85.98,1.03,1.19.2,2.11-.21,3.83,1.46,1.73,1.68,4.7,4.64,6.58,6.48l-.19.19h0Zm-24.04-.19l.19.19c1.84-1.88,4.81-4.83,6.49-6.56,1.68-1.72,1.26-2.64,1.46-3.83.18-1.03.63-1.1,1.03-.98.33.1.55.7.16,1.06,1.23-.4,1.06-1.88.46-2.16.47-.21.73-.93.52-1.39-.18.65-1.19.57-1.78.99-1.49,1.04-1,2.36-1.08,3.7-.04.61-.27,1.35-1.13,2.27-1.59,1.73-4.43,4.75-6.32,6.71h0Zm6.91-17.71c.93.85,1.66,1.09,2.27,1.13,1.34.08,2.65-.41,3.7,1.08.42.59.34,1.6.99,1.78-.46.21-1.17-.05-1.39-.52-.28.6-1.76.77-2.16-.46.36.39.96.17,1.06-.16.12-.4.05-.85-.98-1.03-1.19-.2-2.11.21-3.83-1.46-1.73-1.68-4.69-4.66-6.56-6.49l.19-.19c1.97,1.89,4.99,4.73,6.71,6.32Z" opacity=".2" style="fill:#a3836b;fill-rule:evenodd;stroke-width:0"/><path d="m192.23,187.89c-.89-.54-1.9-.27-2.93-.33-.61-.04-1.35-.27-2.27-1.13-1.73-1.59-4.75-4.43-6.71-6.32l-.19.19c1.88,1.84,4.83,4.81,6.56,6.49,1.72,1.68,2.64,1.26,3.83,1.46,1.03.18,1.1.63.98,1.03-.1.33-.7.55-1.06.16.3.94,1.24,1.06,1.79.8v-2.35h0Zm0,3.54c-.44,0-.8.36-.8.8s.36.8.8.8v-1.61h0Zm0,2.79c-.17.08-.3.2-.37.34-.21-.47-.93-.73-1.39-.52.65.18.57,1.19.99,1.78.24.35.5.58.77.75v-2.35h0Zm-5.79,3.21c.85-.93,1.09-1.66,1.13-2.27.08-1.34-.41-2.65,1.08-3.7.59-.42,1.6-.34,1.78-.99.21.46-.05,1.17-.52,1.39.6.28.77,1.76-.46,2.16.39-.36.17-.96-.16-1.06-.4-.12-.85-.05-1.03.98-.2,1.19.21,2.11-1.46,3.83-1.68,1.73-4.66,4.69-6.49,6.56l-.19-.19c1.89-1.97,4.73-4.99,6.32-6.71Z" opacity=".2" style="fill:#a3836b;fill-rule:evenodd;stroke-width:0"/><path d="m108.22,228.36l-.19-.19c-1.84,1.88-4.8,4.85-6.48,6.58-1.67,1.72-1.26,2.64-1.46,3.83-.18,1.03-.63,1.1-1.03.98-.33-.1-.55-.7-.16-1.06-1.23.4-1.06,1.88-.46,2.16-.47.21-.73.93-.52,1.39.18-.65,1.19-.57,1.78-.99,1.49-1.04,1-2.36,1.08-3.7.04-.61.27-1.35,1.13-2.27,1.59-1.73,4.42-4.76,6.31-6.73h0Zm-12.1,16.27v-2.35c.55-.26,1.49-.14,1.79.8-.36-.39-.96-.17-1.06.16-.12.4-.05.85.98,1.03,1.19.2,2.11-.21,3.83,1.46,1.73,1.68,4.7,4.64,6.58,6.48l-.19.19c-1.97-1.89-5-4.72-6.73-6.31-.93-.85-1.66-1.09-2.27-1.13-1.03-.06-2.04.21-2.93-.33h0Zm0-3.54c.44,0,.8-.36.8-.8s-.36-.8-.8-.8v1.61h0Zm0-5.14c.27.16.53.4.77.75.42.59.34,1.6.99,1.78-.46.21-1.17-.05-1.39-.52-.07.14-.2.26-.37.34v-2.35Z" opacity=".2" style="fill:#a3836b;fill-rule:evenodd;stroke-width:0"/><path d="m132.24,252.39l-.19-.19c-1.84,1.88-4.8,4.85-6.48,6.58-1.67,1.72-1.26,2.64-1.46,3.83-.18,1.03-.63,1.1-1.03.98-.33-.1-.55-.7-.16-1.06-1.23.4-1.06,1.88-.46,2.16-.47.21-.73.93-.52,1.39.18-.65,1.19-.57,1.78-.99,1.49-1.04,1-2.36,1.08-3.7.04-.61.27-1.35,1.13-2.27,1.59-1.73,4.42-4.76,6.31-6.73h0Zm-12.1,11.12c-.44,0-.8.36-.8.8s.36.8.8.8.8-.36.8-.8-.36-.8-.8-.8h0Zm11.93,12.91c-1.97-1.89-5-4.72-6.73-6.31-.93-.85-1.66-1.09-2.27-1.13-1.34-.08-2.65.41-3.7-1.08-.42-.59-.34-1.6-.99-1.78.46-.21,1.17.05,1.39.52.28-.6,1.76-.77,2.16.46-.36-.39-.96-.17-1.06.16-.12.4-.05.85.98,1.03,1.19.2,2.11-.21,3.83,1.46,1.73,1.68,4.7,4.64,6.58,6.48l-.19.19h0Zm-24.04-.19l.19.19c1.84-1.88,4.81-4.83,6.49-6.56,1.68-1.72,1.26-2.64,1.46-3.83.18-1.03.63-1.1,1.03-.98.33.1.55.7.16,1.06,1.23-.4,1.06-1.88.46-2.16.47-.21.73-.93.52-1.39-.18.65-1.19.57-1.78.99-1.49,1.04-1,2.36-1.08,3.7-.04.61-.27,1.35-1.13,2.27-1.59,1.73-4.43,4.75-6.32,6.71h0Zm6.91-17.71c.93.85,1.66,1.09,2.27,1.13,1.34.08,2.65-.41,3.7,1.08.42.59.34,1.6.99,1.78-.46.21-1.17-.05-1.39-.52-.28.6-1.76.77-2.16-.46.36.39.96.17,1.06-.16.12-.4.05-.85-.98-1.03-1.19-.2-2.11.21-3.83-1.46-1.73-1.68-4.69-4.66-6.56-6.49l.19-.19c1.97,1.89,4.99,4.73,6.71,6.32Z" opacity=".2" style="fill:#a3836b;fill-rule:evenodd;stroke-width:0"/><path d="m156.27,228.36l-.19-.19c-1.84,1.88-4.8,4.85-6.48,6.58-1.67,1.72-1.26,2.64-1.46,3.83-.18,1.03-.63,1.1-1.03.98-.33-.1-.55-.7-.16-1.06-1.23.4-1.06,1.88-.46,2.16-.47.21-.73.93-.52,1.39.18-.65,1.19-.57,1.78-.99,1.49-1.04,1-2.36,1.08-3.7.04-.61.27-1.35,1.13-2.27,1.59-1.73,4.42-4.76,6.31-6.73h0Zm-12.1,11.12c-.44,0-.8.36-.8.8s.36.8.8.8.8-.36.8-.8-.36-.8-.8-.8h0Zm11.93,12.91c-1.97-1.89-5-4.72-6.73-6.31-.93-.85-1.66-1.09-2.27-1.13-1.34-.08-2.65.41-3.7-1.08-.42-.59-.34-1.6-.99-1.78.46-.21,1.17.05,1.39.52.28-.6,1.76-.77,2.16.46-.36-.39-.96-.17-1.06.16-.12.4-.05.85.98,1.03,1.19.2,2.11-.21,3.83,1.46,1.73,1.68,4.7,4.64,6.58,6.48l-.19.19h0Zm-24.04-.19l.19.19c1.84-1.88,4.81-4.83,6.49-6.56,1.68-1.72,1.26-2.64,1.46-3.83.18-1.03.63-1.1,1.03-.98.33.1.55.7.16,1.06,1.23-.4,1.06-1.88.46-2.16.47-.21.73-.93.52-1.39-.18.65-1.19.57-1.78.99-1.49,1.04-1,2.36-1.08,3.7-.04.61-.27,1.35-1.13,2.27-1.59,1.73-4.43,4.75-6.32,6.71h0Zm6.91-17.71c.93.85,1.66,1.09,2.27,1.13,1.34.08,2.65-.41,3.7,1.08.42.59.34,1.6.99,1.78-.46.21-1.17-.05-1.39-.52-.28.6-1.76.77-2.16-.46.36.39.96.17,1.06-.16.12-.4.05-.85-.98-1.03-1.19-.2-2.11.21-3.83-1.46-1.73-1.68-4.69-4.66-6.56-6.49l.19-.19c1.97,1.89,4.99,4.73,6.71,6.32Z" opacity=".2" style="fill:#a3836b;fill-rule:evenodd;stroke-width:0"/><path d="m180.3,252.39l-.19-.19c-1.84,1.88-4.8,4.85-6.48,6.58-1.67,1.72-1.26,2.64-1.46,3.83-.18,1.03-.63,1.1-1.03.98-.33-.1-.55-.7-.16-1.06-1.23.4-1.06,1.88-.46,2.16-.47.21-.73.93-.52,1.39.18-.65,1.19-.57,1.78-.99,1.49-1.04,1-2.36,1.08-3.7.04-.61.27-1.35,1.13-2.27,1.59-1.73,4.42-4.76,6.31-6.73h0Zm-12.1,11.12c-.44,0-.8.36-.8.8s.36.8.8.8.8-.36.8-.8-.36-.8-.8-.8h0Zm11.93,12.91c-1.97-1.89-5-4.72-6.73-6.31-.93-.85-1.66-1.09-2.27-1.13-1.34-.08-2.65.41-3.7-1.08-.42-.59-.34-1.6-.99-1.78.46-.21,1.17.05,1.39.52.28-.6,1.76-.77,2.16.46-.36-.39-.96-.17-1.06.16-.12.4-.05.85.98,1.03,1.19.2,2.11-.21,3.83,1.46,1.73,1.68,4.7,4.64,6.58,6.48l-.19.19h0Zm-24.04-.19l.19.19c1.84-1.88,4.81-4.83,6.49-6.56,1.68-1.72,1.26-2.64,1.46-3.83.18-1.03.63-1.1,1.03-.98.33.1.55.7.16,1.06,1.23-.4,1.06-1.88.46-2.16.47-.21.73-.93.52-1.39-.18.65-1.19.57-1.78.99-1.49,1.04-1,2.36-1.08,3.7-.04.61-.27,1.35-1.13,2.27-1.59,1.73-4.43,4.75-6.32,6.71h0Zm6.91-17.71c.93.85,1.66,1.09,2.27,1.13,1.34.08,2.65-.41,3.7,1.08.42.59.34,1.6.99,1.78-.46.21-1.17-.05-1.39-.52-.28.6-1.76.77-2.16-.46.36.39.96.17,1.06-.16.12-.4.05-.85-.98-1.03-1.19-.2-2.11.21-3.83-1.46-1.73-1.68-4.69-4.66-6.56-6.49l.19-.19c1.97,1.89,4.99,4.73,6.71,6.32Z" opacity=".2" style="fill:#a3836b;fill-rule:evenodd;stroke-width:0"/><path d="m192.23,235.95c-.89-.54-1.9-.27-2.93-.33-.61-.04-1.35-.27-2.27-1.13-1.73-1.59-4.75-4.43-6.71-6.32l-.19.19c1.88,1.84,4.83,4.81,6.56,6.49,1.72,1.68,2.64,1.26,3.83,1.46,1.03.18,1.1.63.98,1.03-.1.33-.7.55-1.06.16.3.94,1.24,1.06,1.79.8v-2.35h0Zm0,3.54c-.44,0-.8.36-.8.8s.36.8.8.8v-1.61h0Zm0,2.79c-.17.08-.3.2-.37.34-.21-.47-.93-.73-1.39-.52.65.18.57,1.19.99,1.78.24.35.5.58.77.75v-2.35h0Zm-5.79,3.21c.85-.93,1.09-1.66,1.13-2.27.08-1.34-.41-2.65,1.08-3.7.59-.42,1.6-.34,1.78-.99.21.46-.05,1.17-.52,1.39.6.28.77,1.76-.46,2.16.39-.36.17-.96-.16-1.06-.4-.12-.85-.05-1.03.98-.2,1.19.21,2.11-1.46,3.83-1.68,1.73-4.66,4.69-6.49,6.56l-.19-.19c1.89-1.97,4.73-4.99,6.32-6.71Z" opacity=".2" style="fill:#a3836b;fill-rule:evenodd;stroke-width:0"/><path d="m108.22,276.42l-.19-.19c-1.84,1.88-4.8,4.85-6.48,6.58-1.67,1.72-1.26,2.64-1.46,3.83-.18,1.03-.63,1.1-1.03.98-.33-.1-.55-.7-.16-1.06-.93.3-1.06,1.24-.8,1.79h2.36c.54-.89.26-1.9.32-2.92.04-.61.27-1.35,1.13-2.27,1.59-1.73,4.42-4.76,6.31-6.73h0Zm-11.3,11.92c0-.44-.36-.8-.8-.8v.8h.8Zm-.8-4.33c.27.16.53.4.77.75.42.59.34,1.6.99,1.78-.46.21-1.17-.05-1.39-.52-.07.14-.2.26-.37.34v-2.35Z" opacity=".2" style="fill:#a3836b;fill-rule:evenodd;stroke-width:0"/><path d="m156.27,276.42l-.19-.19c-1.84,1.88-4.8,4.85-6.48,6.58-1.67,1.72-1.26,2.64-1.46,3.83-.18,1.03-.63,1.1-1.03.98-.33-.1-.55-.7-.16-1.06-.93.3-1.06,1.24-.8,1.79h2.36c.54-.89.26-1.9.32-2.92.04-.61.27-1.35,1.13-2.27,1.59-1.73,4.42-4.76,6.31-6.73h0Zm-11.3,11.92c0-.44-.36-.8-.8-.8s-.8.36-.8.8h1.61Zm-2.8,0c-.08-.17-.2-.3-.34-.36.47-.21.73-.93.52-1.39-.18.65-1.19.57-1.78.99-.34.24-.58.5-.74.76h2.34Zm-3.21-5.79c.93.85,1.66,1.09,2.27,1.13,1.34.08,2.65-.41,3.7,1.08.42.59.34,1.6.99,1.78-.46.21-1.17-.05-1.39-.52-.28.6-1.76.77-2.16-.46.36.39.96.17,1.06-.16.12-.4.05-.85-.98-1.03-1.19-.2-2.11.22-3.83-1.46-1.73-1.68-4.69-4.66-6.56-6.49l.19-.19c1.97,1.89,4.99,4.73,6.71,6.32Z" opacity=".2" style="fill:#a3836b;fill-rule:evenodd;stroke-width:0"/><path d="m192.23,284c-.89-.54-1.9-.27-2.93-.33-.61-.04-1.35-.27-2.27-1.13-1.73-1.59-4.75-4.43-6.71-6.32l-.19.19c1.88,1.84,4.83,4.81,6.56,6.49,1.72,1.68,2.64,1.26,3.83,1.46,1.03.18,1.1.63.98,1.03-.1.33-.7.55-1.06.16.3.94,1.24,1.06,1.79.8v-2.35h0Zm0,3.54c-.44,0-.8.36-.8.8h.8v-.8h0Zm-4.34.8c.16-.27.4-.52.74-.76.59-.42,1.6-.34,1.78-.99.21.46-.05,1.17-.52,1.39.14.06.26.19.34.36h-2.34Z" opacity=".2" style="fill:#a3836b;fill-rule:evenodd;stroke-width:0"/><path d="m196.55,0h-2.36c.08.17.2.31.34.37-.47.21-.73.93-.52,1.39.18-.65,1.19-.57,1.78-.99.35-.24.59-.5.75-.78h0Zm-4.34,0v.81c.44,0,.8-.36.8-.8h0s-.8,0-.8,0h0Zm0,2c.55-.26,1.49-.14,1.79.8-.36-.39-.96-.17-1.06.16-.12.4-.05.85.98,1.03,1.19.2,2.11-.21,3.83,1.46,1.73,1.68,4.7,4.64,6.58,6.48l-.19.19c-1.97-1.89-5-4.72-6.73-6.31-.93-.85-1.66-1.09-2.27-1.13-1.03-.06-2.04.21-2.93-.33V2Z" opacity=".2" style="fill:#a3836b;fill-rule:evenodd;stroke-width:0"/><path d="m228.33,12.11l-.19-.19c-1.84,1.88-4.8,4.85-6.48,6.58-1.67,1.72-1.26,2.64-1.46,3.83-.18,1.03-.63,1.1-1.03.98-.33-.1-.55-.7-.16-1.06-1.23.4-1.06,1.88-.46,2.16-.47.21-.73.93-.52,1.39.18-.65,1.19-.57,1.78-.99,1.49-1.04,1-2.36,1.08-3.7.04-.61.27-1.35,1.13-2.27,1.59-1.73,4.42-4.76,6.31-6.73h0Zm-12.1,11.12c-.44,0-.8.36-.8.8s.36.8.8.8.8-.36.8-.8-.36-.8-.8-.8h0Zm11.93,12.91c-1.97-1.89-5-4.72-6.73-6.31-.93-.85-1.66-1.09-2.27-1.13-1.34-.08-2.65.41-3.7-1.08-.42-.59-.34-1.6-.99-1.78.46-.21,1.17.05,1.39.52.28-.6,1.76-.77,2.16.46-.36-.39-.96-.17-1.06.16-.12.4-.05.85.98,1.03,1.19.2,2.11-.21,3.83,1.46,1.73,1.68,4.7,4.64,6.58,6.48l-.19.19h0Zm-24.04-.19l.19.19c1.84-1.88,4.81-4.83,6.49-6.56,1.68-1.72,1.26-2.64,1.46-3.83.18-1.03.63-1.1,1.03-.98.33.1.55.7.16,1.06,1.23-.4,1.06-1.88.46-2.16.47-.21.73-.93.52-1.39-.18.65-1.19.57-1.78.99-1.49,1.04-1,2.36-1.08,3.7-.04.61-.27,1.35-1.13,2.27-1.59,1.73-4.43,4.75-6.32,6.71h0Zm6.91-17.71c.93.85,1.66,1.09,2.27,1.13,1.34.08,2.65-.41,3.7,1.08.42.59.34,1.6.99,1.78-.46.21-1.17-.05-1.39-.52-.28.6-1.76.77-2.16-.46.36.39.96.17,1.06-.16.12-.4.05-.85-.98-1.03-1.19-.2-2.11.21-3.83-1.46-1.73-1.68-4.69-4.66-6.56-6.49l.19-.19c1.97,1.89,4.99,4.73,6.71,6.32Z" opacity=".2" style="fill:#a3836b;fill-rule:evenodd;stroke-width:0"/><path d="m244.6,0h-2.36c.08.17.2.31.34.37-.47.21-.73.93-.52,1.39.18-.65,1.19-.57,1.78-.99.35-.24.59-.5.75-.78h0Zm-8.68,0c-.55.89-.27,1.91-.33,2.93-.04.61-.27,1.35-1.13,2.27-1.59,1.73-4.43,4.75-6.32,6.71l.19.19c1.84-1.88,4.81-4.83,6.49-6.56,1.68-1.72,1.26-2.64,1.46-3.83.18-1.03.63-1.1,1.03-.98.33.1.55.7.16,1.06.94-.3,1.06-1.25.79-1.8h-2.34Zm3.53,0h0c0,.45.36.81.8.81s.8-.36.8-.8h0s-1.61,0-1.61,0h0Zm6,5.8c-.93-.85-1.66-1.09-2.27-1.13-1.34-.08-2.65.41-3.7-1.08-.42-.59-.34-1.6-.99-1.78.46-.21,1.17.05,1.39.52.28-.6,1.76-.77,2.16.46-.36-.39-.96-.17-1.06.16-.12.4-.05.85.98,1.03,1.19.2,2.11-.21,3.83,1.46,1.73,1.68,4.7,4.64,6.58,6.48l-.19.19c-1.97-1.89-5-4.72-6.73-6.31Z" opacity=".2" style="fill:#a3836b;fill-rule:evenodd;stroke-width:0"/><path d="m276.39,12.11l-.19-.19c-1.84,1.88-4.8,4.85-6.48,6.58-1.67,1.72-1.26,2.64-1.46,3.83-.18,1.03-.63,1.1-1.03.98-.33-.1-.55-.7-.16-1.06-1.23.4-1.06,1.88-.46,2.16-.47.21-.73.93-.52,1.39.18-.65,1.19-.57,1.78-.99,1.49-1.04,1-2.36,1.08-3.7.04-.61.27-1.35,1.13-2.27,1.59-1.73,4.42-4.76,6.31-6.73h0Zm-12.1,11.12c-.44,0-.8.36-.8.8s.36.8.8.8.8-.36.8-.8-.36-.8-.8-.8h0Zm11.93,12.91c-1.97-1.89-5-4.72-6.73-6.31-.93-.85-1.66-1.09-2.27-1.13-1.34-.08-2.65.41-3.7-1.08-.42-.59-.34-1.6-.99-1.78.46-.21,1.17.05,1.39.52.28-.6,1.76-.77,2.16.46-.36-.39-.96-.17-1.06.16-.12.4-.05.85.98,1.03,1.19.2,2.11-.21,3.83,1.46,1.73,1.68,4.7,4.64,6.58,6.48l-.19.19h0Zm-24.04-.19l.19.19c1.84-1.88,4.81-4.83,6.49-6.56,1.68-1.72,1.26-2.64,1.46-3.83.18-1.03.63-1.1,1.03-.98.33.1.55.7.16,1.06,1.23-.4,1.06-1.88.46-2.16.47-.21.73-.93.52-1.39-.18.65-1.19.57-1.78.99-1.49,1.04-1,2.36-1.08,3.7-.04.61-.27,1.35-1.13,2.27-1.59,1.73-4.43,4.75-6.32,6.71h0Zm6.91-17.71c.93.85,1.66,1.09,2.27,1.13,1.34.08,2.65-.41,3.7,1.08.42.59.34,1.6.99,1.78-.46.21-1.17-.05-1.39-.52-.28.6-1.76.77-2.16-.46.36.39.96.17,1.06-.16.12-.4.05-.85-.98-1.03-1.19-.2-2.11.21-3.83-1.46-1.73-1.68-4.69-4.66-6.56-6.49l.19-.19c1.97,1.89,4.99,4.73,6.71,6.32Z" opacity=".2" style="fill:#a3836b;fill-rule:evenodd;stroke-width:0"/><path d="m283.98,0c-.55.89-.27,1.91-.33,2.93-.04.61-.27,1.35-1.13,2.27-1.59,1.73-4.43,4.75-6.32,6.71l.19.19c1.84-1.88,4.81-4.83,6.49-6.56,1.68-1.72,1.26-2.64,1.46-3.83.18-1.03.63-1.1,1.03-.98.33.1.55.7.16,1.06.94-.3,1.06-1.25.79-1.8h-2.34Zm3.53,0h0c0,.45.36.81.8.81v-.81h-.8Zm.8,4.35c-.27-.16-.53-.4-.77-.75-.42-.59-.34-1.6-.99-1.78.46-.21,1.17.05,1.39.52.07-.14.2-.26.37-.34v2.35Z" opacity=".2" style="fill:#a3836b;fill-rule:evenodd;stroke-width:0"/><path d="m204.3,36.14l-.19-.19c-1.84,1.88-4.8,4.85-6.48,6.58-1.67,1.72-1.26,2.64-1.46,3.83-.18,1.03-.63,1.1-1.03.98-.33-.1-.55-.7-.16-1.06-1.23.4-1.06,1.88-.46,2.16-.47.21-.73.93-.52,1.39.18-.65,1.19-.57,1.78-.99,1.49-1.04,1-2.36,1.08-3.7.04-.61.27-1.35,1.13-2.27,1.59-1.73,4.42-4.76,6.31-6.73h0Zm-12.1,16.27v-2.35c.55-.26,1.49-.14,1.79.8-.36-.39-.96-.17-1.06.16-.12.4-.05.85.98,1.03,1.19.2,2.11-.21,3.83,1.46,1.73,1.68,4.7,4.64,6.58,6.48l-.19.19c-1.97-1.89-5-4.72-6.73-6.31-.93-.85-1.66-1.09-2.27-1.13-1.03-.06-2.04.21-2.93-.33h0Zm0-3.54c.44,0,.8-.36.8-.8s-.36-.8-.8-.8v1.61h0Zm0-5.14c.27.16.53.4.77.75.42.59.34,1.6.99,1.78-.46.21-1.17-.05-1.39-.52-.07.14-.2.26-.37.34v-2.35Z" opacity=".2" style="fill:#a3836b;fill-rule:evenodd;stroke-width:0"/><path d="m228.33,60.16l-.19-.19c-1.84,1.88-4.8,4.85-6.48,6.58-1.67,1.72-1.26,2.64-1.46,3.83-.18,1.03-.63,1.1-1.03.98-.33-.1-.55-.7-.16-1.06-1.23.4-1.06,1.88-.46,2.16-.47.21-.73.93-.52,1.39.18-.65,1.19-.57,1.78-.99,1.49-1.04,1-2.36,1.08-3.7.04-.61.27-1.35,1.13-2.27,1.59-1.73,4.42-4.76,6.31-6.73h0Zm-12.1,11.12c-.44,0-.8.36-.8.8s.36.8.8.8.8-.36.8-.8-.36-.8-.8-.8h0Zm11.93,12.91c-1.97-1.89-5-4.72-6.73-6.31-.93-.85-1.66-1.09-2.27-1.13-1.34-.08-2.65.41-3.7-1.08-.42-.59-.34-1.6-.99-1.78.46-.21,1.17.05,1.39.52.28-.6,1.76-.77,2.16.46-.36-.39-.96-.17-1.06.16-.12.4-.05.85.98,1.03,1.19.2,2.11-.21,3.83,1.46,1.73,1.68,4.7,4.64,6.58,6.48l-.19.19h0Zm-24.04-.19l.19.19c1.84-1.88,4.81-4.83,6.49-6.56,1.68-1.72,1.26-2.64,1.46-3.83.18-1.03.63-1.1,1.03-.98.33.1.55.7.16,1.06,1.23-.4,1.06-1.88.46-2.16.47-.21.73-.93.52-1.39-.18.65-1.19.57-1.78.99-1.49,1.04-1,2.36-1.08,3.7-.04.61-.27,1.35-1.13,2.27-1.59,1.73-4.43,4.75-6.32,6.71h0Zm6.91-17.71c.93.85,1.66,1.09,2.27,1.13,1.34.08,2.65-.41,3.7,1.08.42.59.34,1.6.99,1.78-.46.21-1.17-.05-1.39-.52-.28.6-1.76.77-2.16-.46.36.39.96.17,1.06-.16.12-.4.05-.85-.98-1.03-1.19-.2-2.11.21-3.83-1.46-1.73-1.68-4.69-4.66-6.56-6.49l.19-.19c1.97,1.89,4.99,4.73,6.71,6.32Z" opacity=".2" style="fill:#a3836b;fill-rule:evenodd;stroke-width:0"/><path d="m252.36,36.14l-.19-.19c-1.84,1.88-4.8,4.85-6.48,6.58-1.67,1.72-1.26,2.64-1.46,3.83-.18,1.03-.63,1.1-1.03.98-.33-.1-.55-.7-.16-1.06-1.23.4-1.06,1.88-.46,2.16-.47.21-.73.93-.52,1.39.18-.65,1.19-.57,1.78-.99,1.49-1.04,1-2.36,1.08-3.7.04-.61.27-1.35,1.13-2.27,1.59-1.73,4.42-4.76,6.31-6.73h0Zm-12.1,11.12c-.44,0-.8.36-.8.8s.36.8.8.8.8-.36.8-.8-.36-.8-.8-.8h0Zm11.93,12.91c-1.97-1.89-5-4.72-6.73-6.31-.93-.85-1.66-1.09-2.27-1.13-1.34-.08-2.65.41-3.7-1.08-.42-.59-.34-1.6-.99-1.78.46-.21,1.17.05,1.39.52.28-.6,1.76-.77,2.16.46-.36-.39-.96-.17-1.06.16-.12.4-.05.85.98,1.03,1.19.2,2.11-.21,3.83,1.46,1.73,1.68,4.7,4.64,6.58,6.48l-.19.19h0Zm-24.04-.19l.19.19c1.84-1.88,4.81-4.83,6.49-6.56,1.68-1.72,1.26-2.64,1.46-3.83.18-1.03.63-1.1,1.03-.98.33.1.55.7.16,1.06,1.23-.4,1.06-1.88.46-2.16.47-.21.73-.93.52-1.39-.18.65-1.19.57-1.78.99-1.49,1.04-1,2.36-1.08,3.7-.04.61-.27,1.35-1.13,2.27-1.59,1.73-4.43,4.75-6.32,6.71h0Zm6.91-17.71c.93.85,1.66,1.09,2.27,1.13,1.34.08,2.65-.41,3.7,1.08.42.59.34,1.6.99,1.78-.46.21-1.17-.05-1.39-.52-.28.6-1.76.77-2.16-.46.36.39.96.17,1.06-.16.12-.4.05-.85-.98-1.03-1.19-.2-2.11.21-3.83-1.46-1.73-1.68-4.69-4.66-6.56-6.49l.19-.19c1.97,1.89,4.99,4.73,6.71,6.32Z" opacity=".2" style="fill:#a3836b;fill-rule:evenodd;stroke-width:0"/><path d="m276.39,60.16l-.19-.19c-1.84,1.88-4.8,4.85-6.48,6.58-1.67,1.72-1.26,2.64-1.46,3.83-.18,1.03-.63,1.1-1.03.98-.33-.1-.55-.7-.16-1.06-1.23.4-1.06,1.88-.46,2.16-.47.21-.73.93-.52,1.39.18-.65,1.19-.57,1.78-.99,1.49-1.04,1-2.36,1.08-3.7.04-.61.27-1.35,1.13-2.27,1.59-1.73,4.42-4.76,6.31-6.73h0Zm-12.1,11.12c-.44,0-.8.36-.8.8s.36.8.8.8.8-.36.8-.8-.36-.8-.8-.8h0Zm11.93,12.91c-1.97-1.89-5-4.72-6.73-6.31-.93-.85-1.66-1.09-2.27-1.13-1.34-.08-2.65.41-3.7-1.08-.42-.59-.34-1.6-.99-1.78.46-.21,1.17.05,1.39.52.28-.6,1.76-.77,2.16.46-.36-.39-.96-.17-1.06.16-.12.4-.05.85.98,1.03,1.19.2,2.11-.21,3.83,1.46,1.73,1.68,4.7,4.64,6.58,6.48l-.19.19h0Zm-24.04-.19l.19.19c1.84-1.88,4.81-4.83,6.49-6.56,1.68-1.72,1.26-2.64,1.46-3.83.18-1.03.63-1.1,1.03-.98.33.1.55.7.16,1.06,1.23-.4,1.06-1.88.46-2.16.47-.21.73-.93.52-1.39-.18.65-1.19.57-1.78.99-1.49,1.04-1,2.36-1.08,3.7-.04.61-.27,1.35-1.13,2.27-1.59,1.73-4.43,4.75-6.32,6.71h0Zm6.91-17.71c.93.85,1.66,1.09,2.27,1.13,1.34.08,2.65-.41,3.7,1.08.42.59.34,1.6.99,1.78-.46.21-1.17-.05-1.39-.52-.28.6-1.76.77-2.16-.46.36.39.96.17,1.06-.16.12-.4.05-.85-.98-1.03-1.19-.2-2.11.21-3.83-1.46-1.73-1.68-4.69-4.66-6.56-6.49l.19-.19c1.97,1.89,4.99,4.73,6.71,6.32Z" opacity=".2" style="fill:#a3836b;fill-rule:evenodd;stroke-width:0"/><path d="m288.31,43.72c-.89-.54-1.9-.27-2.93-.33-.61-.04-1.35-.27-2.27-1.13-1.73-1.59-4.75-4.43-6.71-6.32l-.19.19c1.88,1.84,4.83,4.81,6.56,6.49,1.72,1.68,2.64,1.26,3.83,1.46,1.03.18,1.1.63.98,1.03-.1.33-.7.55-1.06.16.3.94,1.24,1.06,1.79.8v-2.35h0Zm0,3.54c-.44,0-.8.36-.8.8s.36.8.8.8v-1.61h0Zm0,2.79c-.17.08-.3.2-.37.34-.21-.47-.93-.73-1.39-.52.65.18.57,1.19.99,1.78.24.35.5.58.77.75v-2.35h0Zm-5.79,3.21c.85-.93,1.09-1.66,1.13-2.27.08-1.34-.41-2.65,1.08-3.7.59-.42,1.6-.34,1.78-.99.21.46-.05,1.17-.52,1.39.6.28.77,1.76-.46,2.16.39-.36.17-.96-.16-1.06-.4-.12-.85-.05-1.03.98-.2,1.19.21,2.11-1.46,3.83-1.68,1.73-4.66,4.69-6.49,6.56l-.19-.19c1.89-1.97,4.73-4.99,6.32-6.71Z" opacity=".2" style="fill:#a3836b;fill-rule:evenodd;stroke-width:0"/><path d="m204.3,84.19l-.19-.19c-1.84,1.88-4.8,4.85-6.48,6.58-1.67,1.72-1.26,2.64-1.46,3.83-.18,1.03-.63,1.1-1.03.98-.33-.1-.55-.7-.16-1.06-1.23.4-1.06,1.88-.46,2.16-.47.21-.73.93-.52,1.39.18-.65,1.19-.57,1.78-.99,1.49-1.04,1-2.36,1.08-3.7.04-.61.27-1.35,1.13-2.27,1.59-1.73,4.42-4.76,6.31-6.73h0Zm-12.1,16.27v-2.35c.55-.26,1.49-.14,1.79.8-.36-.39-.96-.17-1.06.16-.12.4-.05.85.98,1.03,1.19.2,2.11-.21,3.83,1.46,1.73,1.68,4.7,4.64,6.58,6.48l-.19.19c-1.97-1.89-5-4.72-6.73-6.31-.93-.85-1.66-1.09-2.27-1.13-1.03-.06-2.04.21-2.93-.33h0Zm0-3.54c.44,0,.8-.36.8-.8s-.36-.8-.8-.8v1.61h0Zm0-5.14c.27.16.53.4.77.75.42.59.34,1.6.99,1.78-.46.21-1.17-.05-1.39-.52-.07.14-.2.26-.37.34v-2.35Z" opacity=".2" style="fill:#a3836b;fill-rule:evenodd;stroke-width:0"/><path d="m228.33,108.22l-.19-.19c-1.84,1.88-4.8,4.85-6.48,6.58-1.67,1.72-1.26,2.64-1.46,3.83-.18,1.03-.63,1.1-1.03.98-.33-.1-.55-.7-.16-1.06-1.23.4-1.06,1.88-.46,2.16-.47.21-.73.93-.52,1.39.18-.65,1.19-.57,1.78-.99,1.49-1.04,1-2.36,1.08-3.7.04-.61.27-1.35,1.13-2.27,1.59-1.73,4.42-4.76,6.31-6.73h0Zm-12.1,11.12c-.44,0-.8.36-.8.8s.36.8.8.8.8-.36.8-.8-.36-.8-.8-.8h0Zm11.93,12.91c-1.97-1.89-5-4.72-6.73-6.31-.93-.85-1.66-1.09-2.27-1.13-1.34-.08-2.65.41-3.7-1.08-.42-.59-.34-1.6-.99-1.78.46-.21,1.17.05,1.39.52.28-.6,1.76-.77,2.16.46-.36-.39-.96-.17-1.06.16-.12.4-.05.85.98,1.03,1.19.2,2.11-.21,3.83,1.46,1.73,1.68,4.7,4.64,6.58,6.48l-.19.19h0Zm-24.04-.19l.19.19c1.84-1.88,4.81-4.83,6.49-6.56,1.68-1.72,1.26-2.64,1.46-3.83.18-1.03.63-1.1,1.03-.98.33.1.55.7.16,1.06,1.23-.4,1.06-1.88.46-2.16.47-.21.73-.93.52-1.39-.18.65-1.19.57-1.78.99-1.49,1.04-1,2.36-1.08,3.7-.04.61-.27,1.35-1.13,2.27-1.59,1.73-4.43,4.75-6.32,6.71h0Zm6.91-17.71c.93.85,1.66,1.09,2.27,1.13,1.34.08,2.65-.41,3.7,1.08.42.59.34,1.6.99,1.78-.46.21-1.17-.05-1.39-.52-.28.6-1.76.77-2.16-.46.36.39.96.17,1.06-.16.12-.4.05-.85-.98-1.03-1.19-.2-2.11.21-3.83-1.46-1.73-1.68-4.69-4.66-6.56-6.49l.19-.19c1.97,1.89,4.99,4.73,6.71,6.32Z" opacity=".2" style="fill:#a3836b;fill-rule:evenodd;stroke-width:0"/><path d="m252.36,84.19l-.19-.19c-1.84,1.88-4.8,4.85-6.48,6.58-1.67,1.72-1.26,2.64-1.46,3.83-.18,1.03-.63,1.1-1.03.98-.33-.1-.55-.7-.16-1.06-1.23.4-1.06,1.88-.46,2.16-.47.21-.73.93-.52,1.39.18-.65,1.19-.57,1.78-.99,1.49-1.04,1-2.36,1.08-3.7.04-.61.27-1.35,1.13-2.27,1.59-1.73,4.42-4.76,6.31-6.73h0Zm-12.1,11.12c-.44,0-.8.36-.8.8s.36.8.8.8.8-.36.8-.8-.36-.8-.8-.8h0Zm11.93,12.91c-1.97-1.89-5-4.72-6.73-6.31-.93-.85-1.66-1.09-2.27-1.13-1.34-.08-2.65.41-3.7-1.08-.42-.59-.34-1.6-.99-1.78.46-.21,1.17.05,1.39.52.28-.6,1.76-.77,2.16.46-.36-.39-.96-.17-1.06.16-.12.4-.05.85.98,1.03,1.19.2,2.11-.21,3.83,1.46,1.73,1.68,4.7,4.64,6.58,6.48l-.19.19h0Zm-24.04-.19l.19.19c1.84-1.88,4.81-4.83,6.49-6.56,1.68-1.72,1.26-2.64,1.46-3.83.18-1.03.63-1.1,1.03-.98.33.1.55.7.16,1.06,1.23-.4,1.06-1.88.46-2.16.47-.21.73-.93.52-1.39-.18.65-1.19.57-1.78.99-1.49,1.04-1,2.36-1.08,3.7-.04.61-.27,1.35-1.13,2.27-1.59,1.73-4.43,4.75-6.32,6.71h0Zm6.91-17.71c.93.85,1.66,1.09,2.27,1.13,1.34.08,2.65-.41,3.7,1.08.42.59.34,1.6.99,1.78-.46.21-1.17-.05-1.39-.52-.28.6-1.76.77-2.16-.46.36.39.96.17,1.06-.16.12-.4.05-.85-.98-1.03-1.19-.2-2.11.21-3.83-1.46-1.73-1.68-4.69-4.66-6.56-6.49l.19-.19c1.97,1.89,4.99,4.73,6.71,6.32Z" opacity=".2" style="fill:#a3836b;fill-rule:evenodd;stroke-width:0"/><path d="m276.39,108.22l-.19-.19c-1.84,1.88-4.8,4.85-6.48,6.58-1.67,1.72-1.26,2.64-1.46,3.83-.18,1.03-.63,1.1-1.03.98-.33-.1-.55-.7-.16-1.06-1.23.4-1.06,1.88-.46,2.16-.47.21-.73.93-.52,1.39.18-.65,1.19-.57,1.78-.99,1.49-1.04,1-2.36,1.08-3.7.04-.61.27-1.35,1.13-2.27,1.59-1.73,4.42-4.76,6.31-6.73h0Zm-12.1,11.12c-.44,0-.8.36-.8.8s.36.8.8.8.8-.36.8-.8-.36-.8-.8-.8h0Zm11.93,12.91c-1.97-1.89-5-4.72-6.73-6.31-.93-.85-1.66-1.09-2.27-1.13-1.34-.08-2.65.41-3.7-1.08-.42-.59-.34-1.6-.99-1.78.46-.21,1.17.05,1.39.52.28-.6,1.76-.77,2.16.46-.36-.39-.96-.17-1.06.16-.12.4-.05.85.98,1.03,1.19.2,2.11-.21,3.83,1.46,1.73,1.68,4.7,4.64,6.58,6.48l-.19.19h0Zm-24.04-.19l.19.19c1.84-1.88,4.81-4.83,6.49-6.56,1.68-1.72,1.26-2.64,1.46-3.83.18-1.03.63-1.1,1.03-.98.33.1.55.7.16,1.06,1.23-.4,1.06-1.88.46-2.16.47-.21.73-.93.52-1.39-.18.65-1.19.57-1.78.99-1.49,1.04-1,2.36-1.08,3.7-.04.61-.27,1.35-1.13,2.27-1.59,1.73-4.43,4.75-6.32,6.71h0Zm6.91-17.71c.93.85,1.66,1.09,2.27,1.13,1.34.08,2.65-.41,3.7,1.08.42.59.34,1.6.99,1.78-.46.21-1.17-.05-1.39-.52-.28.6-1.76.77-2.16-.46.36.39.96.17,1.06-.16.12-.4.05-.85-.98-1.03-1.19-.2-2.11.21-3.83-1.46-1.73-1.68-4.69-4.66-6.56-6.49l.19-.19c1.97,1.89,4.99,4.73,6.71,6.32Z" opacity=".2" style="fill:#a3836b;fill-rule:evenodd;stroke-width:0"/><path d="m288.31,91.78c-.89-.54-1.9-.27-2.93-.33-.61-.04-1.35-.27-2.27-1.13-1.73-1.59-4.75-4.43-6.71-6.32l-.19.19c1.88,1.84,4.83,4.81,6.56,6.49,1.72,1.68,2.64,1.26,3.83,1.46,1.03.18,1.1.63.98,1.03-.1.33-.7.55-1.06.16.3.94,1.24,1.06,1.79.8v-2.35h0Zm0,3.54c-.44,0-.8.36-.8.8s.36.8.8.8v-1.61h0Zm0,2.79c-.17.08-.3.2-.37.34-.21-.47-.93-.73-1.39-.52.65.18.57,1.19.99,1.78.24.35.5.58.77.75v-2.35h0Zm-5.79,3.21c.85-.93,1.09-1.66,1.13-2.27.08-1.34-.41-2.65,1.08-3.7.59-.42,1.6-.34,1.78-.99.21.46-.05,1.17-.52,1.39.6.28.77,1.76-.46,2.16.39-.36.17-.96-.16-1.06-.4-.12-.85-.05-1.03.98-.2,1.19.21,2.11-1.46,3.83-1.68,1.73-4.66,4.69-6.49,6.56l-.19-.19c1.89-1.97,4.73-4.99,6.32-6.71Z" opacity=".2" style="fill:#a3836b;fill-rule:evenodd;stroke-width:0"/><path d="m204.3,132.25l-.19-.19c-1.84,1.88-4.8,4.85-6.48,6.58-1.67,1.72-1.26,2.64-1.46,3.83-.18,1.03-.63,1.1-1.03.98-.33-.1-.55-.7-.16-1.06-1.23.4-1.06,1.88-.46,2.16-.47.21-.73.93-.52,1.39.18-.65,1.19-.57,1.78-.99,1.49-1.04,1-2.36,1.08-3.7.04-.61.27-1.35,1.13-2.27,1.59-1.73,4.42-4.76,6.31-6.73h0Zm-12.1,16.27v-2.35c.55-.26,1.49-.14,1.79.8-.36-.39-.96-.17-1.06.16-.12.4-.05.85.98,1.03,1.19.2,2.11-.21,3.83,1.46,1.73,1.68,4.7,4.64,6.58,6.48l-.19.19c-1.97-1.89-5-4.72-6.73-6.31-.93-.85-1.66-1.09-2.27-1.13-1.03-.06-2.04.21-2.93-.33h0Zm0-3.54c.44,0,.8-.36.8-.8s-.36-.8-.8-.8v1.61h0Zm0-5.14c.27.16.53.4.77.75.42.59.34,1.6.99,1.78-.46.21-1.17-.05-1.39-.52-.07.14-.2.26-.37.34v-2.35Z" opacity=".2" style="fill:#a3836b;fill-rule:evenodd;stroke-width:0"/><path d="m228.33,156.28l-.19-.19c-1.84,1.88-4.8,4.85-6.48,6.58-1.67,1.72-1.26,2.64-1.46,3.83-.18,1.03-.63,1.1-1.03.98-.33-.1-.55-.7-.16-1.06-1.23.4-1.06,1.88-.46,2.16-.47.21-.73.93-.52,1.39.18-.65,1.19-.57,1.78-.99,1.49-1.04,1-2.36,1.08-3.7.04-.61.27-1.35,1.13-2.27,1.59-1.73,4.42-4.76,6.31-6.73h0Zm-12.1,11.12c-.44,0-.8.36-.8.8s.36.8.8.8.8-.36.8-.8-.36-.8-.8-.8h0Zm11.93,12.91c-1.97-1.89-5-4.72-6.73-6.31-.93-.85-1.66-1.09-2.27-1.13-1.34-.08-2.65.41-3.7-1.08-.42-.59-.34-1.6-.99-1.78.46-.21,1.17.05,1.39.52.28-.6,1.76-.77,2.16.46-.36-.39-.96-.17-1.06.16-.12.4-.05.85.98,1.03,1.19.2,2.11-.21,3.83,1.46,1.73,1.68,4.7,4.64,6.58,6.48l-.19.19h0Zm-24.04-.19l.19.19c1.84-1.88,4.81-4.83,6.49-6.56,1.68-1.72,1.26-2.64,1.46-3.83.18-1.03.63-1.1,1.03-.98.33.1.55.7.16,1.06,1.23-.4,1.06-1.88.46-2.16.47-.21.73-.93.52-1.39-.18.65-1.19.57-1.78.99-1.49,1.04-1,2.36-1.08,3.7-.04.61-.27,1.35-1.13,2.27-1.59,1.73-4.43,4.75-6.32,6.71h0Zm6.91-17.71c.93.85,1.66,1.09,2.27,1.13,1.34.08,2.65-.41,3.7,1.08.42.59.34,1.6.99,1.78-.46.21-1.17-.05-1.39-.52-.28.6-1.76.77-2.16-.46.36.39.96.17,1.06-.16.12-.4.05-.85-.98-1.03-1.19-.2-2.11.21-3.83-1.46-1.73-1.68-4.69-4.66-6.56-6.49l.19-.19c1.97,1.89,4.99,4.73,6.71,6.32Z" opacity=".2" style="fill:#a3836b;fill-rule:evenodd;stroke-width:0"/><path d="m252.36,132.25l-.19-.19c-1.84,1.88-4.8,4.85-6.48,6.58-1.67,1.72-1.26,2.64-1.46,3.83-.18,1.03-.63,1.1-1.03.98-.33-.1-.55-.7-.16-1.06-1.23.4-1.06,1.88-.46,2.16-.47.21-.73.93-.52,1.39.18-.65,1.19-.57,1.78-.99,1.49-1.04,1-2.36,1.08-3.7.04-.61.27-1.35,1.13-2.27,1.59-1.73,4.42-4.76,6.31-6.73h0Zm-12.1,11.12c-.44,0-.8.36-.8.8s.36.8.8.8.8-.36.8-.8-.36-.8-.8-.8h0Zm11.93,12.91c-1.97-1.89-5-4.72-6.73-6.31-.93-.85-1.66-1.09-2.27-1.13-1.34-.08-2.65.41-3.7-1.08-.42-.59-.34-1.6-.99-1.78.46-.21,1.17.05,1.39.52.28-.6,1.76-.77,2.16.46-.36-.39-.96-.17-1.06.16-.12.4-.05.85.98,1.03,1.19.2,2.11-.21,3.83,1.46,1.73,1.68,4.7,4.64,6.58,6.48l-.19.19h0Zm-24.04-.19l.19.19c1.84-1.88,4.81-4.83,6.49-6.56,1.68-1.72,1.26-2.64,1.46-3.83.18-1.03.63-1.1,1.03-.98.33.1.55.7.16,1.06,1.23-.4,1.06-1.88.46-2.16.47-.21.73-.93.52-1.39-.18.65-1.19.57-1.78.99-1.49,1.04-1,2.36-1.08,3.7-.04.61-.27,1.35-1.13,2.27-1.59,1.73-4.43,4.75-6.32,6.71h0Zm6.91-17.71c.93.85,1.66,1.09,2.27,1.13,1.34.08,2.65-.41,3.7,1.08.42.59.34,1.6.99,1.78-.46.21-1.17-.05-1.39-.52-.28.6-1.76.77-2.16-.46.36.39.96.17,1.06-.16.12-.4.05-.85-.98-1.03-1.19-.2-2.11.21-3.83-1.46-1.73-1.68-4.69-4.66-6.56-6.49l.19-.19c1.97,1.89,4.99,4.73,6.71,6.32Z" opacity=".2" style="fill:#a3836b;fill-rule:evenodd;stroke-width:0"/><path d="m276.39,156.28l-.19-.19c-1.84,1.88-4.8,4.85-6.48,6.58-1.67,1.72-1.26,2.64-1.46,3.83-.18,1.03-.63,1.1-1.03.98-.33-.1-.55-.7-.16-1.06-1.23.4-1.06,1.88-.46,2.16-.47.21-.73.93-.52,1.39.18-.65,1.19-.57,1.78-.99,1.49-1.04,1-2.36,1.08-3.7.04-.61.27-1.35,1.13-2.27,1.59-1.73,4.42-4.76,6.31-6.73h0Zm-12.1,11.12c-.44,0-.8.36-.8.8s.36.8.8.8.8-.36.8-.8-.36-.8-.8-.8h0Zm11.93,12.91c-1.97-1.89-5-4.72-6.73-6.31-.93-.85-1.66-1.09-2.27-1.13-1.34-.08-2.65.41-3.7-1.08-.42-.59-.34-1.6-.99-1.78.46-.21,1.17.05,1.39.52.28-.6,1.76-.77,2.16.46-.36-.39-.96-.17-1.06.16-.12.4-.05.85.98,1.03,1.19.2,2.11-.21,3.83,1.46,1.73,1.68,4.7,4.64,6.58,6.48l-.19.19h0Zm-24.04-.19l.19.19c1.84-1.88,4.81-4.83,6.49-6.56,1.68-1.72,1.26-2.64,1.46-3.83.18-1.03.63-1.1,1.03-.98.33.1.55.7.16,1.06,1.23-.4,1.06-1.88.46-2.16.47-.21.73-.93.52-1.39-.18.65-1.19.57-1.78.99-1.49,1.04-1,2.36-1.08,3.7-.04.61-.27,1.35-1.13,2.27-1.59,1.73-4.43,4.75-6.32,6.71h0Zm6.91-17.71c.93.85,1.66,1.09,2.27,1.13,1.34.08,2.65-.41,3.7,1.08.42.59.34,1.6.99,1.78-.46.21-1.17-.05-1.39-.52-.28.6-1.76.77-2.16-.46.36.39.96.17,1.06-.16.12-.4.05-.85-.98-1.03-1.19-.2-2.11.21-3.83-1.46-1.73-1.68-4.69-4.66-6.56-6.49l.19-.19c1.97,1.89,4.99,4.73,6.71,6.32Z" opacity=".2" style="fill:#a3836b;fill-rule:evenodd;stroke-width:0"/><path d="m288.31,139.83c-.89-.54-1.9-.27-2.93-.33-.61-.04-1.35-.27-2.27-1.13-1.73-1.59-4.75-4.43-6.71-6.32l-.19.19c1.88,1.84,4.83,4.81,6.56,6.49,1.72,1.68,2.64,1.26,3.83,1.46,1.03.18,1.1.63.98,1.03-.1.33-.7.55-1.06.16.3.94,1.24,1.06,1.79.8v-2.35h0Zm0,3.54c-.44,0-.8.36-.8.8s.36.8.8.8v-1.61h0Zm0,2.79c-.17.08-.3.2-.37.34-.21-.47-.93-.73-1.39-.52.65.18.57,1.19.99,1.78.24.35.5.58.77.75v-2.35h0Zm-5.79,3.21c.85-.93,1.09-1.66,1.13-2.27.08-1.34-.41-2.65,1.08-3.7.59-.42,1.6-.34,1.78-.99.21.46-.05,1.17-.52,1.39.6.28.77,1.76-.46,2.16.39-.36.17-.96-.16-1.06-.4-.12-.85-.05-1.03.98-.2,1.19.21,2.11-1.46,3.83-1.68,1.73-4.66,4.69-6.49,6.56l-.19-.19c1.89-1.97,4.73-4.99,6.32-6.71Z" opacity=".2" style="fill:#a3836b;fill-rule:evenodd;stroke-width:0"/><path d="m204.3,180.31l-.19-.19c-1.84,1.88-4.8,4.85-6.48,6.58-1.67,1.72-1.26,2.64-1.46,3.83-.18,1.03-.63,1.1-1.03.98-.33-.1-.55-.7-.16-1.06-1.23.4-1.06,1.88-.46,2.16-.47.21-.73.93-.52,1.39.18-.65,1.19-.57,1.78-.99,1.49-1.04,1-2.36,1.08-3.7.04-.61.27-1.35,1.13-2.27,1.59-1.73,4.42-4.76,6.31-6.73h0Zm-12.1,16.27v-2.35c.55-.26,1.49-.14,1.79.8-.36-.39-.96-.17-1.06.16-.12.4-.05.85.98,1.03,1.19.2,2.11-.21,3.83,1.46,1.73,1.68,4.7,4.64,6.58,6.48l-.19.19c-1.97-1.89-5-4.72-6.73-6.31-.93-.85-1.66-1.09-2.27-1.13-1.03-.06-2.04.21-2.93-.33h0Zm0-3.54c.44,0,.8-.36.8-.8s-.36-.8-.8-.8v1.61h0Zm0-5.14c.27.16.53.4.77.75.42.59.34,1.6.99,1.78-.46.21-1.17-.05-1.39-.52-.07.14-.2.26-.37.34v-2.35Z" opacity=".2" style="fill:#a3836b;fill-rule:evenodd;stroke-width:0"/><path d="m228.33,204.33l-.19-.19c-1.84,1.88-4.8,4.85-6.48,6.58-1.67,1.72-1.26,2.64-1.46,3.83-.18,1.03-.63,1.1-1.03.98-.33-.1-.55-.7-.16-1.06-1.23.4-1.06,1.88-.46,2.16-.47.21-.73.93-.52,1.39.18-.65,1.19-.57,1.78-.99,1.49-1.04,1-2.36,1.08-3.7.04-.61.27-1.35,1.13-2.27,1.59-1.73,4.42-4.76,6.31-6.73h0Zm-12.1,11.12c-.44,0-.8.36-.8.8s.36.8.8.8.8-.36.8-.8-.36-.8-.8-.8h0Zm11.93,12.91c-1.97-1.89-5-4.72-6.73-6.31-.93-.85-1.66-1.09-2.27-1.13-1.34-.08-2.65.41-3.7-1.08-.42-.59-.34-1.6-.99-1.78.46-.21,1.17.05,1.39.52.28-.6,1.76-.77,2.16.46-.36-.39-.96-.17-1.06.16-.12.4-.05.85.98,1.03,1.19.2,2.11-.21,3.83,1.46,1.73,1.68,4.7,4.64,6.58,6.48l-.19.19h0Zm-24.04-.19l.19.19c1.84-1.88,4.81-4.83,6.49-6.56,1.68-1.72,1.26-2.64,1.46-3.83.18-1.03.63-1.1,1.03-.98.33.1.55.7.16,1.06,1.23-.4,1.06-1.88.46-2.16.47-.21.73-.93.52-1.39-.18.65-1.19.57-1.78.99-1.49,1.04-1,2.36-1.08,3.7-.04.61-.27,1.35-1.13,2.27-1.59,1.73-4.43,4.75-6.32,6.71h0Zm6.91-17.71c.93.85,1.66,1.09,2.27,1.13,1.34.08,2.65-.41,3.7,1.08.42.59.34,1.6.99,1.78-.46.21-1.17-.05-1.39-.52-.28.6-1.76.77-2.16-.46.36.39.96.17,1.06-.16.12-.4.05-.85-.98-1.03-1.19-.2-2.11.21-3.83-1.46-1.73-1.68-4.69-4.66-6.56-6.49l.19-.19c1.97,1.89,4.99,4.73,6.71,6.32Z" opacity=".2" style="fill:#a3836b;fill-rule:evenodd;stroke-width:0"/><path d="m252.36,180.31l-.19-.19c-1.84,1.88-4.8,4.85-6.48,6.58-1.67,1.72-1.26,2.64-1.46,3.83-.18,1.03-.63,1.1-1.03.98-.33-.1-.55-.7-.16-1.06-1.23.4-1.06,1.88-.46,2.16-.47.21-.73.93-.52,1.39.18-.65,1.19-.57,1.78-.99,1.49-1.04,1-2.36,1.08-3.7.04-.61.27-1.35,1.13-2.27,1.59-1.73,4.42-4.76,6.31-6.73h0Zm-12.1,11.12c-.44,0-.8.36-.8.8s.36.8.8.8.8-.36.8-.8-.36-.8-.8-.8h0Zm11.93,12.91c-1.97-1.89-5-4.72-6.73-6.31-.93-.85-1.66-1.09-2.27-1.13-1.34-.08-2.65.41-3.7-1.08-.42-.59-.34-1.6-.99-1.78.46-.21,1.17.05,1.39.52.28-.6,1.76-.77,2.16.46-.36-.39-.96-.17-1.06.16-.12.4-.05.85.98,1.03,1.19.2,2.11-.21,3.83,1.46,1.73,1.68,4.7,4.64,6.58,6.48l-.19.19h0Zm-24.04-.19l.19.19c1.84-1.88,4.81-4.83,6.49-6.56,1.68-1.72,1.26-2.64,1.46-3.83.18-1.03.63-1.1,1.03-.98.33.1.55.7.16,1.06,1.23-.4,1.06-1.88.46-2.16.47-.21.73-.93.52-1.39-.18.65-1.19.57-1.78.99-1.49,1.04-1,2.36-1.08,3.7-.04.61-.27,1.35-1.13,2.27-1.59,1.73-4.43,4.75-6.32,6.71h0Zm6.91-17.71c.93.85,1.66,1.09,2.27,1.13,1.34.08,2.65-.41,3.7,1.08.42.59.34,1.6.99,1.78-.46.21-1.17-.05-1.39-.52-.28.6-1.76.77-2.16-.46.36.39.96.17,1.06-.16.12-.4.05-.85-.98-1.03-1.19-.2-2.11.21-3.83-1.46-1.73-1.68-4.69-4.66-6.56-6.49l.19-.19c1.97,1.89,4.99,4.73,6.71,6.32Z" opacity=".2" style="fill:#a3836b;fill-rule:evenodd;stroke-width:0"/><path d="m276.39,204.33l-.19-.19c-1.84,1.88-4.8,4.85-6.48,6.58-1.67,1.72-1.26,2.64-1.46,3.83-.18,1.03-.63,1.1-1.03.98-.33-.1-.55-.7-.16-1.06-1.23.4-1.06,1.88-.46,2.16-.47.21-.73.93-.52,1.39.18-.65,1.19-.57,1.78-.99,1.49-1.04,1-2.36,1.08-3.7.04-.61.27-1.35,1.13-2.27,1.59-1.73,4.42-4.76,6.31-6.73h0Zm-12.1,11.12c-.44,0-.8.36-.8.8s.36.8.8.8.8-.36.8-.8-.36-.8-.8-.8h0Zm11.93,12.91c-1.97-1.89-5-4.72-6.73-6.31-.93-.85-1.66-1.09-2.27-1.13-1.34-.08-2.65.41-3.7-1.08-.42-.59-.34-1.6-.99-1.78.46-.21,1.17.05,1.39.52.28-.6,1.76-.77,2.16.46-.36-.39-.96-.17-1.06.16-.12.4-.05.85.98,1.03,1.19.2,2.11-.21,3.83,1.46,1.73,1.68,4.7,4.64,6.58,6.48l-.19.19h0Zm-24.04-.19l.19.19c1.84-1.88,4.81-4.83,6.49-6.56,1.68-1.72,1.26-2.64,1.46-3.83.18-1.03.63-1.1,1.03-.98.33.1.55.7.16,1.06,1.23-.4,1.06-1.88.46-2.16.47-.21.73-.93.52-1.39-.18.65-1.19.57-1.78.99-1.49,1.04-1,2.36-1.08,3.7-.04.61-.27,1.35-1.13,2.27-1.59,1.73-4.43,4.75-6.32,6.71h0Zm6.91-17.71c.93.85,1.66,1.09,2.27,1.13,1.34.08,2.65-.41,3.7,1.08.42.59.34,1.6.99,1.78-.46.21-1.17-.05-1.39-.52-.28.6-1.76.77-2.16-.46.36.39.96.17,1.06-.16.12-.4.05-.85-.98-1.03-1.19-.2-2.11.21-3.83-1.46-1.73-1.68-4.69-4.66-6.56-6.49l.19-.19c1.97,1.89,4.99,4.73,6.71,6.32Z" opacity=".2" style="fill:#a3836b;fill-rule:evenodd;stroke-width:0"/><path d="m288.31,187.89c-.89-.54-1.9-.27-2.93-.33-.61-.04-1.35-.27-2.27-1.13-1.73-1.59-4.75-4.43-6.71-6.32l-.19.19c1.88,1.84,4.83,4.81,6.56,6.49,1.72,1.68,2.64,1.26,3.83,1.46,1.03.18,1.1.63.98,1.03-.1.33-.7.55-1.06.16.3.94,1.24,1.06,1.79.8v-2.35h0Zm0,3.54c-.44,0-.8.36-.8.8s.36.8.8.8v-1.61h0Zm0,2.79c-.17.08-.3.2-.37.34-.21-.47-.93-.73-1.39-.52.65.18.57,1.19.99,1.78.24.35.5.58.77.75v-2.35h0Zm-5.79,3.21c.85-.93,1.09-1.66,1.13-2.27.08-1.34-.41-2.65,1.08-3.7.59-.42,1.6-.34,1.78-.99.21.46-.05,1.17-.52,1.39.6.28.77,1.76-.46,2.16.39-.36.17-.96-.16-1.06-.4-.12-.85-.05-1.03.98-.2,1.19.21,2.11-1.46,3.83-1.68,1.73-4.66,4.69-6.49,6.56l-.19-.19c1.89-1.97,4.73-4.99,6.32-6.71Z" opacity=".2" style="fill:#a3836b;fill-rule:evenodd;stroke-width:0"/><path d="m204.3,228.36l-.19-.19c-1.84,1.88-4.8,4.85-6.48,6.58-1.67,1.72-1.26,2.64-1.46,3.83-.18,1.03-.63,1.1-1.03.98-.33-.1-.55-.7-.16-1.06-1.23.4-1.06,1.88-.46,2.16-.47.21-.73.93-.52,1.39.18-.65,1.19-.57,1.78-.99,1.49-1.04,1-2.36,1.08-3.7.04-.61.27-1.35,1.13-2.27,1.59-1.73,4.42-4.76,6.31-6.73h0Zm-12.1,16.27v-2.35c.55-.26,1.49-.14,1.79.8-.36-.39-.96-.17-1.06.16-.12.4-.05.85.98,1.03,1.19.2,2.11-.21,3.83,1.46,1.73,1.68,4.7,4.64,6.58,6.48l-.19.19c-1.97-1.89-5-4.72-6.73-6.31-.93-.85-1.66-1.09-2.27-1.13-1.03-.06-2.04.21-2.93-.33h0Zm0-3.54c.44,0,.8-.36.8-.8s-.36-.8-.8-.8v1.61h0Zm0-5.14c.27.16.53.4.77.75.42.59.34,1.6.99,1.78-.46.21-1.17-.05-1.39-.52-.07.14-.2.26-.37.34v-2.35Z" opacity=".2" style="fill:#a3836b;fill-rule:evenodd;stroke-width:0"/><path d="m228.33,252.39l-.19-.19c-1.84,1.88-4.8,4.85-6.48,6.58-1.67,1.72-1.26,2.64-1.46,3.83-.18,1.03-.63,1.1-1.03.98-.33-.1-.55-.7-.16-1.06-1.23.4-1.06,1.88-.46,2.16-.47.21-.73.93-.52,1.39.18-.65,1.19-.57,1.78-.99,1.49-1.04,1-2.36,1.08-3.7.04-.61.27-1.35,1.13-2.27,1.59-1.73,4.42-4.76,6.31-6.73h0Zm-12.1,11.12c-.44,0-.8.36-.8.8s.36.8.8.8.8-.36.8-.8-.36-.8-.8-.8h0Zm11.93,12.91c-1.97-1.89-5-4.72-6.73-6.31-.93-.85-1.66-1.09-2.27-1.13-1.34-.08-2.65.41-3.7-1.08-.42-.59-.34-1.6-.99-1.78.46-.21,1.17.05,1.39.52.28-.6,1.76-.77,2.16.46-.36-.39-.96-.17-1.06.16-.12.4-.05.85.98,1.03,1.19.2,2.11-.21,3.83,1.46,1.73,1.68,4.7,4.64,6.58,6.48l-.19.19h0Zm-24.04-.19l.19.19c1.84-1.88,4.81-4.83,6.49-6.56,1.68-1.72,1.26-2.64,1.46-3.83.18-1.03.63-1.1,1.03-.98.33.1.55.7.16,1.06,1.23-.4,1.06-1.88.46-2.16.47-.21.73-.93.52-1.39-.18.65-1.19.57-1.78.99-1.49,1.04-1,2.36-1.08,3.7-.04.61-.27,1.35-1.13,2.27-1.59,1.73-4.43,4.75-6.32,6.71h0Zm6.91-17.71c.93.85,1.66,1.09,2.27,1.13,1.34.08,2.65-.41,3.7,1.08.42.59.34,1.6.99,1.78-.46.21-1.17-.05-1.39-.52-.28.6-1.76.77-2.16-.46.36.39.96.17,1.06-.16.12-.4.05-.85-.98-1.03-1.19-.2-2.11.21-3.83-1.46-1.73-1.68-4.69-4.66-6.56-6.49l.19-.19c1.97,1.89,4.99,4.73,6.71,6.32Z" opacity=".2" style="fill:#a3836b;fill-rule:evenodd;stroke-width:0"/><path d="m252.36,228.36l-.19-.19c-1.84,1.88-4.8,4.85-6.48,6.58-1.67,1.72-1.26,2.64-1.46,3.83-.18,1.03-.63,1.1-1.03.98-.33-.1-.55-.7-.16-1.06-1.23.4-1.06,1.88-.46,2.16-.47.21-.73.93-.52,1.39.18-.65,1.19-.57,1.78-.99,1.49-1.04,1-2.36,1.08-3.7.04-.61.27-1.35,1.13-2.27,1.59-1.73,4.42-4.76,6.31-6.73h0Zm-12.1,11.12c-.44,0-.8.36-.8.8s.36.8.8.8.8-.36.8-.8-.36-.8-.8-.8h0Zm11.93,12.91c-1.97-1.89-5-4.72-6.73-6.31-.93-.85-1.66-1.09-2.27-1.13-1.34-.08-2.65.41-3.7-1.08-.42-.59-.34-1.6-.99-1.78.46-.21,1.17.05,1.39.52.28-.6,1.76-.77,2.16.46-.36-.39-.96-.17-1.06.16-.12.4-.05.85.98,1.03,1.19.2,2.11-.21,3.83,1.46,1.73,1.68,4.7,4.64,6.58,6.48l-.19.19h0Zm-24.04-.19l.19.19c1.84-1.88,4.81-4.83,6.49-6.56,1.68-1.72,1.26-2.64,1.46-3.83.18-1.03.63-1.1,1.03-.98.33.1.55.7.16,1.06,1.23-.4,1.06-1.88.46-2.16.47-.21.73-.93.52-1.39-.18.65-1.19.57-1.78.99-1.49,1.04-1,2.36-1.08,3.7-.04.61-.27,1.35-1.13,2.27-1.59,1.73-4.43,4.75-6.32,6.71h0Zm6.91-17.71c.93.85,1.66,1.09,2.27,1.13,1.34.08,2.65-.41,3.7,1.08.42.59.34,1.6.99,1.78-.46.21-1.17-.05-1.39-.52-.28.6-1.76.77-2.16-.46.36.39.96.17,1.06-.16.12-.4.05-.85-.98-1.03-1.19-.2-2.11.21-3.83-1.46-1.73-1.68-4.69-4.66-6.56-6.49l.19-.19c1.97,1.89,4.99,4.73,6.71,6.32Z" opacity=".2" style="fill:#a3836b;fill-rule:evenodd;stroke-width:0"/><path d="m276.39,252.39l-.19-.19c-1.84,1.88-4.8,4.85-6.48,6.58-1.67,1.72-1.26,2.64-1.46,3.83-.18,1.03-.63,1.1-1.03.98-.33-.1-.55-.7-.16-1.06-1.23.4-1.06,1.88-.46,2.16-.47.21-.73.93-.52,1.39.18-.65,1.19-.57,1.78-.99,1.49-1.04,1-2.36,1.08-3.7.04-.61.27-1.35,1.13-2.27,1.59-1.73,4.42-4.76,6.31-6.73h0Zm-12.1,11.12c-.44,0-.8.36-.8.8s.36.8.8.8.8-.36.8-.8-.36-.8-.8-.8h0Zm11.93,12.91c-1.97-1.89-5-4.72-6.73-6.31-.93-.85-1.66-1.09-2.27-1.13-1.34-.08-2.65.41-3.7-1.08-.42-.59-.34-1.6-.99-1.78.46-.21,1.17.05,1.39.52.28-.6,1.76-.77,2.16.46-.36-.39-.96-.17-1.06.16-.12.4-.05.85.98,1.03,1.19.2,2.11-.21,3.83,1.46,1.73,1.68,4.7,4.64,6.58,6.48l-.19.19h0Zm-24.04-.19l.19.19c1.84-1.88,4.81-4.83,6.49-6.56,1.68-1.72,1.26-2.64,1.46-3.83.18-1.03.63-1.1,1.03-.98.33.1.55.7.16,1.06,1.23-.4,1.06-1.88.46-2.16.47-.21.73-.93.52-1.39-.18.65-1.19.57-1.78.99-1.49,1.04-1,2.36-1.08,3.7-.04.61-.27,1.35-1.13,2.27-1.59,1.73-4.43,4.75-6.32,6.71h0Zm6.91-17.71c.93.85,1.66,1.09,2.27,1.13,1.34.08,2.65-.41,3.7,1.08.42.59.34,1.6.99,1.78-.46.21-1.17-.05-1.39-.52-.28.6-1.76.77-2.16-.46.36.39.96.17,1.06-.16.12-.4.05-.85-.98-1.03-1.19-.2-2.11.21-3.83-1.46-1.73-1.68-4.69-4.66-6.56-6.49l.19-.19c1.97,1.89,4.99,4.73,6.71,6.32Z" opacity=".2" style="fill:#a3836b;fill-rule:evenodd;stroke-width:0"/><path d="m288.31,235.95c-.89-.54-1.9-.27-2.93-.33-.61-.04-1.35-.27-2.27-1.13-1.73-1.59-4.75-4.43-6.71-6.32l-.19.19c1.88,1.84,4.83,4.81,6.56,6.49,1.72,1.68,2.64,1.26,3.83,1.46,1.03.18,1.1.63.98,1.03-.1.33-.7.55-1.06.16.3.94,1.24,1.06,1.79.8v-2.35h0Zm0,3.54c-.44,0-.8.36-.8.8s.36.8.8.8v-1.61h0Zm0,2.79c-.17.08-.3.2-.37.34-.21-.47-.93-.73-1.39-.52.65.18.57,1.19.99,1.78.24.35.5.58.77.75v-2.35h0Zm-5.79,3.21c.85-.93,1.09-1.66,1.13-2.27.08-1.34-.41-2.65,1.08-3.7.59-.42,1.6-.34,1.78-.99.21.46-.05,1.17-.52,1.39.6.28.77,1.76-.46,2.16.39-.36.17-.96-.16-1.06-.4-.12-.85-.05-1.03.98-.2,1.19.21,2.11-1.46,3.83-1.68,1.73-4.66,4.69-6.49,6.56l-.19-.19c1.89-1.97,4.73-4.99,6.32-6.71Z" opacity=".2" style="fill:#a3836b;fill-rule:evenodd;stroke-width:0"/><path d="m204.3,276.42l-.19-.19c-1.84,1.88-4.8,4.85-6.48,6.58-1.67,1.72-1.26,2.64-1.46,3.83-.18,1.03-.63,1.1-1.03.98-.33-.1-.55-.7-.16-1.06-.93.3-1.06,1.24-.8,1.79h2.36c.54-.89.26-1.9.32-2.92.04-.61.27-1.35,1.13-2.27,1.59-1.73,4.42-4.76,6.31-6.73h0Zm-11.3,11.92c0-.44-.36-.8-.8-.8v.8h.8Zm-.8-4.33c.27.16.53.4.77.75.42.59.34,1.6.99,1.78-.46.21-1.17-.05-1.39-.52-.07.14-.2.26-.37.34v-2.35Z" opacity=".2" style="fill:#a3836b;fill-rule:evenodd;stroke-width:0"/><path d="m252.36,276.42l-.19-.19c-1.84,1.88-4.8,4.85-6.48,6.58-1.67,1.72-1.26,2.64-1.46,3.83-.18,1.03-.63,1.1-1.03.98-.33-.1-.55-.7-.16-1.06-.93.3-1.06,1.24-.8,1.79h2.36c.54-.89.26-1.9.32-2.92.04-.61.27-1.35,1.13-2.27,1.59-1.73,4.42-4.76,6.31-6.73h0Zm-11.3,11.92c0-.44-.36-.8-.8-.8s-.8.36-.8.8h1.61Zm-2.8,0c-.08-.17-.2-.3-.34-.36.47-.21.73-.93.52-1.39-.18.65-1.19.57-1.78.99-.34.24-.58.5-.74.76h2.34Zm-3.21-5.79c.93.85,1.66,1.09,2.27,1.13,1.34.08,2.65-.41,3.7,1.08.42.59.34,1.6.99,1.78-.46.21-1.17-.05-1.39-.52-.28.6-1.76.77-2.16-.46.36.39.96.17,1.06-.16.12-.4.05-.85-.98-1.03-1.19-.2-2.11.22-3.83-1.46-1.73-1.68-4.69-4.66-6.56-6.49l.19-.19c1.97,1.89,4.99,4.73,6.71,6.32Z" opacity=".2" style="fill:#a3836b;fill-rule:evenodd;stroke-width:0"/><path d="m288.31,284c-.89-.54-1.9-.27-2.93-.33-.61-.04-1.35-.27-2.27-1.13-1.73-1.59-4.75-4.43-6.71-6.32l-.19.19c1.88,1.84,4.83,4.81,6.56,6.49,1.72,1.68,2.64,1.26,3.83,1.46,1.03.18,1.1.63.98,1.03-.1.33-.7.55-1.06.16.3.94,1.24,1.06,1.79.8v-2.35h0Zm0,3.54c-.44,0-.8.36-.8.8h.8v-.8h0Zm-4.34.8c.16-.27.4-.52.74-.76.59-.42,1.6-.34,1.78-.99.21.46-.05,1.17-.52,1.39.14.06.26.19.34.36h-2.34Z" opacity=".2" style="fill:#a3836b;fill-rule:evenodd;stroke-width:0"/></pattern></defs><g id="Layer_1-2"><rect width="1090.91" height="771.7" style="fill:url(#New_Pattern);stroke-width:0"/></g></svg>