<?xml version="1.0" encoding="UTF-8"?><svg  id="Layer_2" xmlns="http://www.w3.org/2000/svg" viewBox="0 0 125.53 125.54"><g id="_2"><path d="m1.89,0c-.07.12-.18.23-.33.34-.26.18-.7.15-.78.43-.09-.2.02-.51.23-.6-.06-.03-.11-.09-.15-.16h1.03ZM0,0h.35c0,.2-.16.35-.35.35v-.35h0Zm0,1.89c.39.24.83.12,1.27.14.27.02.59.12.99.49.75.69,2.07,1.92,2.93,2.75l.08-.08c-.82-.8-2.11-2.09-2.86-2.82-.75-.73-1.15-.55-1.67-.64-.45-.08-.48-.27-.43-.45.04-.14.31-.24.46-.07-.13-.41-.54-.46-.78-.35v1.02Z"  opacity="0.2" style="fill:#a2826b; fill-rule:evenodd; stroke-width:0px;"/><path d="m15.73,5.27c-.82.86-2.05,2.18-2.75,2.93-.37.4-.47.72-.49.99-.04.58.18,1.16-.47,1.61-.26.18-.7.15-.78.43-.09-.2.02-.51.23-.6-.26-.12-.34-.77.2-.94-.17.16-.07.42.07.46.17.05.37.02.45-.43.09-.52-.09-.92.64-1.67.73-.75,2.02-2.05,2.82-2.86l.08.08h0Zm-5.27,4.84c.19,0,.35.16.35.35s-.16.35-.35.35-.35-.16-.35-.35.16-.35.35-.35h0Zm5.19,5.62l.08-.08c-.82-.8-2.11-2.09-2.86-2.82-.75-.73-1.15-.55-1.67-.64-.45-.08-.48-.27-.43-.45.04-.14.31-.24.46-.07-.17-.53-.82-.46-.94-.2-.09-.21-.41-.32-.6-.23.28.08.25.52.43.78.45.65,1.03.43,1.61.47.27.02.59.12.99.49.75.69,2.07,1.92,2.93,2.75h0Zm-10.47-.08c.82-.86,2.06-2.17,2.75-2.92.37-.4.47-.72.49-.99.04-.58-.18-1.16.47-1.61.26-.18.7-.15.78-.43.09.2-.02.51-.23.6.26.12.34.77-.2.94.17-.16.07-.42-.07-.46-.17-.05-.37-.02-.45.43-.09.52.09.92-.64,1.67-.73.75-2.03,2.04-2.83,2.86l-.08-.08h0Zm.09-10.46l-.08.08c.82.8,2.1,2.09,2.86,2.83.75.73,1.15.55,1.67.64.45.08.48.27.43.45-.04.14-.31.24-.46.07.17.53.82.46.94.2.09.21.41.32.6.23-.28-.08-.25-.52-.43-.78-.45-.65-1.03-.43-1.61-.47-.27-.02-.59-.12-.99-.49-.75-.69-2.07-1.93-2.92-2.75Z" opacity="0.2" style="fill:#a2826b; fill-rule:evenodd; stroke-width:0px;"/><path d="m22.82,0c-.07.12-.18.23-.33.34-.26.18-.7.15-.78.43-.09-.2.02-.51.23-.6-.06-.03-.11-.09-.15-.16h1.03Zm-3.78,0h1.02c.12.24.06.65-.35.78.17-.16.07-.42-.07-.46-.17-.05-.37-.02-.45.43-.09.52.09.92-.64,1.67-.73.75-2.03,2.04-2.83,2.86l-.08-.08c.82-.86,2.06-2.17,2.75-2.92.37-.4.47-.72.49-.99.03-.45-.09-.89.14-1.28h0Zm1.54,0h.7c0,.2-.16.35-.35.35s-.35-.16-.35-.35h0Zm5.54,5.27l.08-.08c-.82-.8-2.11-2.09-2.86-2.82-.75-.73-1.15-.55-1.67-.64-.45-.08-.48-.27-.43-.45.04-.14.31-.24.46-.07-.17-.53-.82-.46-.94-.2-.09-.21-.41-.32-.6-.23.28.08.25.52.43.78.45.65,1.03.43,1.61.47.27.02.59.12.99.49.75.69,2.07,1.92,2.93,2.75Z" opacity="0.2" style="fill:#a2826b; fill-rule:evenodd; stroke-width:0px;"/><path d="m36.65,5.27c-.82.86-2.05,2.18-2.75,2.93-.37.4-.47.72-.49.99-.04.58.18,1.16-.47,1.61-.26.18-.7.15-.78.43-.09-.2.02-.51.23-.6-.26-.12-.34-.77.2-.94-.17.16-.07.42.07.46.17.05.37.02.45-.43.09-.52-.09-.92.64-1.67.73-.75,2.02-2.05,2.82-2.86l.08.08h0Zm-5.27,4.84c.19,0,.35.16.35.35s-.16.35-.35.35-.35-.16-.35-.35.16-.35.35-.35h0Zm5.19,5.62l.08-.08c-.82-.8-2.11-2.09-2.86-2.82-.75-.73-1.15-.55-1.67-.64-.45-.08-.48-.27-.43-.45.04-.14.31-.24.46-.07-.17-.53-.82-.46-.94-.2-.09-.21-.41-.32-.6-.23.28.08.25.52.43.78.45.65,1.03.43,1.61.47.27.02.59.12.99.49.75.69,2.07,1.92,2.93,2.75h0Zm-10.47-.08c.82-.86,2.06-2.17,2.75-2.92.37-.4.47-.72.49-.99.04-.58-.18-1.16.47-1.61.26-.18.7-.15.78-.43.09.2-.02.51-.23.6.26.12.34.77-.2.94.17-.16.07-.42-.07-.46-.17-.05-.37-.02-.45.43-.09.52.09.92-.64,1.67-.73.75-2.03,2.04-2.83,2.86l-.08-.08h0Zm.09-10.46l-.08.08c.82.8,2.1,2.09,2.86,2.83.75.73,1.15.55,1.67.64.45.08.48.27.43.45-.04.14-.31.24-.46.07.17.53.82.46.94.2.09.21.41.32.6.23-.28-.08-.25-.52-.43-.78-.45-.65-1.03-.43-1.61-.47-.27-.02-.59-.12-.99-.49-.75-.69-2.07-1.93-2.92-2.75Z" opacity="0.2" style="fill:#a2826b; fill-rule:evenodd; stroke-width:0px;"/><path d="m39.96,0h1.02c.12.24.06.65-.35.78.17-.16.07-.42-.07-.46-.17-.05-.37-.02-.45.43-.09.52.09.92-.64,1.67-.73.75-2.03,2.04-2.83,2.86l-.08-.08c.82-.86,2.06-2.17,2.75-2.92.37-.4.47-.72.49-.99.03-.45-.09-.89.14-1.28h0Zm1.54,0h.35v.35c-.19,0-.35-.16-.35-.35h0Zm.35.87c-.07.04-.13.09-.16.15-.09-.21-.41-.32-.6-.23.28.08.25.52.43.78.11.15.22.25.33.33V.87Z" opacity="0.2" style="fill:#a2826b; fill-rule:evenodd; stroke-width:0px;"/><path d="m5.27,15.73c-.82.86-2.05,2.18-2.75,2.93-.37.4-.47.72-.49.99-.04.58.18,1.16-.47,1.61-.26.18-.7.15-.78.43-.09-.2.02-.51.23-.6-.26-.12-.34-.77.2-.94-.17.16-.07.42.07.46.17.05.37.02.45-.43.09-.52-.09-.92.64-1.67.73-.75,2.02-2.05,2.82-2.86l.08.08h0ZM0,22.82c.39.24.83.12,1.27.14.27.02.59.12.99.49.75.69,2.07,1.92,2.93,2.75l.08-.08c-.82-.8-2.11-2.09-2.86-2.82-.75-.73-1.15-.55-1.67-.64-.45-.08-.48-.27-.43-.45.04-.14.31-.24.46-.07-.13-.41-.54-.46-.78-.35v1.02h0Zm0-1.54v-.7c.19,0,.35.16.35.35s-.16.35-.35.35h0Zm0-1.22c.07-.04.13-.09.16-.15.09.21.41.32.6.23-.28-.08-.25-.52-.43-.78-.11-.15-.22-.25-.33-.33v1.02Z" opacity="0.2" style="fill:#a2826b; fill-rule:evenodd; stroke-width:0px;"/><path d="m15.73,26.2c-.82.86-2.05,2.18-2.75,2.93-.37.4-.47.72-.49.99-.04.58.18,1.16-.47,1.61-.26.18-.7.15-.78.43-.09-.2.02-.51.23-.6-.26-.12-.34-.77.2-.94-.17.16-.07.42.07.46.17.05.37.02.45-.43.09-.52-.09-.92.64-1.67.73-.75,2.02-2.05,2.82-2.86l.08.08h0Zm-5.27,4.84c.19,0,.35.16.35.35s-.16.35-.35.35-.35-.16-.35-.35.16-.35.35-.35h0Zm5.19,5.62l.08-.08c-.82-.8-2.11-2.09-2.86-2.82-.75-.73-1.15-.55-1.67-.64-.45-.08-.48-.27-.43-.45.04-.14.31-.24.46-.07-.17-.53-.82-.46-.94-.2-.09-.21-.41-.32-.6-.23.28.08.25.52.43.78.45.65,1.03.43,1.61.47.27.02.59.12.99.49.75.69,2.07,1.92,2.93,2.75h0Zm-10.47-.08c.82-.86,2.06-2.17,2.75-2.92.37-.4.47-.72.49-.99.04-.58-.18-1.16.47-1.61.26-.18.7-.15.78-.43.09.2-.02.51-.23.6.26.12.34.77-.2.94.17-.16.07-.42-.07-.46-.17-.05-.37-.02-.45.43-.09.52.09.92-.64,1.67-.73.75-2.03,2.04-2.83,2.86l-.08-.08h0Zm.09-10.46l-.08.08c.82.8,2.1,2.09,2.86,2.83.75.73,1.15.55,1.67.64.45.08.48.27.43.45-.04.14-.31.24-.46.07.17.53.82.46.94.2.09.21.41.32.6.23-.28-.08-.25-.52-.43-.78-.45-.65-1.03-.43-1.61-.47-.27-.02-.59-.12-.99-.49-.75-.69-2.07-1.93-2.92-2.75Z" opacity="0.2" style="fill:#a2826b; fill-rule:evenodd; stroke-width:0px;"/><path d="m26.19,15.73c-.82.86-2.05,2.18-2.75,2.93-.37.4-.47.72-.49.99-.04.58.18,1.16-.47,1.61-.26.18-.7.15-.78.43-.09-.2.02-.51.23-.6-.26-.12-.34-.77.2-.94-.17.16-.07.42.07.46.17.05.37.02.45-.43.09-.52-.09-.92.64-1.67.73-.75,2.02-2.05,2.82-2.86l.08.08h0Zm-5.27,4.84c.19,0,.35.16.35.35s-.16.35-.35.35-.35-.16-.35-.35.16-.35.35-.35h0Zm5.19,5.62l.08-.08c-.82-.8-2.11-2.09-2.86-2.82-.75-.73-1.15-.55-1.67-.64-.45-.08-.48-.27-.43-.45.04-.14.31-.24.46-.07-.17-.53-.82-.46-.94-.2-.09-.21-.41-.32-.6-.23.28.08.25.52.43.78.45.65,1.03.43,1.61.47.27.02.59.12.99.49.75.69,2.07,1.92,2.93,2.75h0Zm-10.47-.08c.82-.86,2.06-2.17,2.75-2.92.37-.4.47-.72.49-.99.04-.58-.18-1.16.47-1.61.26-.18.7-.15.78-.43.09.2-.02.51-.23.6.26.12.34.77-.2.94.17-.16.07-.42-.07-.46-.17-.05-.37-.02-.45.43-.09.52.09.92-.64,1.67-.73.75-2.03,2.04-2.83,2.86l-.08-.08h0Zm.09-10.46l-.08.08c.82.8,2.1,2.09,2.86,2.83.75.73,1.15.55,1.67.64.45.08.48.27.43.45-.04.14-.31.24-.46.07.17.53.82.46.94.2.09.21.41.32.6.23-.28-.08-.25-.52-.43-.78-.45-.65-1.03-.43-1.61-.47-.27-.02-.59-.12-.99-.49-.75-.69-2.07-1.93-2.92-2.75Z" opacity="0.2" style="fill:#a2826b; fill-rule:evenodd; stroke-width:0px;"/><path d="m36.65,26.2c-.82.86-2.05,2.18-2.75,2.93-.37.4-.47.72-.49.99-.04.58.18,1.16-.47,1.61-.26.18-.7.15-.78.43-.09-.2.02-.51.23-.6-.26-.12-.34-.77.2-.94-.17.16-.07.42.07.46.17.05.37.02.45-.43.09-.52-.09-.92.64-1.67.73-.75,2.02-2.05,2.82-2.86l.08.08h0Zm-5.27,4.84c.19,0,.35.16.35.35s-.16.35-.35.35-.35-.16-.35-.35.16-.35.35-.35h0Zm5.19,5.62l.08-.08c-.82-.8-2.11-2.09-2.86-2.82-.75-.73-1.15-.55-1.67-.64-.45-.08-.48-.27-.43-.45.04-.14.31-.24.46-.07-.17-.53-.82-.46-.94-.2-.09-.21-.41-.32-.6-.23.28.08.25.52.43.78.45.65,1.03.43,1.61.47.27.02.59.12.99.49.75.69,2.07,1.92,2.93,2.75h0Zm-10.47-.08c.82-.86,2.06-2.17,2.75-2.92.37-.4.47-.72.49-.99.04-.58-.18-1.16.47-1.61.26-.18.7-.15.78-.43.09.2-.02.51-.23.6.26.12.34.77-.2.94.17-.16.07-.42-.07-.46-.17-.05-.37-.02-.45.43-.09.52.09.92-.64,1.67-.73.75-2.03,2.04-2.83,2.86l-.08-.08h0Zm.09-10.46l-.08.08c.82.8,2.1,2.09,2.86,2.83.75.73,1.15.55,1.67.64.45.08.48.27.43.45-.04.14-.31.24-.46.07.17.53.82.46.94.2.09.21.41.32.6.23-.28-.08-.25-.52-.43-.78-.45-.65-1.03-.43-1.61-.47-.27-.02-.59-.12-.99-.49-.75-.69-2.07-1.93-2.92-2.75Z" opacity="0.2" style="fill:#a2826b; fill-rule:evenodd; stroke-width:0px;"/><path d="m41.85,19.04v1.02c-.24.11-.65.06-.78-.35.16.17.42.07.46-.07.05-.17.02-.37-.43-.45-.52-.09-.92.09-1.67-.64-.75-.73-2.04-2.03-2.86-2.83l.08-.08c.86.82,2.17,2.06,2.92,2.75.4.37.72.47.99.49.45.03.89-.09,1.27.14h0Zm0,1.54v.7c-.19,0-.35-.16-.35-.35s.16-.35.35-.35h0Zm0,1.22v1.02c-.12-.07-.23-.18-.33-.33-.18-.26-.15-.7-.43-.78.2-.09.51.02.6.23.03-.06.09-.11.16-.15h0Zm-5.27,4.32l.08.08c.8-.82,2.1-2.11,2.83-2.86.73-.75.55-1.15.64-1.67.08-.45.27-.48.45-.43.14.04.24.31.07.46.53-.17.46-.82.2-.94.21-.09.32-.41.23-.6-.08.28-.52.25-.78.43-.65.45-.43,1.03-.47,1.61-.02.26-.12.59-.49.99-.69.75-1.93,2.07-2.75,2.92Z" opacity="0.2" style="fill:#a2826b; fill-rule:evenodd; stroke-width:0px;"/><path d="m5.27,36.66c-.82.86-2.05,2.18-2.75,2.93-.37.4-.47.72-.49.99-.04.58.18,1.16-.47,1.61-.26.18-.7.15-.78.43-.09-.2.02-.51.23-.6-.26-.12-.34-.77.2-.94-.17.16-.07.42.07.46.17.05.37.02.45-.43.09-.52-.09-.92.64-1.67.73-.75,2.02-2.05,2.82-2.86l.08.08h0Zm-5.27,7.08c.39.24.83.12,1.27.14.27.02.59.12.99.49.75.69,2.07,1.92,2.93,2.75l.08-.08c-.82-.8-2.11-2.09-2.86-2.82-.75-.73-1.15-.55-1.67-.64-.45-.08-.48-.27-.43-.45.04-.14.31-.24.46-.07-.13-.41-.54-.46-.78-.35v1.02h0Zm0-1.54v-.7c.19,0,.35.16.35.35s-.16.35-.35.35h0Zm0-1.22c.07-.04.13-.09.16-.15.09.21.41.32.6.23-.28-.08-.25-.52-.43-.78-.11-.15-.22-.25-.33-.33v1.02Z" opacity="0.2" style="fill:#a2826b; fill-rule:evenodd; stroke-width:0px;"/><path d="m15.73,47.12c-.82.86-2.05,2.18-2.75,2.93-.37.4-.47.72-.49.99-.04.58.18,1.16-.47,1.61-.26.18-.7.15-.78.43-.09-.2.02-.51.23-.6-.26-.12-.34-.77.2-.94-.17.16-.07.42.07.46.17.05.37.02.45-.43.09-.52-.09-.92.64-1.67.73-.75,2.02-2.05,2.82-2.86l.08.08h0Zm-5.27,4.84c.19,0,.35.16.35.35s-.16.35-.35.35-.35-.16-.35-.35.16-.35.35-.35h0Zm5.19,5.62l.08-.08c-.82-.8-2.11-2.09-2.86-2.82-.75-.73-1.15-.55-1.67-.64-.45-.08-.48-.27-.43-.45.04-.14.31-.24.46-.07-.17-.53-.82-.46-.94-.2-.09-.21-.41-.32-.6-.23.28.08.25.52.43.78.45.65,1.03.43,1.61.47.27.02.59.12.99.49.75.69,2.07,1.92,2.93,2.75h0Zm-10.47-.08c.82-.86,2.06-2.17,2.75-2.92.37-.4.47-.72.49-.99.04-.58-.18-1.16.47-1.61.26-.18.7-.15.78-.43.09.2-.02.51-.23.6.26.12.34.77-.2.94.17-.16.07-.42-.07-.46-.17-.05-.37-.02-.45.43-.09.52.09.92-.64,1.67-.73.75-2.03,2.04-2.83,2.86l-.08-.08h0Zm.09-10.46l-.08.08c.82.8,2.1,2.09,2.86,2.83.75.73,1.15.55,1.67.64.45.08.48.27.43.45-.04.14-.31.24-.46.07.17.53.82.46.94.2.09.21.41.32.6.23-.28-.08-.25-.52-.43-.78-.45-.65-1.03-.43-1.61-.47-.27-.02-.59-.12-.99-.49-.75-.69-2.07-1.93-2.92-2.75Z" opacity="0.2" style="fill:#a2826b; fill-rule:evenodd; stroke-width:0px;"/><path d="m26.19,36.66c-.82.86-2.05,2.18-2.75,2.93-.37.4-.47.72-.49.99-.04.58.18,1.16-.47,1.61-.26.18-.7.15-.78.43-.09-.2.02-.51.23-.6-.26-.12-.34-.77.2-.94-.17.16-.07.42.07.46.17.05.37.02.45-.43.09-.52-.09-.92.64-1.67.73-.75,2.02-2.05,2.82-2.86l.08.08h0Zm-5.27,4.84c.19,0,.35.16.35.35s-.16.35-.35.35-.35-.16-.35-.35.16-.35.35-.35h0Zm5.19,5.62l.08-.08c-.82-.8-2.11-2.09-2.86-2.82-.75-.73-1.15-.55-1.67-.64-.45-.08-.48-.27-.43-.45.04-.14.31-.24.46-.07-.17-.53-.82-.46-.94-.2-.09-.21-.41-.32-.6-.23.28.08.25.52.43.78.45.65,1.03.43,1.61.47.27.02.59.12.99.49.75.69,2.07,1.92,2.93,2.75h0Zm-10.47-.08c.82-.86,2.06-2.17,2.75-2.92.37-.4.47-.72.49-.99.04-.58-.18-1.16.47-1.61.26-.18.7-.15.78-.43.09.2-.02.51-.23.6.26.12.34.77-.2.94.17-.16.07-.42-.07-.46-.17-.05-.37-.02-.45.43-.09.52.09.92-.64,1.67-.73.75-2.03,2.04-2.83,2.86l-.08-.08h0Zm.09-10.46l-.08.08c.82.8,2.1,2.09,2.86,2.83.75.73,1.15.55,1.67.64.45.08.48.27.43.45-.04.14-.31.24-.46.07.17.53.82.46.94.2.09.21.41.32.6.23-.28-.08-.25-.52-.43-.78-.45-.65-1.03-.43-1.61-.47-.27-.02-.59-.12-.99-.49-.75-.69-2.07-1.93-2.92-2.75Z" opacity="0.2" style="fill:#a2826b; fill-rule:evenodd; stroke-width:0px;"/><path d="m36.65,47.12c-.82.86-2.05,2.18-2.75,2.93-.37.4-.47.72-.49.99-.04.58.18,1.16-.47,1.61-.26.18-.7.15-.78.43-.09-.2.02-.51.23-.6-.26-.12-.34-.77.2-.94-.17.16-.07.42.07.46.17.05.37.02.45-.43.09-.52-.09-.92.64-1.67.73-.75,2.02-2.05,2.82-2.86l.08.08h0Zm-5.27,4.84c.19,0,.35.16.35.35s-.16.35-.35.35-.35-.16-.35-.35.16-.35.35-.35h0Zm5.19,5.62l.08-.08c-.82-.8-2.11-2.09-2.86-2.82-.75-.73-1.15-.55-1.67-.64-.45-.08-.48-.27-.43-.45.04-.14.31-.24.46-.07-.17-.53-.82-.46-.94-.2-.09-.21-.41-.32-.6-.23.28.08.25.52.43.78.45.65,1.03.43,1.61.47.27.02.59.12.99.49.75.69,2.07,1.92,2.93,2.75h0Zm-10.47-.08c.82-.86,2.06-2.17,2.75-2.92.37-.4.47-.72.49-.99.04-.58-.18-1.16.47-1.61.26-.18.7-.15.78-.43.09.2-.02.51-.23.6.26.12.34.77-.2.94.17-.16.07-.42-.07-.46-.17-.05-.37-.02-.45.43-.09.52.09.92-.64,1.67-.73.75-2.03,2.04-2.83,2.86l-.08-.08h0Zm.09-10.46l-.08.08c.82.8,2.1,2.09,2.86,2.83.75.73,1.15.55,1.67.64.45.08.48.27.43.45-.04.14-.31.24-.46.07.17.53.82.46.94.2.09.21.41.32.6.23-.28-.08-.25-.52-.43-.78-.45-.65-1.03-.43-1.61-.47-.27-.02-.59-.12-.99-.49-.75-.69-2.07-1.93-2.92-2.75Z" opacity="0.2" style="fill:#a2826b; fill-rule:evenodd; stroke-width:0px;"/><path d="m41.85,39.96v1.02c-.24.11-.65.06-.78-.35.16.17.42.07.46-.07.05-.17.02-.37-.43-.45-.52-.09-.92.09-1.67-.64-.75-.73-2.04-2.03-2.86-2.83l.08-.08c.86.82,2.17,2.06,2.92,2.75.4.37.72.47.99.49.45.03.89-.09,1.27.14h0Zm0,1.54v.7c-.19,0-.35-.16-.35-.35s.16-.35.35-.35h0Zm0,1.22v1.02c-.12-.07-.23-.18-.33-.33-.18-.26-.15-.7-.43-.78.2-.09.51.02.6.23.03-.06.09-.11.16-.15h0Zm-5.27,4.32l.08.08c.8-.82,2.1-2.11,2.83-2.86.73-.75.55-1.15.64-1.67.08-.45.27-.48.45-.43.14.04.24.31.07.46.53-.17.46-.82.2-.94.21-.09.32-.41.23-.6-.08.28-.52.25-.78.43-.65.45-.43,1.03-.47,1.61-.02.26-.12.59-.49.99-.69.75-1.93,2.07-2.75,2.92Z" opacity="0.2" style="fill:#a2826b; fill-rule:evenodd; stroke-width:0px;"/><path d="m5.27,57.58c-.82.86-2.05,2.18-2.75,2.93-.37.4-.47.72-.49.99-.04.58.18,1.16-.47,1.61-.26.18-.7.15-.78.43-.09-.2.02-.51.23-.6-.26-.12-.34-.77.2-.94-.17.16-.07.42.07.46.17.05.37.02.45-.43.09-.52-.09-.92.64-1.67.73-.75,2.02-2.05,2.82-2.86l.08.08h0Zm-5.27,7.08c.39.24.83.12,1.27.14.27.02.59.12.99.49.75.69,2.07,1.92,2.93,2.75l.08-.08c-.82-.8-2.11-2.09-2.86-2.82-.75-.73-1.15-.55-1.67-.64-.45-.08-.48-.27-.43-.45.04-.14.31-.24.46-.07-.13-.41-.54-.46-.78-.35v1.02h0Zm0-1.54v-.7c.19,0,.35.16.35.35s-.16.35-.35.35h0Zm0-1.22c.07-.04.13-.09.16-.15.09.21.41.32.6.23-.28-.08-.25-.52-.43-.78-.11-.15-.22-.25-.33-.33v1.02Z" opacity="0.2" style="fill:#a2826b; fill-rule:evenodd; stroke-width:0px;"/><path d="m15.73,68.04c-.82.86-2.05,2.18-2.75,2.93-.37.4-.47.72-.49.99-.04.58.18,1.16-.47,1.61-.26.18-.7.15-.78.43-.09-.2.02-.51.23-.6-.26-.12-.34-.77.2-.94-.17.16-.07.42.07.46.17.05.37.02.45-.43.09-.52-.09-.92.64-1.67.73-.75,2.02-2.05,2.82-2.86l.08.08h0Zm-5.27,4.84c.19,0,.35.16.35.35s-.16.35-.35.35-.35-.16-.35-.35.16-.35.35-.35h0Zm5.19,5.62l.08-.08c-.82-.8-2.11-2.09-2.86-2.82-.75-.73-1.15-.55-1.67-.64-.45-.08-.48-.27-.43-.45.04-.14.31-.24.46-.07-.17-.53-.82-.46-.94-.2-.09-.21-.41-.32-.6-.23.28.08.25.52.43.78.45.65,1.03.43,1.61.47.27.02.59.12.99.49.75.69,2.07,1.92,2.93,2.75h0Zm-10.47-.08c.82-.86,2.06-2.17,2.75-2.92.37-.4.47-.72.49-.99.04-.58-.18-1.16.47-1.61.26-.18.7-.15.78-.43.09.2-.02.51-.23.6.26.12.34.77-.2.94.17-.16.07-.42-.07-.46-.17-.05-.37-.02-.45.43-.09.52.09.92-.64,1.67-.73.75-2.03,2.04-2.83,2.86l-.08-.08h0Zm.09-10.46l-.08.08c.82.8,2.1,2.09,2.86,2.83.75.73,1.15.55,1.67.64.45.08.48.27.43.45-.04.14-.31.24-.46.07.17.53.82.46.94.2.09.21.41.32.6.23-.28-.08-.25-.52-.43-.78-.45-.65-1.03-.43-1.61-.47-.27-.02-.59-.12-.99-.49-.75-.69-2.07-1.93-2.92-2.75Z" opacity="0.2" style="fill:#a2826b; fill-rule:evenodd; stroke-width:0px;"/><path d="m26.19,57.58c-.82.86-2.05,2.18-2.75,2.93-.37.4-.47.72-.49.99-.04.58.18,1.16-.47,1.61-.26.18-.7.15-.78.43-.09-.2.02-.51.23-.6-.26-.12-.34-.77.2-.94-.17.16-.07.42.07.46.17.05.37.02.45-.43.09-.52-.09-.92.64-1.67.73-.75,2.02-2.05,2.82-2.86l.08.08h0Zm-5.27,4.84c.19,0,.35.16.35.35s-.16.35-.35.35-.35-.16-.35-.35.16-.35.35-.35h0Zm5.19,5.62l.08-.08c-.82-.8-2.11-2.09-2.86-2.82-.75-.73-1.15-.55-1.67-.64-.45-.08-.48-.27-.43-.45.04-.14.31-.24.46-.07-.17-.53-.82-.46-.94-.2-.09-.21-.41-.32-.6-.23.28.08.25.52.43.78.45.65,1.03.43,1.61.47.27.02.59.12.99.49.75.69,2.07,1.92,2.93,2.75h0Zm-10.47-.08c.82-.86,2.06-2.17,2.75-2.92.37-.4.47-.72.49-.99.04-.58-.18-1.16.47-1.61.26-.18.7-.15.78-.43.09.2-.02.51-.23.6.26.12.34.77-.2.94.17-.16.07-.42-.07-.46-.17-.05-.37-.02-.45.43-.09.52.09.92-.64,1.67-.73.75-2.03,2.04-2.83,2.86l-.08-.08h0Zm.09-10.46l-.08.08c.82.8,2.1,2.09,2.86,2.83.75.73,1.15.55,1.67.64.45.08.48.27.43.45-.04.14-.31.24-.46.07.17.53.82.46.94.2.09.21.41.32.6.23-.28-.08-.25-.52-.43-.78-.45-.65-1.03-.43-1.61-.47-.27-.02-.59-.12-.99-.49-.75-.69-2.07-1.93-2.92-2.75Z" opacity="0.2" style="fill:#a2826b; fill-rule:evenodd; stroke-width:0px;"/><path d="m36.65,68.04c-.82.86-2.05,2.18-2.75,2.93-.37.4-.47.72-.49.99-.04.58.18,1.16-.47,1.61-.26.18-.7.15-.78.43-.09-.2.02-.51.23-.6-.26-.12-.34-.77.2-.94-.17.16-.07.42.07.46.17.05.37.02.45-.43.09-.52-.09-.92.64-1.67.73-.75,2.02-2.05,2.82-2.86l.08.08h0Zm-5.27,4.84c.19,0,.35.16.35.35s-.16.35-.35.35-.35-.16-.35-.35.16-.35.35-.35h0Zm5.19,5.62l.08-.08c-.82-.8-2.11-2.09-2.86-2.82-.75-.73-1.15-.55-1.67-.64-.45-.08-.48-.27-.43-.45.04-.14.31-.24.46-.07-.17-.53-.82-.46-.94-.2-.09-.21-.41-.32-.6-.23.28.08.25.52.43.78.45.65,1.03.43,1.61.47.27.02.59.12.99.49.75.69,2.07,1.92,2.93,2.75h0Zm-10.47-.08c.82-.86,2.06-2.17,2.75-2.92.37-.4.47-.72.49-.99.04-.58-.18-1.16.47-1.61.26-.18.7-.15.78-.43.09.2-.02.51-.23.6.26.12.34.77-.2.94.17-.16.07-.42-.07-.46-.17-.05-.37-.02-.45.43-.09.52.09.92-.64,1.67-.73.75-2.03,2.04-2.83,2.86l-.08-.08h0Zm.09-10.46l-.08.08c.82.8,2.1,2.09,2.86,2.83.75.73,1.15.55,1.67.64.45.08.48.27.43.45-.04.14-.31.24-.46.07.17.53.82.46.94.2.09.21.41.32.6.23-.28-.08-.25-.52-.43-.78-.45-.65-1.03-.43-1.61-.47-.27-.02-.59-.12-.99-.49-.75-.69-2.07-1.93-2.92-2.75Z" opacity="0.2" style="fill:#a2826b; fill-rule:evenodd; stroke-width:0px;"/><path d="m41.85,60.88v1.02c-.24.11-.65.06-.78-.35.16.17.42.07.46-.07.05-.17.02-.37-.43-.45-.52-.09-.92.09-1.67-.64-.75-.73-2.04-2.03-2.86-2.83l.08-.08c.86.82,2.17,2.06,2.92,2.75.4.37.72.47.99.49.45.03.89-.09,1.27.14h0Zm0,1.54v.7c-.19,0-.35-.16-.35-.35s.16-.35.35-.35h0Zm0,1.22v1.02c-.12-.07-.23-.18-.33-.33-.18-.26-.15-.7-.43-.78.2-.09.51.02.6.23.03-.06.09-.11.16-.15h0Zm-5.27,4.32l.08.08c.8-.82,2.1-2.11,2.83-2.86.73-.75.55-1.15.64-1.67.08-.45.27-.48.45-.43.14.04.24.31.07.46.53-.17.46-.82.2-.94.21-.09.32-.41.23-.6-.08.28-.52.25-.78.43-.65.45-.43,1.03-.47,1.61-.02.27-.12.59-.49.99-.69.75-1.93,2.07-2.75,2.92Z" opacity="0.2" style="fill:#a2826b; fill-rule:evenodd; stroke-width:0px;"/><path d="m5.27,78.51c-.82.86-2.05,2.18-2.75,2.93-.37.4-.47.72-.49.99-.04.58.18,1.16-.47,1.61-.26.18-.7.15-.78.43-.09-.2.02-.51.23-.6-.26-.12-.34-.77.2-.94-.17.16-.07.42.07.46.17.05.37.02.45-.43.09-.52-.09-.92.64-1.67.73-.75,2.02-2.05,2.82-2.86l.08.08h0Zm-5.27,7.08c.39.24.83.12,1.27.14.27.02.59.12.99.49.75.69,2.07,1.92,2.93,2.75l.08-.08c-.82-.8-2.11-2.09-2.86-2.82-.75-.73-1.15-.55-1.67-.64-.45-.08-.48-.27-.43-.45.04-.14.31-.24.46-.07-.13-.41-.54-.46-.78-.35v1.02h0Zm0-1.54v-.7c.19,0,.35.16.35.35s-.16.35-.35.35h0Zm0-1.22c.07-.04.13-.09.16-.15.09.21.41.32.6.23-.28-.08-.25-.52-.43-.78-.11-.15-.22-.25-.33-.33v1.02Z" opacity="0.2" style="fill:#a2826b; fill-rule:evenodd; stroke-width:0px;"/><path d="m15.73,88.97c-.82.86-2.05,2.18-2.75,2.93-.37.4-.47.72-.49.99-.04.58.18,1.16-.47,1.61-.26.18-.7.15-.78.43-.09-.2.02-.51.23-.6-.26-.12-.34-.77.2-.94-.17.16-.07.42.07.46.17.05.37.02.45-.43.09-.52-.09-.92.64-1.67.73-.75,2.02-2.05,2.82-2.86l.08.08h0Zm-5.27,4.84c.19,0,.35.16.35.35s-.16.35-.35.35-.35-.16-.35-.35.16-.35.35-.35h0Zm5.19,5.62l.08-.08c-.82-.8-2.11-2.09-2.86-2.82-.75-.73-1.15-.55-1.67-.64-.45-.08-.48-.27-.43-.45.04-.14.31-.24.46-.07-.17-.53-.82-.46-.94-.2-.09-.21-.41-.32-.6-.23.28.08.25.52.43.78.45.65,1.03.43,1.61.47.27.02.59.12.99.49.75.69,2.07,1.92,2.93,2.75h0Zm-10.47-.08c.82-.86,2.06-2.17,2.75-2.92.37-.4.47-.72.49-.99.04-.58-.18-1.16.47-1.61.26-.18.7-.15.78-.43.09.2-.02.51-.23.6.26.12.34.77-.2.94.17-.16.07-.42-.07-.46-.17-.05-.37-.02-.45.43-.09.52.09.92-.64,1.67-.73.75-2.03,2.04-2.83,2.86l-.08-.08h0Zm.09-10.46l-.08.08c.82.8,2.1,2.09,2.86,2.83.75.73,1.15.55,1.67.64.45.08.48.27.43.45-.04.14-.31.24-.46.07.17.53.82.46.94.2.09.21.41.32.6.23-.28-.08-.25-.52-.43-.78-.45-.65-1.03-.43-1.61-.47-.27-.02-.59-.12-.99-.49-.75-.69-2.07-1.93-2.92-2.75Z" opacity="0.2" style="fill:#a2826b; fill-rule:evenodd; stroke-width:0px;"/><path d="m26.19,78.51c-.82.86-2.05,2.18-2.75,2.93-.37.4-.47.72-.49.99-.04.58.18,1.16-.47,1.61-.26.18-.7.15-.78.43-.09-.2.02-.51.23-.6-.26-.12-.34-.77.2-.94-.17.16-.07.42.07.46.17.05.37.02.45-.43.09-.52-.09-.92.64-1.67.73-.75,2.02-2.05,2.82-2.86l.08.08h0Zm-5.27,4.84c.19,0,.35.16.35.35s-.16.35-.35.35-.35-.16-.35-.35.16-.35.35-.35h0Zm5.19,5.62l.08-.08c-.82-.8-2.11-2.09-2.86-2.82-.75-.73-1.15-.55-1.67-.64-.45-.08-.48-.27-.43-.45.04-.14.31-.24.46-.07-.17-.53-.82-.46-.94-.2-.09-.21-.41-.32-.6-.23.28.08.25.52.43.78.45.65,1.03.43,1.61.47.27.02.59.12.99.49.75.69,2.07,1.92,2.93,2.75h0Zm-10.47-.08c.82-.86,2.06-2.17,2.75-2.92.37-.4.47-.72.49-.99.04-.58-.18-1.16.47-1.61.26-.18.7-.15.78-.43.09.2-.02.51-.23.6.26.12.34.77-.2.94.17-.16.07-.42-.07-.46-.17-.05-.37-.02-.45.43-.09.52.09.92-.64,1.67-.73.75-2.03,2.04-2.83,2.86l-.08-.08h0Zm.09-10.46l-.08.08c.82.8,2.1,2.09,2.86,2.83.75.73,1.15.55,1.67.64.45.08.48.27.43.45-.04.14-.31.24-.46.07.17.53.82.46.94.2.09.21.41.32.6.23-.28-.08-.25-.52-.43-.78-.45-.65-1.03-.43-1.61-.47-.27-.02-.59-.12-.99-.49-.75-.69-2.07-1.93-2.92-2.75Z" opacity="0.2" style="fill:#a2826b; fill-rule:evenodd; stroke-width:0px;"/><path d="m36.65,88.97c-.82.86-2.05,2.18-2.75,2.93-.37.4-.47.72-.49.99-.04.58.18,1.16-.47,1.61-.26.18-.7.15-.78.43-.09-.2.02-.51.23-.6-.26-.12-.34-.77.2-.94-.17.16-.07.42.07.46.17.05.37.02.45-.43.09-.52-.09-.92.64-1.67.73-.75,2.02-2.05,2.82-2.86l.08.08h0Zm-5.27,4.84c.19,0,.35.16.35.35s-.16.35-.35.35-.35-.16-.35-.35.16-.35.35-.35h0Zm5.19,5.62l.08-.08c-.82-.8-2.11-2.09-2.86-2.82-.75-.73-1.15-.55-1.67-.64-.45-.08-.48-.27-.43-.45.04-.14.31-.24.46-.07-.17-.53-.82-.46-.94-.2-.09-.21-.41-.32-.6-.23.28.08.25.52.43.78.45.65,1.03.43,1.61.47.27.02.59.12.99.49.75.69,2.07,1.92,2.93,2.75h0Zm-10.47-.08c.82-.86,2.06-2.17,2.75-2.92.37-.4.47-.72.49-.99.04-.58-.18-1.16.47-1.61.26-.18.7-.15.78-.43.09.2-.02.51-.23.6.26.12.34.77-.2.94.17-.16.07-.42-.07-.46-.17-.05-.37-.02-.45.43-.09.52.09.92-.64,1.67-.73.75-2.03,2.04-2.83,2.86l-.08-.08h0Zm.09-10.46l-.08.08c.82.8,2.1,2.09,2.86,2.83.75.73,1.15.55,1.67.64.45.08.48.27.43.45-.04.14-.31.24-.46.07.17.53.82.46.94.2.09.21.41.32.6.23-.28-.08-.25-.52-.43-.78-.45-.65-1.03-.43-1.61-.47-.27-.02-.59-.12-.99-.49-.75-.69-2.07-1.93-2.92-2.75Z" opacity="0.2" style="fill:#a2826b; fill-rule:evenodd; stroke-width:0px;"/><path d="m41.85,81.81v1.02c-.24.11-.65.06-.78-.35.16.17.42.07.46-.07.05-.17.02-.37-.43-.45-.52-.09-.92.09-1.67-.64-.75-.73-2.04-2.03-2.86-2.83l.08-.08c.86.82,2.17,2.06,2.92,2.75.4.37.72.47.99.49.45.03.89-.09,1.27.14h0Zm0,1.54v.7c-.19,0-.35-.16-.35-.35s.16-.35.35-.35h0Zm0,1.22v1.02c-.12-.07-.23-.18-.33-.33-.18-.26-.15-.7-.43-.78.2-.09.51.02.6.23.03-.06.09-.11.16-.15h0Zm-5.27,4.32l.08.08c.8-.82,2.1-2.11,2.83-2.86.73-.75.55-1.15.64-1.67.08-.45.27-.48.45-.43.14.04.24.31.07.46.53-.17.46-.82.2-.94.21-.09.32-.41.23-.6-.08.28-.52.25-.78.43-.65.45-.43,1.03-.47,1.61-.02.27-.12.59-.49.99-.69.75-1.93,2.07-2.75,2.92Z" opacity="0.2" style="fill:#a2826b; fill-rule:evenodd; stroke-width:0px;"/><path d="m5.27,99.43c-.82.86-2.05,2.18-2.75,2.93-.37.4-.47.72-.49.99-.04.58.18,1.16-.47,1.61-.26.18-.7.15-.78.43-.09-.2.02-.51.23-.6-.26-.12-.34-.77.2-.94-.17.16-.07.42.07.46.17.05.37.02.45-.43.09-.52-.09-.92.64-1.67.73-.75,2.02-2.05,2.82-2.86l.08.08h0Zm-5.27,7.08c.39.24.83.12,1.27.14.27.02.59.12.99.49.75.69,2.07,1.92,2.93,2.75l.08-.08c-.82-.8-2.11-2.09-2.86-2.82-.75-.73-1.15-.55-1.67-.64-.45-.08-.48-.27-.43-.45.04-.14.31-.24.46-.07-.13-.41-.54-.46-.78-.35v1.02h0Zm0-1.54v-.7c.19,0,.35.16.35.35s-.16.35-.35.35h0Zm0-1.22c.07-.04.13-.09.16-.15.09.21.41.32.6.23-.28-.08-.25-.52-.43-.78-.11-.15-.22-.25-.33-.33v1.02Z" opacity="0.2" style="fill:#a2826b; fill-rule:evenodd; stroke-width:0px;"/><path d="m15.73,109.89c-.82.86-2.05,2.18-2.75,2.93-.37.4-.47.72-.49.99-.04.58.18,1.16-.47,1.61-.26.18-.7.15-.78.43-.09-.2.02-.51.23-.6-.26-.12-.34-.77.2-.94-.17.16-.07.42.07.46.17.05.37.02.45-.43.09-.52-.09-.92.64-1.67.73-.75,2.02-2.05,2.82-2.86l.08.08h0Zm-5.27,4.84c.19,0,.35.16.35.35s-.16.35-.35.35-.35-.16-.35-.35.16-.35.35-.35h0Zm5.19,5.62l.08-.08c-.82-.8-2.11-2.09-2.86-2.82-.75-.73-1.15-.55-1.67-.64-.45-.08-.48-.27-.43-.45.04-.14.31-.24.46-.07-.17-.53-.82-.46-.94-.2-.09-.21-.41-.32-.6-.23.28.08.25.52.43.78.45.65,1.03.43,1.61.47.27.02.59.12.99.49.75.69,2.07,1.92,2.93,2.75h0Zm-10.47-.08c.82-.86,2.06-2.17,2.75-2.92.37-.4.47-.72.49-.99.04-.58-.18-1.16.47-1.61.26-.18.7-.15.78-.43.09.2-.02.51-.23.6.26.12.34.77-.2.94.17-.16.07-.42-.07-.46-.17-.05-.37-.02-.45.43-.09.52.09.92-.64,1.67-.73.75-2.03,2.04-2.83,2.86l-.08-.08h0Zm.09-10.46l-.08.08c.82.8,2.1,2.09,2.86,2.83.75.73,1.15.55,1.67.64.45.08.48.27.43.45-.04.14-.31.24-.46.07.17.53.82.46.94.2.09.21.41.32.6.23-.28-.08-.25-.52-.43-.78-.45-.65-1.03-.43-1.61-.47-.27-.02-.59-.12-.99-.49-.75-.69-2.07-1.93-2.92-2.75Z" opacity="0.2" style="fill:#a2826b; fill-rule:evenodd; stroke-width:0px;"/><path d="m26.19,99.43c-.82.86-2.05,2.18-2.75,2.93-.37.4-.47.72-.49.99-.04.58.18,1.16-.47,1.61-.26.18-.7.15-.78.43-.09-.2.02-.51.23-.6-.26-.12-.34-.77.2-.94-.17.16-.07.42.07.46.17.05.37.02.45-.43.09-.52-.09-.92.64-1.67.73-.75,2.02-2.05,2.82-2.86l.08.08h0Zm-5.27,4.84c.19,0,.35.16.35.35s-.16.35-.35.35-.35-.16-.35-.35.16-.35.35-.35h0Zm5.19,5.62l.08-.08c-.82-.8-2.11-2.09-2.86-2.82-.75-.73-1.15-.55-1.67-.64-.45-.08-.48-.27-.43-.45.04-.14.31-.24.46-.07-.17-.53-.82-.46-.94-.2-.09-.21-.41-.32-.6-.23.28.08.25.52.43.78.45.65,1.03.43,1.61.47.27.02.59.12.99.49.75.69,2.07,1.92,2.93,2.75h0Zm-10.47-.08c.82-.86,2.06-2.17,2.75-2.92.37-.4.47-.72.49-.99.04-.58-.18-1.16.47-1.61.26-.18.7-.15.78-.43.09.2-.02.51-.23.6.26.12.34.77-.2.94.17-.16.07-.42-.07-.46-.17-.05-.37-.02-.45.43-.09.52.09.92-.64,1.67-.73.75-2.03,2.04-2.83,2.86l-.08-.08h0Zm.09-10.46l-.08.08c.82.8,2.1,2.09,2.86,2.83.75.73,1.15.55,1.67.64.45.08.48.27.43.45-.04.14-.31.24-.46.07.17.53.82.46.94.2.09.21.41.32.6.23-.28-.08-.25-.52-.43-.78-.45-.65-1.03-.43-1.61-.47-.27-.02-.59-.12-.99-.49-.75-.69-2.07-1.93-2.92-2.75Z" opacity="0.2" style="fill:#a2826b; fill-rule:evenodd; stroke-width:0px;"/><path d="m36.65,109.89c-.82.86-2.05,2.18-2.75,2.93-.37.4-.47.72-.49.99-.04.58.18,1.16-.47,1.61-.26.18-.7.15-.78.43-.09-.2.02-.51.23-.6-.26-.12-.34-.77.2-.94-.17.16-.07.42.07.46.17.05.37.02.45-.43.09-.52-.09-.92.64-1.67.73-.75,2.02-2.05,2.82-2.86l.08.08h0Zm-5.27,4.84c.19,0,.35.16.35.35s-.16.35-.35.35-.35-.16-.35-.35.16-.35.35-.35h0Zm5.19,5.62l.08-.08c-.82-.8-2.11-2.09-2.86-2.82-.75-.73-1.15-.55-1.67-.64-.45-.08-.48-.27-.43-.45.04-.14.31-.24.46-.07-.17-.53-.82-.46-.94-.2-.09-.21-.41-.32-.6-.23.28.08.25.52.43.78.45.65,1.03.43,1.61.47.27.02.59.12.99.49.75.69,2.07,1.92,2.93,2.75h0Zm-10.47-.08c.82-.86,2.06-2.17,2.75-2.92.37-.4.47-.72.49-.99.04-.58-.18-1.16.47-1.61.26-.18.7-.15.78-.43.09.2-.02.51-.23.6.26.12.34.77-.2.94.17-.16.07-.42-.07-.46-.17-.05-.37-.02-.45.43-.09.52.09.92-.64,1.67-.73.75-2.03,2.04-2.83,2.86l-.08-.08h0Zm.09-10.46l-.08.08c.82.8,2.1,2.09,2.86,2.83.75.73,1.15.55,1.67.64.45.08.48.27.43.45-.04.14-.31.24-.46.07.17.53.82.46.94.2.09.21.41.32.6.23-.28-.08-.25-.52-.43-.78-.45-.65-1.03-.43-1.61-.47-.27-.02-.59-.12-.99-.49-.75-.69-2.07-1.93-2.92-2.75Z" opacity="0.2" style="fill:#a2826b; fill-rule:evenodd; stroke-width:0px;"/><path d="m41.85,102.73v1.02c-.24.11-.65.06-.78-.35.16.17.42.07.46-.07.05-.17.02-.37-.43-.45-.52-.09-.92.09-1.67-.64-.75-.73-2.04-2.03-2.86-2.83l.08-.08c.86.82,2.17,2.06,2.92,2.75.4.37.72.47.99.49.45.03.89-.09,1.27.14h0Zm0,1.54v.7c-.19,0-.35-.16-.35-.35s.16-.35.35-.35h0Zm0,1.22v1.02c-.12-.07-.23-.18-.33-.33-.18-.26-.15-.7-.43-.78.2-.09.51.02.6.23.03-.06.09-.11.16-.15h0Zm-5.27,4.32l.08.08c.8-.82,2.1-2.11,2.83-2.86.73-.75.55-1.15.64-1.67.08-.45.27-.48.45-.43.14.04.24.31.07.46.53-.17.46-.82.2-.94.21-.09.32-.41.23-.6-.08.28-.52.25-.78.43-.65.45-.43,1.03-.47,1.61-.02.27-.12.59-.49.99-.69.75-1.93,2.07-2.75,2.92Z" opacity="0.2" style="fill:#a2826b; fill-rule:evenodd; stroke-width:0px;"/><path d="m5.27,120.35c-.82.86-2.05,2.18-2.75,2.93-.37.4-.47.72-.49.99-.03.45.09.89-.14,1.27H.87c-.11-.24-.06-.65.35-.78-.17.16-.07.42.07.46.17.05.37.02.45-.43.09-.52-.09-.92.64-1.67.73-.75,2.02-2.05,2.82-2.86l.08.08h0Zm-4.92,5.19h-.35v-.35c.19,0,.35.16.35.35H.35Zm-.35-.86c.07-.04.13-.09.16-.15.09.21.41.32.6.23-.28-.08-.25-.52-.43-.78-.11-.15-.22-.25-.33-.33v1.02Z" opacity="0.2" style="fill:#a2826b; fill-rule:evenodd; stroke-width:0px;"/><path d="m26.19,120.35c-.82.86-2.05,2.18-2.75,2.93-.37.4-.47.72-.49.99-.03.45.09.89-.14,1.27h-1.03c-.11-.24-.06-.65.35-.78-.17.16-.07.42.07.46.17.05.37.02.45-.43.09-.52-.09-.92.64-1.67.73-.75,2.02-2.05,2.82-2.86l.08.08h0Zm-4.92,5.19h-.7c0-.19.16-.35.35-.35s.35.16.35.35h0Zm-1.22,0h-1.02c.07-.12.17-.23.32-.33.26-.18.7-.15.78-.43.09.2-.02.51-.23.6.06.03.11.08.15.16h0Zm-4.32-5.27l-.08.08c.82.8,2.1,2.09,2.86,2.83.75.73,1.15.55,1.67.64.45.08.48.27.43.45-.04.14-.31.24-.46.07.17.53.82.46.94.2.09.21.41.32.6.23-.28-.08-.25-.52-.43-.78-.45-.65-1.03-.43-1.61-.47-.27-.02-.59-.12-.99-.49-.75-.69-2.07-1.93-2.92-2.75Z" opacity="0.2" style="fill:#a2826b; fill-rule:evenodd; stroke-width:0px;"/><path d="m41.85,123.66v1.02c-.24.11-.65.06-.78-.35.16.17.42.07.46-.07.05-.17.02-.37-.43-.45-.52-.09-.92.09-1.67-.64-.75-.73-2.04-2.03-2.86-2.83l.08-.08c.86.82,2.17,2.06,2.92,2.75.4.37.72.47.99.49.45.03.89-.09,1.27.14h0Zm0,1.54v.35h-.35c0-.19.16-.35.35-.35h0Zm-.87.35c-.04-.07-.09-.13-.15-.16.21-.09.32-.41.23-.6-.08.28-.52.25-.78.43-.15.1-.25.22-.32.33h1.02Z" opacity="0.2" style="fill:#a2826b; fill-rule:evenodd; stroke-width:0px;"/><path d="m43.74,0c-.07.12-.18.23-.33.34-.26.18-.7.15-.78.43-.09-.2.02-.51.23-.6-.06-.03-.11-.09-.15-.16h1.03Zm-1.89,0h.35c0,.2-.16.35-.35.35v-.35h0Zm0,1.89c.39.24.83.12,1.27.14.27.02.59.12.99.49.75.69,2.07,1.92,2.93,2.75l.08-.08c-.82-.8-2.11-2.09-2.86-2.82-.75-.73-1.15-.55-1.67-.64-.45-.08-.48-.27-.43-.45.04-.14.31-.24.46-.07-.13-.41-.54-.46-.78-.35v1.02Z" opacity="0.2" style="fill:#a2826b; fill-rule:evenodd; stroke-width:0px;"/><path d="m57.58,5.27c-.82.86-2.05,2.18-2.75,2.93-.37.4-.47.72-.49.99-.04.58.18,1.16-.47,1.61-.26.18-.7.15-.78.43-.09-.2.02-.51.23-.6-.26-.12-.34-.77.2-.94-.17.16-.07.42.07.46.17.05.37.02.45-.43.09-.52-.09-.92.64-1.67.73-.75,2.02-2.05,2.82-2.86l.08.08h0Zm-5.27,4.84c.19,0,.35.16.35.35s-.16.35-.35.35-.35-.16-.35-.35.16-.35.35-.35h0Zm5.19,5.62l.08-.08c-.82-.8-2.11-2.09-2.86-2.82-.75-.73-1.15-.55-1.67-.64-.45-.08-.48-.27-.43-.45.04-.14.31-.24.46-.07-.17-.53-.82-.46-.94-.2-.09-.21-.41-.32-.6-.23.28.08.25.52.43.78.45.65,1.03.43,1.61.47.27.02.59.12.99.49.75.69,2.07,1.92,2.93,2.75h0Zm-10.47-.08c.82-.86,2.06-2.17,2.75-2.92.37-.4.47-.72.49-.99.04-.58-.18-1.16.47-1.61.26-.18.7-.15.78-.43.09.2-.02.51-.23.6.26.12.34.77-.2.94.17-.16.07-.42-.07-.46-.17-.05-.37-.02-.45.43-.09.52.09.92-.64,1.67-.73.75-2.03,2.04-2.83,2.86l-.08-.08h0Zm.09-10.46l-.08.08c.82.8,2.1,2.09,2.86,2.83.75.73,1.15.55,1.67.64.45.08.48.27.43.45-.04.14-.31.24-.46.07.17.53.82.46.94.2.09.21.41.32.6.23-.28-.08-.25-.52-.43-.78-.45-.65-1.03-.43-1.61-.47-.27-.02-.59-.12-.99-.49-.75-.69-2.07-1.93-2.92-2.75Z" opacity="0.2" style="fill:#a2826b; fill-rule:evenodd; stroke-width:0px;"/><path d="m64.66,0c-.07.12-.18.23-.33.34-.26.18-.7.15-.78.43-.09-.2.02-.51.23-.6-.06-.03-.11-.09-.15-.16h1.03Zm-3.78,0h1.02c.12.24.06.65-.35.78.17-.16.07-.42-.07-.46-.17-.05-.37-.02-.45.43-.09.52.09.92-.64,1.67-.73.75-2.03,2.04-2.83,2.86l-.08-.08c.82-.86,2.06-2.17,2.75-2.92.37-.4.47-.72.49-.99.03-.45-.09-.89.14-1.28h0Zm1.54,0h.7c0,.2-.16.35-.35.35s-.35-.16-.35-.35h0Zm5.54,5.27l.08-.08c-.82-.8-2.11-2.09-2.86-2.82-.75-.73-1.15-.55-1.67-.64-.45-.08-.48-.27-.43-.45.04-.14.31-.24.46-.07-.17-.53-.82-.46-.94-.2-.09-.21-.41-.32-.6-.23.28.08.25.52.43.78.45.65,1.03.43,1.61.47.27.02.59.12.99.49.75.69,2.07,1.92,2.93,2.75Z" opacity="0.2" style="fill:#a2826b; fill-rule:evenodd; stroke-width:0px;"/><path d="m78.5,5.27c-.82.86-2.05,2.18-2.75,2.93-.37.4-.47.72-.49.99-.04.58.18,1.16-.47,1.61-.26.18-.7.15-.78.43-.09-.2.02-.51.23-.6-.26-.12-.34-.77.2-.94-.17.16-.07.42.07.46.17.05.37.02.45-.43.09-.52-.09-.92.64-1.67.73-.75,2.02-2.05,2.82-2.86l.08.08h0Zm-5.27,4.84c.19,0,.35.16.35.35s-.16.35-.35.35-.35-.16-.35-.35.16-.35.35-.35h0Zm5.19,5.62l.08-.08c-.82-.8-2.11-2.09-2.86-2.82-.75-.73-1.15-.55-1.67-.64-.45-.08-.48-.27-.43-.45.04-.14.31-.24.46-.07-.17-.53-.82-.46-.94-.2-.09-.21-.41-.32-.6-.23.28.08.25.52.43.78.45.65,1.03.43,1.61.47.27.02.59.12.99.49.75.69,2.07,1.92,2.93,2.75h0Zm-10.47-.08c.82-.86,2.06-2.17,2.75-2.92.37-.4.47-.72.49-.99.04-.58-.18-1.16.47-1.61.26-.18.7-.15.78-.43.09.2-.02.51-.23.6.26.12.34.77-.2.94.17-.16.07-.42-.07-.46-.17-.05-.37-.02-.45.43-.09.52.09.92-.64,1.67-.73.75-2.03,2.04-2.83,2.86l-.08-.08h0Zm.09-10.46l-.08.08c.82.8,2.1,2.09,2.86,2.83.75.73,1.15.55,1.67.64.45.08.48.27.43.45-.04.14-.31.24-.46.07.17.53.82.46.94.2.09.21.41.32.6.23-.28-.08-.25-.52-.43-.78-.45-.65-1.03-.43-1.61-.47-.27-.02-.59-.12-.99-.49-.75-.69-2.07-1.93-2.92-2.75Z" opacity="0.2" style="fill:#a2826b; fill-rule:evenodd; stroke-width:0px;"/><path d="m81.81,0h1.02c.12.24.06.65-.35.78.17-.16.07-.42-.07-.46-.17-.05-.37-.02-.45.43-.09.52.09.92-.64,1.67-.73.75-2.03,2.04-2.83,2.86l-.08-.08c.82-.86,2.06-2.17,2.75-2.92.37-.4.47-.72.49-.99.03-.45-.09-.89.14-1.28h0Zm1.54,0h.35v.35c-.19,0-.35-.16-.35-.35h0Zm.35.87c-.07.04-.13.09-.16.15-.09-.21-.41-.32-.6-.23.28.08.25.52.43.78.11.15.22.25.33.33V.87Z" opacity="0.2" style="fill:#a2826b; fill-rule:evenodd; stroke-width:0px;"/><path d="m47.12,15.73c-.82.86-2.05,2.18-2.75,2.93-.37.4-.47.72-.49.99-.04.58.18,1.16-.47,1.61-.26.18-.7.15-.78.43-.09-.2.02-.51.23-.6-.26-.12-.34-.77.2-.94-.17.16-.07.42.07.46.17.05.37.02.45-.43.09-.52-.09-.92.64-1.67.73-.75,2.02-2.05,2.82-2.86l.08.08h0Zm-5.27,7.08c.39.24.83.12,1.27.14.27.02.59.12.99.49.75.69,2.07,1.92,2.93,2.75l.08-.08c-.82-.8-2.11-2.09-2.86-2.82-.75-.73-1.15-.55-1.67-.64-.45-.08-.48-.27-.43-.45.04-.14.31-.24.46-.07-.13-.41-.54-.46-.78-.35v1.02h0Zm0-1.54v-.7c.19,0,.35.16.35.35s-.16.35-.35.35h0Zm0-1.22c.07-.04.13-.09.16-.15.09.21.41.32.6.23-.28-.08-.25-.52-.43-.78-.11-.15-.22-.25-.33-.33v1.02Z" opacity="0.2" style="fill:#a2826b; fill-rule:evenodd; stroke-width:0px;"/><path d="m57.58,26.2c-.82.86-2.05,2.18-2.75,2.93-.37.4-.47.72-.49.99-.04.58.18,1.16-.47,1.61-.26.18-.7.15-.78.43-.09-.2.02-.51.23-.6-.26-.12-.34-.77.2-.94-.17.16-.07.42.07.46.17.05.37.02.45-.43.09-.52-.09-.92.64-1.67.73-.75,2.02-2.05,2.82-2.86l.08.08h0Zm-5.27,4.84c.19,0,.35.16.35.35s-.16.35-.35.35-.35-.16-.35-.35.16-.35.35-.35h0Zm5.19,5.62l.08-.08c-.82-.8-2.11-2.09-2.86-2.82-.75-.73-1.15-.55-1.67-.64-.45-.08-.48-.27-.43-.45.04-.14.31-.24.46-.07-.17-.53-.82-.46-.94-.2-.09-.21-.41-.32-.6-.23.28.08.25.52.43.78.45.65,1.03.43,1.61.47.27.02.59.12.99.49.75.69,2.07,1.92,2.93,2.75h0Zm-10.47-.08c.82-.86,2.06-2.17,2.75-2.92.37-.4.47-.72.49-.99.04-.58-.18-1.16.47-1.61.26-.18.7-.15.78-.43.09.2-.02.51-.23.6.26.12.34.77-.2.94.17-.16.07-.42-.07-.46-.17-.05-.37-.02-.45.43-.09.52.09.92-.64,1.67-.73.75-2.03,2.04-2.83,2.86l-.08-.08h0Zm.09-10.46l-.08.08c.82.8,2.1,2.09,2.86,2.83.75.73,1.15.55,1.67.64.45.08.48.27.43.45-.04.14-.31.24-.46.07.17.53.82.46.94.2.09.21.41.32.6.23-.28-.08-.25-.52-.43-.78-.45-.65-1.03-.43-1.61-.47-.27-.02-.59-.12-.99-.49-.75-.69-2.07-1.93-2.92-2.75Z" opacity="0.2" style="fill:#a2826b; fill-rule:evenodd; stroke-width:0px;"/><path d="m68.04,15.73c-.82.86-2.05,2.18-2.75,2.93-.37.4-.47.72-.49.99-.04.58.18,1.16-.47,1.61-.26.18-.7.15-.78.43-.09-.2.02-.51.23-.6-.26-.12-.34-.77.2-.94-.17.16-.07.42.07.46.17.05.37.02.45-.43.09-.52-.09-.92.64-1.67.73-.75,2.02-2.05,2.82-2.86l.08.08h0Zm-5.27,4.84c.19,0,.35.16.35.35s-.16.35-.35.35-.35-.16-.35-.35.16-.35.35-.35h0Zm5.19,5.62l.08-.08c-.82-.8-2.11-2.09-2.86-2.82-.75-.73-1.15-.55-1.67-.64-.45-.08-.48-.27-.43-.45.04-.14.31-.24.46-.07-.17-.53-.82-.46-.94-.2-.09-.21-.41-.32-.6-.23.28.08.25.52.43.78.45.65,1.03.43,1.61.47.27.02.59.12.99.49.75.69,2.07,1.92,2.93,2.75h0Zm-10.47-.08c.82-.86,2.06-2.17,2.75-2.92.37-.4.47-.72.49-.99.04-.58-.18-1.16.47-1.61.26-.18.7-.15.78-.43.09.2-.02.51-.23.6.26.12.34.77-.2.94.17-.16.07-.42-.07-.46-.17-.05-.37-.02-.45.43-.09.52.09.92-.64,1.67-.73.75-2.03,2.04-2.83,2.86l-.08-.08h0Zm.09-10.46l-.08.08c.82.8,2.1,2.09,2.86,2.83.75.73,1.15.55,1.67.64.45.08.48.27.43.45-.04.14-.31.24-.46.07.17.53.82.46.94.2.09.21.41.32.6.23-.28-.08-.25-.52-.43-.78-.45-.65-1.03-.43-1.61-.47-.27-.02-.59-.12-.99-.49-.75-.69-2.07-1.93-2.92-2.75Z" opacity="0.2" style="fill:#a2826b; fill-rule:evenodd; stroke-width:0px;"/><path d="m78.5,26.2c-.82.86-2.05,2.18-2.75,2.93-.37.4-.47.72-.49.99-.04.58.18,1.16-.47,1.61-.26.18-.7.15-.78.43-.09-.2.02-.51.23-.6-.26-.12-.34-.77.2-.94-.17.16-.07.42.07.46.17.05.37.02.45-.43.09-.52-.09-.92.64-1.67.73-.75,2.02-2.05,2.82-2.86l.08.08h0Zm-5.27,4.84c.19,0,.35.16.35.35s-.16.35-.35.35-.35-.16-.35-.35.16-.35.35-.35h0Zm5.19,5.62l.08-.08c-.82-.8-2.11-2.09-2.86-2.82-.75-.73-1.15-.55-1.67-.64-.45-.08-.48-.27-.43-.45.04-.14.31-.24.46-.07-.17-.53-.82-.46-.94-.2-.09-.21-.41-.32-.6-.23.28.08.25.52.43.78.45.65,1.03.43,1.61.47.27.02.59.12.99.49.75.69,2.07,1.92,2.93,2.75h0Zm-10.47-.08c.82-.86,2.06-2.17,2.75-2.92.37-.4.47-.72.49-.99.04-.58-.18-1.16.47-1.61.26-.18.7-.15.78-.43.09.2-.02.51-.23.6.26.12.34.77-.2.94.17-.16.07-.42-.07-.46-.17-.05-.37-.02-.45.43-.09.52.09.92-.64,1.67-.73.75-2.03,2.04-2.83,2.86l-.08-.08h0Zm.09-10.46l-.08.08c.82.8,2.1,2.09,2.86,2.83.75.73,1.15.55,1.67.64.45.08.48.27.43.45-.04.14-.31.24-.46.07.17.53.82.46.94.2.09.21.41.32.6.23-.28-.08-.25-.52-.43-.78-.45-.65-1.03-.43-1.61-.47-.27-.02-.59-.12-.99-.49-.75-.69-2.07-1.93-2.92-2.75Z" opacity="0.2" style="fill:#a2826b; fill-rule:evenodd; stroke-width:0px;"/><path d="m83.7,19.04v1.02c-.24.11-.65.06-.78-.35.16.17.42.07.46-.07.05-.17.02-.37-.43-.45-.52-.09-.92.09-1.67-.64-.75-.73-2.04-2.03-2.86-2.83l.08-.08c.86.82,2.17,2.06,2.92,2.75.4.37.72.47.99.49.45.03.89-.09,1.27.14h0Zm0,1.54v.7c-.19,0-.35-.16-.35-.35s.16-.35.35-.35h0Zm0,1.22v1.02c-.12-.07-.23-.18-.33-.33-.18-.26-.15-.7-.43-.78.2-.09.51.02.6.23.03-.06.09-.11.16-.15h0Zm-5.27,4.32l.08.08c.8-.82,2.1-2.11,2.83-2.86.73-.75.55-1.15.64-1.67.08-.45.27-.48.45-.43.14.04.24.31.07.46.53-.17.46-.82.2-.94.21-.09.32-.41.23-.6-.08.28-.52.25-.78.43-.65.45-.43,1.03-.47,1.61-.02.26-.12.59-.49.99-.69.75-1.93,2.07-2.75,2.92Z" opacity="0.2" style="fill:#a2826b; fill-rule:evenodd; stroke-width:0px;"/><path d="m47.12,36.66c-.82.86-2.05,2.18-2.75,2.93-.37.4-.47.72-.49.99-.04.58.18,1.16-.47,1.61-.26.18-.7.15-.78.43-.09-.2.02-.51.23-.6-.26-.12-.34-.77.2-.94-.17.16-.07.42.07.46.17.05.37.02.45-.43.09-.52-.09-.92.64-1.67.73-.75,2.02-2.05,2.82-2.86l.08.08h0Zm-5.27,7.08c.39.24.83.12,1.27.14.27.02.59.12.99.49.75.69,2.07,1.92,2.93,2.75l.08-.08c-.82-.8-2.11-2.09-2.86-2.82-.75-.73-1.15-.55-1.67-.64-.45-.08-.48-.27-.43-.45.04-.14.31-.24.46-.07-.13-.41-.54-.46-.78-.35v1.02h0Zm0-1.54v-.7c.19,0,.35.16.35.35s-.16.35-.35.35h0Zm0-1.22c.07-.04.13-.09.16-.15.09.21.41.32.6.23-.28-.08-.25-.52-.43-.78-.11-.15-.22-.25-.33-.33v1.02Z" opacity="0.2" style="fill:#a2826b; fill-rule:evenodd; stroke-width:0px;"/><path d="m57.58,47.12c-.82.86-2.05,2.18-2.75,2.93-.37.4-.47.72-.49.99-.04.58.18,1.16-.47,1.61-.26.18-.7.15-.78.43-.09-.2.02-.51.23-.6-.26-.12-.34-.77.2-.94-.17.16-.07.42.07.46.17.05.37.02.45-.43.09-.52-.09-.92.64-1.67.73-.75,2.02-2.05,2.82-2.86l.08.08h0Zm-5.27,4.84c.19,0,.35.16.35.35s-.16.35-.35.35-.35-.16-.35-.35.16-.35.35-.35h0Zm5.19,5.62l.08-.08c-.82-.8-2.11-2.09-2.86-2.82-.75-.73-1.15-.55-1.67-.64-.45-.08-.48-.27-.43-.45.04-.14.31-.24.46-.07-.17-.53-.82-.46-.94-.2-.09-.21-.41-.32-.6-.23.28.08.25.52.43.78.45.65,1.03.43,1.61.47.27.02.59.12.99.49.75.69,2.07,1.92,2.93,2.75h0Zm-10.47-.08c.82-.86,2.06-2.17,2.75-2.92.37-.4.47-.72.49-.99.04-.58-.18-1.16.47-1.61.26-.18.7-.15.78-.43.09.2-.02.51-.23.6.26.12.34.77-.2.94.17-.16.07-.42-.07-.46-.17-.05-.37-.02-.45.43-.09.52.09.92-.64,1.67-.73.75-2.03,2.04-2.83,2.86l-.08-.08h0Zm.09-10.46l-.08.08c.82.8,2.1,2.09,2.86,2.83.75.73,1.15.55,1.67.64.45.08.48.27.43.45-.04.14-.31.24-.46.07.17.53.82.46.94.2.09.21.41.32.6.23-.28-.08-.25-.52-.43-.78-.45-.65-1.03-.43-1.61-.47-.27-.02-.59-.12-.99-.49-.75-.69-2.07-1.93-2.92-2.75Z" opacity="0.2" style="fill:#a2826b; fill-rule:evenodd; stroke-width:0px;"/><path d="m68.04,36.66c-.82.86-2.05,2.18-2.75,2.93-.37.4-.47.72-.49.99-.04.58.18,1.16-.47,1.61-.26.18-.7.15-.78.43-.09-.2.02-.51.23-.6-.26-.12-.34-.77.2-.94-.17.16-.07.42.07.46.17.05.37.02.45-.43.09-.52-.09-.92.64-1.67.73-.75,2.02-2.05,2.82-2.86l.08.08h0Zm-5.27,4.84c.19,0,.35.16.35.35s-.16.35-.35.35-.35-.16-.35-.35.16-.35.35-.35h0Zm5.19,5.62l.08-.08c-.82-.8-2.11-2.09-2.86-2.82-.75-.73-1.15-.55-1.67-.64-.45-.08-.48-.27-.43-.45.04-.14.31-.24.46-.07-.17-.53-.82-.46-.94-.2-.09-.21-.41-.32-.6-.23.28.08.25.52.43.78.45.65,1.03.43,1.61.47.27.02.59.12.99.49.75.69,2.07,1.92,2.93,2.75h0Zm-10.47-.08c.82-.86,2.06-2.17,2.75-2.92.37-.4.47-.72.49-.99.04-.58-.18-1.16.47-1.61.26-.18.7-.15.78-.43.09.2-.02.51-.23.6.26.12.34.77-.2.94.17-.16.07-.42-.07-.46-.17-.05-.37-.02-.45.43-.09.52.09.92-.64,1.67-.73.75-2.03,2.04-2.83,2.86l-.08-.08h0Zm.09-10.46l-.08.08c.82.8,2.1,2.09,2.86,2.83.75.73,1.15.55,1.67.64.45.08.48.27.43.45-.04.14-.31.24-.46.07.17.53.82.46.94.2.09.21.41.32.6.23-.28-.08-.25-.52-.43-.78-.45-.65-1.03-.43-1.61-.47-.27-.02-.59-.12-.99-.49-.75-.69-2.07-1.93-2.92-2.75Z" opacity="0.2" style="fill:#a2826b; fill-rule:evenodd; stroke-width:0px;"/><path d="m78.5,47.12c-.82.86-2.05,2.18-2.75,2.93-.37.4-.47.72-.49.99-.04.58.18,1.16-.47,1.61-.26.18-.7.15-.78.43-.09-.2.02-.51.23-.6-.26-.12-.34-.77.2-.94-.17.16-.07.42.07.46.17.05.37.02.45-.43.09-.52-.09-.92.64-1.67.73-.75,2.02-2.05,2.82-2.86l.08.08h0Zm-5.27,4.84c.19,0,.35.16.35.35s-.16.35-.35.35-.35-.16-.35-.35.16-.35.35-.35h0Zm5.19,5.62l.08-.08c-.82-.8-2.11-2.09-2.86-2.82-.75-.73-1.15-.55-1.67-.64-.45-.08-.48-.27-.43-.45.04-.14.31-.24.46-.07-.17-.53-.82-.46-.94-.2-.09-.21-.41-.32-.6-.23.28.08.25.52.43.78.45.65,1.03.43,1.61.47.27.02.59.12.99.49.75.69,2.07,1.92,2.93,2.75h0Zm-10.47-.08c.82-.86,2.06-2.17,2.75-2.92.37-.4.47-.72.49-.99.04-.58-.18-1.16.47-1.61.26-.18.7-.15.78-.43.09.2-.02.51-.23.6.26.12.34.77-.2.94.17-.16.07-.42-.07-.46-.17-.05-.37-.02-.45.43-.09.52.09.92-.64,1.67-.73.75-2.03,2.04-2.83,2.86l-.08-.08h0Zm.09-10.46l-.08.08c.82.8,2.1,2.09,2.86,2.83.75.73,1.15.55,1.67.64.45.08.48.27.43.45-.04.14-.31.24-.46.07.17.53.82.46.94.2.09.21.41.32.6.23-.28-.08-.25-.52-.43-.78-.45-.65-1.03-.43-1.61-.47-.27-.02-.59-.12-.99-.49-.75-.69-2.07-1.93-2.92-2.75Z" opacity="0.2" style="fill:#a2826b; fill-rule:evenodd; stroke-width:0px;"/><path d="m83.7,39.96v1.02c-.24.11-.65.06-.78-.35.16.17.42.07.46-.07.05-.17.02-.37-.43-.45-.52-.09-.92.09-1.67-.64-.75-.73-2.04-2.03-2.86-2.83l.08-.08c.86.82,2.17,2.06,2.92,2.75.4.37.72.47.99.49.45.03.89-.09,1.27.14h0Zm0,1.54v.7c-.19,0-.35-.16-.35-.35s.16-.35.35-.35h0Zm0,1.22v1.02c-.12-.07-.23-.18-.33-.33-.18-.26-.15-.7-.43-.78.2-.09.51.02.6.23.03-.06.09-.11.16-.15h0Zm-5.27,4.32l.08.08c.8-.82,2.1-2.11,2.83-2.86.73-.75.55-1.15.64-1.67.08-.45.27-.48.45-.43.14.04.24.31.07.46.53-.17.46-.82.2-.94.21-.09.32-.41.23-.6-.08.28-.52.25-.78.43-.65.45-.43,1.03-.47,1.61-.02.26-.12.59-.49.99-.69.75-1.93,2.07-2.75,2.92Z" opacity="0.2" style="fill:#a2826b; fill-rule:evenodd; stroke-width:0px;"/><path d="m47.12,57.58c-.82.86-2.05,2.18-2.75,2.93-.37.4-.47.72-.49.99-.04.58.18,1.16-.47,1.61-.26.18-.7.15-.78.43-.09-.2.02-.51.23-.6-.26-.12-.34-.77.2-.94-.17.16-.07.42.07.46.17.05.37.02.45-.43.09-.52-.09-.92.64-1.67.73-.75,2.02-2.05,2.82-2.86l.08.08h0Zm-5.27,7.08c.39.24.83.12,1.27.14.27.02.59.12.99.49.75.69,2.07,1.92,2.93,2.75l.08-.08c-.82-.8-2.11-2.09-2.86-2.82-.75-.73-1.15-.55-1.67-.64-.45-.08-.48-.27-.43-.45.04-.14.31-.24.46-.07-.13-.41-.54-.46-.78-.35v1.02h0Zm0-1.54v-.7c.19,0,.35.16.35.35s-.16.35-.35.35h0Zm0-1.22c.07-.04.13-.09.16-.15.09.21.41.32.6.23-.28-.08-.25-.52-.43-.78-.11-.15-.22-.25-.33-.33v1.02Z" opacity="0.2" style="fill:#a2826b; fill-rule:evenodd; stroke-width:0px;"/><path d="m57.58,68.04c-.82.86-2.05,2.18-2.75,2.93-.37.4-.47.72-.49.99-.04.58.18,1.16-.47,1.61-.26.18-.7.15-.78.43-.09-.2.02-.51.23-.6-.26-.12-.34-.77.2-.94-.17.16-.07.42.07.46.17.05.37.02.45-.43.09-.52-.09-.92.64-1.67.73-.75,2.02-2.05,2.82-2.86l.08.08h0Zm-5.27,4.84c.19,0,.35.16.35.35s-.16.35-.35.35-.35-.16-.35-.35.16-.35.35-.35h0Zm5.19,5.62l.08-.08c-.82-.8-2.11-2.09-2.86-2.82-.75-.73-1.15-.55-1.67-.64-.45-.08-.48-.27-.43-.45.04-.14.31-.24.46-.07-.17-.53-.82-.46-.94-.2-.09-.21-.41-.32-.6-.23.28.08.25.52.43.78.45.65,1.03.43,1.61.47.27.02.59.12.99.49.75.69,2.07,1.92,2.93,2.75h0Zm-10.47-.08c.82-.86,2.06-2.17,2.75-2.92.37-.4.47-.72.49-.99.04-.58-.18-1.16.47-1.61.26-.18.7-.15.78-.43.09.2-.02.51-.23.6.26.12.34.77-.2.94.17-.16.07-.42-.07-.46-.17-.05-.37-.02-.45.43-.09.52.09.92-.64,1.67-.73.75-2.03,2.04-2.83,2.86l-.08-.08h0Zm.09-10.46l-.08.08c.82.8,2.1,2.09,2.86,2.83.75.73,1.15.55,1.67.64.45.08.48.27.43.45-.04.14-.31.24-.46.07.17.53.82.46.94.2.09.21.41.32.6.23-.28-.08-.25-.52-.43-.78-.45-.65-1.03-.43-1.61-.47-.27-.02-.59-.12-.99-.49-.75-.69-2.07-1.93-2.92-2.75Z" opacity="0.2" style="fill:#a2826b; fill-rule:evenodd; stroke-width:0px;"/><path d="m68.04,57.58c-.82.86-2.05,2.18-2.75,2.93-.37.4-.47.72-.49.99-.04.58.18,1.16-.47,1.61-.26.18-.7.15-.78.43-.09-.2.02-.51.23-.6-.26-.12-.34-.77.2-.94-.17.16-.07.42.07.46.17.05.37.02.45-.43.09-.52-.09-.92.64-1.67.73-.75,2.02-2.05,2.82-2.86l.08.08h0Zm-5.27,4.84c.19,0,.35.16.35.35s-.16.35-.35.35-.35-.16-.35-.35.16-.35.35-.35h0Zm5.19,5.62l.08-.08c-.82-.8-2.11-2.09-2.86-2.82-.75-.73-1.15-.55-1.67-.64-.45-.08-.48-.27-.43-.45.04-.14.31-.24.46-.07-.17-.53-.82-.46-.94-.2-.09-.21-.41-.32-.6-.23.28.08.25.52.43.78.45.65,1.03.43,1.61.47.27.02.59.12.99.49.75.69,2.07,1.92,2.93,2.75h0Zm-10.47-.08c.82-.86,2.06-2.17,2.75-2.92.37-.4.47-.72.49-.99.04-.58-.18-1.16.47-1.61.26-.18.7-.15.78-.43.09.2-.02.51-.23.6.26.12.34.77-.2.94.17-.16.07-.42-.07-.46-.17-.05-.37-.02-.45.43-.09.52.09.92-.64,1.67-.73.75-2.03,2.04-2.83,2.86l-.08-.08h0Zm.09-10.46l-.08.08c.82.8,2.1,2.09,2.86,2.83.75.73,1.15.55,1.67.64.45.08.48.27.43.45-.04.14-.31.24-.46.07.17.53.82.46.94.2.09.21.41.32.6.23-.28-.08-.25-.52-.43-.78-.45-.65-1.03-.43-1.61-.47-.27-.02-.59-.12-.99-.49-.75-.69-2.07-1.93-2.92-2.75Z" opacity="0.2" style="fill:#a2826b; fill-rule:evenodd; stroke-width:0px;"/><path d="m78.5,68.04c-.82.86-2.05,2.18-2.75,2.93-.37.4-.47.72-.49.99-.04.58.18,1.16-.47,1.61-.26.18-.7.15-.78.43-.09-.2.02-.51.23-.6-.26-.12-.34-.77.2-.94-.17.16-.07.42.07.46.17.05.37.02.45-.43.09-.52-.09-.92.64-1.67.73-.75,2.02-2.05,2.82-2.86l.08.08h0Zm-5.27,4.84c.19,0,.35.16.35.35s-.16.35-.35.35-.35-.16-.35-.35.16-.35.35-.35h0Zm5.19,5.62l.08-.08c-.82-.8-2.11-2.09-2.86-2.82-.75-.73-1.15-.55-1.67-.64-.45-.08-.48-.27-.43-.45.04-.14.31-.24.46-.07-.17-.53-.82-.46-.94-.2-.09-.21-.41-.32-.6-.23.28.08.25.52.43.78.45.65,1.03.43,1.61.47.27.02.59.12.99.49.75.69,2.07,1.92,2.93,2.75h0Zm-10.47-.08c.82-.86,2.06-2.17,2.75-2.92.37-.4.47-.72.49-.99.04-.58-.18-1.16.47-1.61.26-.18.7-.15.78-.43.09.2-.02.51-.23.6.26.12.34.77-.2.94.17-.16.07-.42-.07-.46-.17-.05-.37-.02-.45.43-.09.52.09.92-.64,1.67-.73.75-2.03,2.04-2.83,2.86l-.08-.08h0Zm.09-10.46l-.08.08c.82.8,2.1,2.09,2.86,2.83.75.73,1.15.55,1.67.64.45.08.48.27.43.45-.04.14-.31.24-.46.07.17.53.82.46.94.2.09.21.41.32.6.23-.28-.08-.25-.52-.43-.78-.45-.65-1.03-.43-1.61-.47-.27-.02-.59-.12-.99-.49-.75-.69-2.07-1.93-2.92-2.75Z" opacity="0.2" style="fill:#a2826b; fill-rule:evenodd; stroke-width:0px;"/><path d="m83.7,60.88v1.02c-.24.11-.65.06-.78-.35.16.17.42.07.46-.07.05-.17.02-.37-.43-.45-.52-.09-.92.09-1.67-.64-.75-.73-2.04-2.03-2.86-2.83l.08-.08c.86.82,2.17,2.06,2.92,2.75.4.37.72.47.99.49.45.03.89-.09,1.27.14h0Zm0,1.54v.7c-.19,0-.35-.16-.35-.35s.16-.35.35-.35h0Zm0,1.22v1.02c-.12-.07-.23-.18-.33-.33-.18-.26-.15-.7-.43-.78.2-.09.51.02.6.23.03-.06.09-.11.16-.15h0Zm-5.27,4.32l.08.08c.8-.82,2.1-2.11,2.83-2.86.73-.75.55-1.15.64-1.67.08-.45.27-.48.45-.43.14.04.24.31.07.46.53-.17.46-.82.2-.94.21-.09.32-.41.23-.6-.08.28-.52.25-.78.43-.65.45-.43,1.03-.47,1.61-.02.27-.12.59-.49.99-.69.75-1.93,2.07-2.75,2.92Z" opacity="0.2" style="fill:#a2826b; fill-rule:evenodd; stroke-width:0px;"/><path d="m47.12,78.51c-.82.86-2.05,2.18-2.75,2.93-.37.4-.47.72-.49.99-.04.58.18,1.16-.47,1.61-.26.18-.7.15-.78.43-.09-.2.02-.51.23-.6-.26-.12-.34-.77.2-.94-.17.16-.07.42.07.46.17.05.37.02.45-.43.09-.52-.09-.92.64-1.67.73-.75,2.02-2.05,2.82-2.86l.08.08h0Zm-5.27,7.08c.39.24.83.12,1.27.14.27.02.59.12.99.49.75.69,2.07,1.92,2.93,2.75l.08-.08c-.82-.8-2.11-2.09-2.86-2.82-.75-.73-1.15-.55-1.67-.64-.45-.08-.48-.27-.43-.45.04-.14.31-.24.46-.07-.13-.41-.54-.46-.78-.35v1.02h0Zm0-1.54v-.7c.19,0,.35.16.35.35s-.16.35-.35.35h0Zm0-1.22c.07-.04.13-.09.16-.15.09.21.41.32.6.23-.28-.08-.25-.52-.43-.78-.11-.15-.22-.25-.33-.33v1.02Z" opacity="0.2" style="fill:#a2826b; fill-rule:evenodd; stroke-width:0px;"/><path d="m57.58,88.97c-.82.86-2.05,2.18-2.75,2.93-.37.4-.47.72-.49.99-.04.58.18,1.16-.47,1.61-.26.18-.7.15-.78.43-.09-.2.02-.51.23-.6-.26-.12-.34-.77.2-.94-.17.16-.07.42.07.46.17.05.37.02.45-.43.09-.52-.09-.92.64-1.67.73-.75,2.02-2.05,2.82-2.86l.08.08h0Zm-5.27,4.84c.19,0,.35.16.35.35s-.16.35-.35.35-.35-.16-.35-.35.16-.35.35-.35h0Zm5.19,5.62l.08-.08c-.82-.8-2.11-2.09-2.86-2.82-.75-.73-1.15-.55-1.67-.64-.45-.08-.48-.27-.43-.45.04-.14.31-.24.46-.07-.17-.53-.82-.46-.94-.2-.09-.21-.41-.32-.6-.23.28.08.25.52.43.78.45.65,1.03.43,1.61.47.27.02.59.12.99.49.75.69,2.07,1.92,2.93,2.75h0Zm-10.47-.08c.82-.86,2.06-2.17,2.75-2.92.37-.4.47-.72.49-.99.04-.58-.18-1.16.47-1.61.26-.18.7-.15.78-.43.09.2-.02.51-.23.6.26.12.34.77-.2.94.17-.16.07-.42-.07-.46-.17-.05-.37-.02-.45.43-.09.52.09.92-.64,1.67-.73.75-2.03,2.04-2.83,2.86l-.08-.08h0Zm.09-10.46l-.08.08c.82.8,2.1,2.09,2.86,2.83.75.73,1.15.55,1.67.64.45.08.48.27.43.45-.04.14-.31.24-.46.07.17.53.82.46.94.2.09.21.41.32.6.23-.28-.08-.25-.52-.43-.78-.45-.65-1.03-.43-1.61-.47-.27-.02-.59-.12-.99-.49-.75-.69-2.07-1.93-2.92-2.75Z" opacity="0.2" style="fill:#a2826b; fill-rule:evenodd; stroke-width:0px;"/><path d="m68.04,78.51c-.82.86-2.05,2.18-2.75,2.93-.37.4-.47.72-.49.99-.04.58.18,1.16-.47,1.61-.26.18-.7.15-.78.43-.09-.2.02-.51.23-.6-.26-.12-.34-.77.2-.94-.17.16-.07.42.07.46.17.05.37.02.45-.43.09-.52-.09-.92.64-1.67.73-.75,2.02-2.05,2.82-2.86l.08.08h0Zm-5.27,4.84c.19,0,.35.16.35.35s-.16.35-.35.35-.35-.16-.35-.35.16-.35.35-.35h0Zm5.19,5.62l.08-.08c-.82-.8-2.11-2.09-2.86-2.82-.75-.73-1.15-.55-1.67-.64-.45-.08-.48-.27-.43-.45.04-.14.31-.24.46-.07-.17-.53-.82-.46-.94-.2-.09-.21-.41-.32-.6-.23.28.08.25.52.43.78.45.65,1.03.43,1.61.47.27.02.59.12.99.49.75.69,2.07,1.92,2.93,2.75h0Zm-10.47-.08c.82-.86,2.06-2.17,2.75-2.92.37-.4.47-.72.49-.99.04-.58-.18-1.16.47-1.61.26-.18.7-.15.78-.43.09.2-.02.51-.23.6.26.12.34.77-.2.94.17-.16.07-.42-.07-.46-.17-.05-.37-.02-.45.43-.09.52.09.92-.64,1.67-.73.75-2.03,2.04-2.83,2.86l-.08-.08h0Zm.09-10.46l-.08.08c.82.8,2.1,2.09,2.86,2.83.75.73,1.15.55,1.67.64.45.08.48.27.43.45-.04.14-.31.24-.46.07.17.53.82.46.94.2.09.21.41.32.6.23-.28-.08-.25-.52-.43-.78-.45-.65-1.03-.43-1.61-.47-.27-.02-.59-.12-.99-.49-.75-.69-2.07-1.93-2.92-2.75Z" opacity="0.2" style="fill:#a2826b; fill-rule:evenodd; stroke-width:0px;"/><path d="m78.5,88.97c-.82.86-2.05,2.18-2.75,2.93-.37.4-.47.72-.49.99-.04.58.18,1.16-.47,1.61-.26.18-.7.15-.78.43-.09-.2.02-.51.23-.6-.26-.12-.34-.77.2-.94-.17.16-.07.42.07.46.17.05.37.02.45-.43.09-.52-.09-.92.64-1.67.73-.75,2.02-2.05,2.82-2.86l.08.08h0Zm-5.27,4.84c.19,0,.35.16.35.35s-.16.35-.35.35-.35-.16-.35-.35.16-.35.35-.35h0Zm5.19,5.62l.08-.08c-.82-.8-2.11-2.09-2.86-2.82-.75-.73-1.15-.55-1.67-.64-.45-.08-.48-.27-.43-.45.04-.14.31-.24.46-.07-.17-.53-.82-.46-.94-.2-.09-.21-.41-.32-.6-.23.28.08.25.52.43.78.45.65,1.03.43,1.61.47.27.02.59.12.99.49.75.69,2.07,1.92,2.93,2.75h0Zm-10.47-.08c.82-.86,2.06-2.17,2.75-2.92.37-.4.47-.72.49-.99.04-.58-.18-1.16.47-1.61.26-.18.7-.15.78-.43.09.2-.02.51-.23.6.26.12.34.77-.2.94.17-.16.07-.42-.07-.46-.17-.05-.37-.02-.45.43-.09.52.09.92-.64,1.67-.73.75-2.03,2.04-2.83,2.86l-.08-.08h0Zm.09-10.46l-.08.08c.82.8,2.1,2.09,2.86,2.83.75.73,1.15.55,1.67.64.45.08.48.27.43.45-.04.14-.31.24-.46.07.17.53.82.46.94.2.09.21.41.32.6.23-.28-.08-.25-.52-.43-.78-.45-.65-1.03-.43-1.61-.47-.27-.02-.59-.12-.99-.49-.75-.69-2.07-1.93-2.92-2.75Z" opacity="0.2" style="fill:#a2826b; fill-rule:evenodd; stroke-width:0px;"/><path d="m83.7,81.81v1.02c-.24.11-.65.06-.78-.35.16.17.42.07.46-.07.05-.17.02-.37-.43-.45-.52-.09-.92.09-1.67-.64-.75-.73-2.04-2.03-2.86-2.83l.08-.08c.86.82,2.17,2.06,2.92,2.75.4.37.72.47.99.49.45.03.89-.09,1.27.14h0Zm0,1.54v.7c-.19,0-.35-.16-.35-.35s.16-.35.35-.35h0Zm0,1.22v1.02c-.12-.07-.23-.18-.33-.33-.18-.26-.15-.7-.43-.78.2-.09.51.02.6.23.03-.06.09-.11.16-.15h0Zm-5.27,4.32l.08.08c.8-.82,2.1-2.11,2.83-2.86.73-.75.55-1.15.64-1.67.08-.45.27-.48.45-.43.14.04.24.31.07.46.53-.17.46-.82.2-.94.21-.09.32-.41.23-.6-.08.28-.52.25-.78.43-.65.45-.43,1.03-.47,1.61-.02.27-.12.59-.49.99-.69.75-1.93,2.07-2.75,2.92Z" opacity="0.2" style="fill:#a2826b; fill-rule:evenodd; stroke-width:0px;"/><path d="m47.12,99.43c-.82.86-2.05,2.18-2.75,2.93-.37.4-.47.72-.49.99-.04.58.18,1.16-.47,1.61-.26.18-.7.15-.78.43-.09-.2.02-.51.23-.6-.26-.12-.34-.77.2-.94-.17.16-.07.42.07.46.17.05.37.02.45-.43.09-.52-.09-.92.64-1.67.73-.75,2.02-2.05,2.82-2.86l.08.08h0Zm-5.27,7.08c.39.24.83.12,1.27.14.27.02.59.12.99.49.75.69,2.07,1.92,2.93,2.75l.08-.08c-.82-.8-2.11-2.09-2.86-2.82-.75-.73-1.15-.55-1.67-.64-.45-.08-.48-.27-.43-.45.04-.14.31-.24.46-.07-.13-.41-.54-.46-.78-.35v1.02h0Zm0-1.54v-.7c.19,0,.35.16.35.35s-.16.35-.35.35h0Zm0-1.22c.07-.04.13-.09.16-.15.09.21.41.32.6.23-.28-.08-.25-.52-.43-.78-.11-.15-.22-.25-.33-.33v1.02Z" opacity="0.2" style="fill:#a2826b; fill-rule:evenodd; stroke-width:0px;"/><path d="m57.58,109.89c-.82.86-2.05,2.18-2.75,2.93-.37.4-.47.72-.49.99-.04.58.18,1.16-.47,1.61-.26.18-.7.15-.78.43-.09-.2.02-.51.23-.6-.26-.12-.34-.77.2-.94-.17.16-.07.42.07.46.17.05.37.02.45-.43.09-.52-.09-.92.64-1.67.73-.75,2.02-2.05,2.82-2.86l.08.08h0Zm-5.27,4.84c.19,0,.35.16.35.35s-.16.35-.35.35-.35-.16-.35-.35.16-.35.35-.35h0Zm5.19,5.62l.08-.08c-.82-.8-2.11-2.09-2.86-2.82-.75-.73-1.15-.55-1.67-.64-.45-.08-.48-.27-.43-.45.04-.14.31-.24.46-.07-.17-.53-.82-.46-.94-.2-.09-.21-.41-.32-.6-.23.28.08.25.52.43.78.45.65,1.03.43,1.61.47.27.02.59.12.99.49.75.69,2.07,1.92,2.93,2.75h0Zm-10.47-.08c.82-.86,2.06-2.17,2.75-2.92.37-.4.47-.72.49-.99.04-.58-.18-1.16.47-1.61.26-.18.7-.15.78-.43.09.2-.02.51-.23.6.26.12.34.77-.2.94.17-.16.07-.42-.07-.46-.17-.05-.37-.02-.45.43-.09.52.09.92-.64,1.67-.73.75-2.03,2.04-2.83,2.86l-.08-.08h0Zm.09-10.46l-.08.08c.82.8,2.1,2.09,2.86,2.83.75.73,1.15.55,1.67.64.45.08.48.27.43.45-.04.14-.31.24-.46.07.17.53.82.46.94.2.09.21.41.32.6.23-.28-.08-.25-.52-.43-.78-.45-.65-1.03-.43-1.61-.47-.27-.02-.59-.12-.99-.49-.75-.69-2.07-1.93-2.92-2.75Z" opacity="0.2" style="fill:#a2826b; fill-rule:evenodd; stroke-width:0px;"/><path d="m68.04,99.43c-.82.86-2.05,2.18-2.75,2.93-.37.4-.47.72-.49.99-.04.58.18,1.16-.47,1.61-.26.18-.7.15-.78.43-.09-.2.02-.51.23-.6-.26-.12-.34-.77.2-.94-.17.16-.07.42.07.46.17.05.37.02.45-.43.09-.52-.09-.92.64-1.67.73-.75,2.02-2.05,2.82-2.86l.08.08h0Zm-5.27,4.84c.19,0,.35.16.35.35s-.16.35-.35.35-.35-.16-.35-.35.16-.35.35-.35h0Zm5.19,5.62l.08-.08c-.82-.8-2.11-2.09-2.86-2.82-.75-.73-1.15-.55-1.67-.64-.45-.08-.48-.27-.43-.45.04-.14.31-.24.46-.07-.17-.53-.82-.46-.94-.2-.09-.21-.41-.32-.6-.23.28.08.25.52.43.78.45.65,1.03.43,1.61.47.27.02.59.12.99.49.75.69,2.07,1.92,2.93,2.75h0Zm-10.47-.08c.82-.86,2.06-2.17,2.75-2.92.37-.4.47-.72.49-.99.04-.58-.18-1.16.47-1.61.26-.18.7-.15.78-.43.09.2-.02.51-.23.6.26.12.34.77-.2.94.17-.16.07-.42-.07-.46-.17-.05-.37-.02-.45.43-.09.52.09.92-.64,1.67-.73.75-2.03,2.04-2.83,2.86l-.08-.08h0Zm.09-10.46l-.08.08c.82.8,2.1,2.09,2.86,2.83.75.73,1.15.55,1.67.64.45.08.48.27.43.45-.04.14-.31.24-.46.07.17.53.82.46.94.2.09.21.41.32.6.23-.28-.08-.25-.52-.43-.78-.45-.65-1.03-.43-1.61-.47-.27-.02-.59-.12-.99-.49-.75-.69-2.07-1.93-2.92-2.75Z" opacity="0.2" style="fill:#a2826b; fill-rule:evenodd; stroke-width:0px;"/><path d="m78.5,109.89c-.82.86-2.05,2.18-2.75,2.93-.37.4-.47.72-.49.99-.04.58.18,1.16-.47,1.61-.26.18-.7.15-.78.43-.09-.2.02-.51.23-.6-.26-.12-.34-.77.2-.94-.17.16-.07.42.07.46.17.05.37.02.45-.43.09-.52-.09-.92.64-1.67.73-.75,2.02-2.05,2.82-2.86l.08.08h0Zm-5.27,4.84c.19,0,.35.16.35.35s-.16.35-.35.35-.35-.16-.35-.35.16-.35.35-.35h0Zm5.19,5.62l.08-.08c-.82-.8-2.11-2.09-2.86-2.82-.75-.73-1.15-.55-1.67-.64-.45-.08-.48-.27-.43-.45.04-.14.31-.24.46-.07-.17-.53-.82-.46-.94-.2-.09-.21-.41-.32-.6-.23.28.08.25.52.43.78.45.65,1.03.43,1.61.47.27.02.59.12.99.49.75.69,2.07,1.92,2.93,2.75h0Zm-10.47-.08c.82-.86,2.06-2.17,2.75-2.92.37-.4.47-.72.49-.99.04-.58-.18-1.16.47-1.61.26-.18.7-.15.78-.43.09.2-.02.51-.23.6.26.12.34.77-.2.94.17-.16.07-.42-.07-.46-.17-.05-.37-.02-.45.43-.09.52.09.92-.64,1.67-.73.75-2.03,2.04-2.83,2.86l-.08-.08h0Zm.09-10.46l-.08.08c.82.8,2.1,2.09,2.86,2.83.75.73,1.15.55,1.67.64.45.08.48.27.43.45-.04.14-.31.24-.46.07.17.53.82.46.94.2.09.21.41.32.6.23-.28-.08-.25-.52-.43-.78-.45-.65-1.03-.43-1.61-.47-.27-.02-.59-.12-.99-.49-.75-.69-2.07-1.93-2.92-2.75Z" opacity="0.2" style="fill:#a2826b; fill-rule:evenodd; stroke-width:0px;"/><path d="m83.7,102.73v1.02c-.24.11-.65.06-.78-.35.16.17.42.07.46-.07.05-.17.02-.37-.43-.45-.52-.09-.92.09-1.67-.64-.75-.73-2.04-2.03-2.86-2.83l.08-.08c.86.82,2.17,2.06,2.92,2.75.4.37.72.47.99.49.45.03.89-.09,1.27.14h0Zm0,1.54v.7c-.19,0-.35-.16-.35-.35s.16-.35.35-.35h0Zm0,1.22v1.02c-.12-.07-.23-.18-.33-.33-.18-.26-.15-.7-.43-.78.2-.09.51.02.6.23.03-.06.09-.11.16-.15h0Zm-5.27,4.32l.08.08c.8-.82,2.1-2.11,2.83-2.86.73-.75.55-1.15.64-1.67.08-.45.27-.48.45-.43.14.04.24.31.07.46.53-.17.46-.82.2-.94.21-.09.32-.41.23-.6-.08.28-.52.25-.78.43-.65.45-.43,1.03-.47,1.61-.02.27-.12.59-.49.99-.69.75-1.93,2.07-2.75,2.92Z" opacity="0.2" style="fill:#a2826b; fill-rule:evenodd; stroke-width:0px;"/><path d="m47.12,120.35c-.82.86-2.05,2.18-2.75,2.93-.37.4-.47.72-.49.99-.03.45.09.89-.14,1.27h-1.03c-.11-.24-.06-.65.35-.78-.17.16-.07.42.07.46.17.05.37.02.45-.43.09-.52-.09-.92.64-1.67.73-.75,2.02-2.05,2.82-2.86l.08.08h0Zm-4.92,5.19h-.35v-.35c.19,0,.35.16.35.35h0Zm-.35-.86c.07-.04.13-.09.16-.15.09.21.41.32.6.23-.28-.08-.25-.52-.43-.78-.11-.15-.22-.25-.33-.33v1.02Z" opacity="0.2" style="fill:#a2826b; fill-rule:evenodd; stroke-width:0px;"/><path d="m68.04,120.35c-.82.86-2.05,2.18-2.75,2.93-.37.4-.47.72-.49.99-.03.45.09.89-.14,1.27h-1.03c-.11-.24-.06-.65.35-.78-.17.16-.07.42.07.46.17.05.37.02.45-.43.09-.52-.09-.92.64-1.67.73-.75,2.02-2.05,2.82-2.86l.08.08h0Zm-4.92,5.19h-.7c0-.19.16-.35.35-.35s.35.16.35.35h0Zm-1.22,0h-1.02c.07-.12.17-.23.32-.33.26-.18.7-.15.78-.43.09.2-.02.51-.23.6.06.03.11.08.15.16h0Zm-4.32-5.27l-.08.08c.82.8,2.1,2.09,2.86,2.83.75.73,1.15.55,1.67.64.45.08.48.27.43.45-.04.14-.31.24-.46.07.17.53.82.46.94.2.09.21.41.32.6.23-.28-.08-.25-.52-.43-.78-.45-.65-1.03-.43-1.61-.47-.27-.02-.59-.12-.99-.49-.75-.69-2.07-1.93-2.92-2.75Z" opacity="0.2" style="fill:#a2826b; fill-rule:evenodd; stroke-width:0px;"/><path d="m83.7,123.66v1.02c-.24.11-.65.06-.78-.35.16.17.42.07.46-.07.05-.17.02-.37-.43-.45-.52-.09-.92.09-1.67-.64-.75-.73-2.04-2.03-2.86-2.83l.08-.08c.86.82,2.17,2.06,2.92,2.75.4.37.72.47.99.49.45.03.89-.09,1.27.14h0Zm0,1.54v.35h-.35c0-.19.16-.35.35-.35h0Zm-.87.35c-.04-.07-.09-.13-.15-.16.21-.09.32-.41.23-.6-.08.28-.52.25-.78.43-.15.1-.25.22-.32.33h1.02Z" opacity="0.2" style="fill:#a2826b; fill-rule:evenodd; stroke-width:0px;"/><path d="m85.58,0c-.07.12-.18.23-.33.34-.26.18-.7.15-.78.43-.09-.2.02-.51.23-.6-.06-.03-.11-.09-.15-.16h1.03Zm-1.89,0h.35c0,.2-.16.35-.35.35v-.35h0Zm0,1.89c.39.24.83.12,1.27.14.27.02.59.12.99.49.75.69,2.07,1.92,2.93,2.75l.08-.08c-.82-.8-2.11-2.09-2.86-2.82-.75-.73-1.15-.55-1.67-.64-.45-.08-.48-.27-.43-.45.04-.14.31-.24.46-.07-.13-.41-.54-.46-.78-.35v1.02Z" opacity="0.2" style="fill:#a2826b; fill-rule:evenodd; stroke-width:0px;"/><path d="m99.42,5.27c-.82.86-2.05,2.18-2.75,2.93-.37.4-.47.72-.49.99-.04.58.18,1.16-.47,1.61-.26.18-.7.15-.78.43-.09-.2.02-.51.23-.6-.26-.12-.34-.77.2-.94-.17.16-.07.42.07.46.17.05.37.02.45-.43.09-.52-.09-.92.64-1.67.73-.75,2.02-2.05,2.82-2.86l.08.08h0Zm-5.27,4.84c.19,0,.35.16.35.35s-.16.35-.35.35-.35-.16-.35-.35.16-.35.35-.35h0Zm5.19,5.62l.08-.08c-.82-.8-2.11-2.09-2.86-2.82-.75-.73-1.15-.55-1.67-.64-.45-.08-.48-.27-.43-.45.04-.14.31-.24.46-.07-.17-.53-.82-.46-.94-.2-.09-.21-.41-.32-.6-.23.28.08.25.52.43.78.45.65,1.03.43,1.61.47.27.02.59.12.99.49.75.69,2.07,1.92,2.93,2.75h0Zm-10.47-.08c.82-.86,2.06-2.17,2.75-2.92.37-.4.47-.72.49-.99.04-.58-.18-1.16.47-1.61.26-.18.7-.15.78-.43.09.2-.02.51-.23.6.26.12.34.77-.2.94.17-.16.07-.42-.07-.46-.17-.05-.37-.02-.45.43-.09.52.09.92-.64,1.67-.73.75-2.03,2.04-2.83,2.86l-.08-.08h0Zm.09-10.46l-.08.08c.82.8,2.1,2.09,2.86,2.83.75.73,1.15.55,1.67.64.45.08.48.27.43.45-.04.14-.31.24-.46.07.17.53.82.46.94.2.09.21.41.32.6.23-.28-.08-.25-.52-.43-.78-.45-.65-1.03-.43-1.61-.47-.27-.02-.59-.12-.99-.49-.75-.69-2.07-1.93-2.92-2.75Z" opacity="0.2" style="fill:#a2826b; fill-rule:evenodd; stroke-width:0px;"/><path d="m106.5,0c-.07.12-.18.23-.33.34-.26.18-.7.15-.78.43-.09-.2.02-.51.23-.6-.06-.03-.11-.09-.15-.16h1.03Zm-3.78,0h1.02c.12.24.06.65-.35.78.17-.16.07-.42-.07-.46-.17-.05-.37-.02-.45.43-.09.52.09.92-.64,1.67-.73.75-2.03,2.04-2.83,2.86l-.08-.08c.82-.86,2.06-2.17,2.75-2.92.37-.4.47-.72.49-.99.03-.45-.09-.89.14-1.28h0Zm1.54,0h.7c0,.2-.16.35-.35.35s-.35-.16-.35-.35h0Zm5.54,5.27l.08-.08c-.82-.8-2.11-2.09-2.86-2.82-.75-.73-1.15-.55-1.67-.64-.45-.08-.48-.27-.43-.45.04-.14.31-.24.46-.07-.17-.53-.82-.46-.94-.2-.09-.21-.41-.32-.6-.23.28.08.25.52.43.78.45.65,1.03.43,1.61.47.27.02.59.12.99.49.75.69,2.07,1.92,2.93,2.75Z" opacity="0.2" style="fill:#a2826b; fill-rule:evenodd; stroke-width:0px;"/><path d="m120.34,5.27c-.82.86-2.05,2.18-2.75,2.93-.37.4-.47.72-.49.99-.04.58.18,1.16-.47,1.61-.26.18-.7.15-.78.43-.09-.2.02-.51.23-.6-.26-.12-.34-.77.2-.94-.17.16-.07.42.07.46.17.05.37.02.45-.43.09-.52-.09-.92.64-1.67.73-.75,2.02-2.05,2.82-2.86l.08.08h0Zm-5.27,4.84c.19,0,.35.16.35.35s-.16.35-.35.35-.35-.16-.35-.35.16-.35.35-.35h0Zm5.19,5.62l.08-.08c-.82-.8-2.11-2.09-2.86-2.82-.75-.73-1.15-.55-1.67-.64-.45-.08-.48-.27-.43-.45.04-.14.31-.24.46-.07-.17-.53-.82-.46-.94-.2-.09-.21-.41-.32-.6-.23.28.08.25.52.43.78.45.65,1.03.43,1.61.47.27.02.59.12.99.49.75.69,2.07,1.92,2.93,2.75h0Zm-10.47-.08c.82-.86,2.06-2.17,2.75-2.92.37-.4.47-.72.49-.99.04-.58-.18-1.16.47-1.61.26-.18.7-.15.78-.43.09.2-.02.51-.23.6.26.12.34.77-.2.94.17-.16.07-.42-.07-.46-.17-.05-.37-.02-.45.43-.09.52.09.92-.64,1.67-.73.75-2.03,2.04-2.83,2.86l-.08-.08h0Zm.09-10.46l-.08.08c.82.8,2.1,2.09,2.86,2.83.75.73,1.15.55,1.67.64.45.08.48.27.43.45-.04.14-.31.24-.46.07.17.53.82.46.94.2.09.21.41.32.6.23-.28-.08-.25-.52-.43-.78-.45-.65-1.03-.43-1.61-.47-.27-.02-.59-.12-.99-.49-.75-.69-2.07-1.93-2.92-2.75Z" opacity="0.2" style="fill:#a2826b; fill-rule:evenodd; stroke-width:0px;"/><path d="m123.64,0h1.02c.12.24.06.65-.35.78.17-.16.07-.42-.07-.46-.17-.05-.37-.02-.45.43-.09.52.09.92-.64,1.67-.73.75-2.03,2.04-2.83,2.86l-.08-.08c.82-.86,2.06-2.17,2.75-2.92.37-.4.47-.72.49-.99.03-.45-.09-.89.14-1.28h0Zm1.54,0h.35v.35c-.19,0-.35-.16-.35-.35h0Zm.35.87c-.07.04-.13.09-.16.15-.09-.21-.41-.32-.6-.23.28.08.25.52.43.78.11.15.22.25.33.33V.87Z" opacity="0.2" style="fill:#a2826b; fill-rule:evenodd; stroke-width:0px;"/><path d="m88.95,15.73c-.82.86-2.05,2.18-2.75,2.93-.37.4-.47.72-.49.99-.04.58.18,1.16-.47,1.61-.26.18-.7.15-.78.43-.09-.2.02-.51.23-.6-.26-.12-.34-.77.2-.94-.17.16-.07.42.07.46.17.05.37.02.45-.43.09-.52-.09-.92.64-1.67.73-.75,2.02-2.05,2.82-2.86l.08.08h0Zm-5.27,7.08c.39.24.83.12,1.27.14.27.02.59.12.99.49.75.69,2.07,1.92,2.93,2.75l.08-.08c-.82-.8-2.11-2.09-2.86-2.82-.75-.73-1.15-.55-1.67-.64-.45-.08-.48-.27-.43-.45.04-.14.31-.24.46-.07-.13-.41-.54-.46-.78-.35v1.02h0Zm0-1.54v-.7c.19,0,.35.16.35.35s-.16.35-.35.35h0Zm0-1.22c.07-.04.13-.09.16-.15.09.21.41.32.6.23-.28-.08-.25-.52-.43-.78-.11-.15-.22-.25-.33-.33v1.02Z" opacity="0.2" style="fill:#a2826b; fill-rule:evenodd; stroke-width:0px;"/><path d="m99.42,26.2c-.82.86-2.05,2.18-2.75,2.93-.37.4-.47.72-.49.99-.04.58.18,1.16-.47,1.61-.26.18-.7.15-.78.43-.09-.2.02-.51.23-.6-.26-.12-.34-.77.2-.94-.17.16-.07.42.07.46.17.05.37.02.45-.43.09-.52-.09-.92.64-1.67.73-.75,2.02-2.05,2.82-2.86l.08.08h0Zm-5.27,4.84c.19,0,.35.16.35.35s-.16.35-.35.35-.35-.16-.35-.35.16-.35.35-.35h0Zm5.19,5.62l.08-.08c-.82-.8-2.11-2.09-2.86-2.82-.75-.73-1.15-.55-1.67-.64-.45-.08-.48-.27-.43-.45.04-.14.31-.24.46-.07-.17-.53-.82-.46-.94-.2-.09-.21-.41-.32-.6-.23.28.08.25.52.43.78.45.65,1.03.43,1.61.47.27.02.59.12.99.49.75.69,2.07,1.92,2.93,2.75h0Zm-10.47-.08c.82-.86,2.06-2.17,2.75-2.92.37-.4.47-.72.49-.99.04-.58-.18-1.16.47-1.61.26-.18.7-.15.78-.43.09.2-.02.51-.23.6.26.12.34.77-.2.94.17-.16.07-.42-.07-.46-.17-.05-.37-.02-.45.43-.09.52.09.92-.64,1.67-.73.75-2.03,2.04-2.83,2.86l-.08-.08h0Zm.09-10.46l-.08.08c.82.8,2.1,2.09,2.86,2.83.75.73,1.15.55,1.67.64.45.08.48.27.43.45-.04.14-.31.24-.46.07.17.53.82.46.94.2.09.21.41.32.6.23-.28-.08-.25-.52-.43-.78-.45-.65-1.03-.43-1.61-.47-.27-.02-.59-.12-.99-.49-.75-.69-2.07-1.93-2.92-2.75Z" opacity="0.2" style="fill:#a2826b; fill-rule:evenodd; stroke-width:0px;"/><path d="m109.88,15.73c-.82.86-2.05,2.18-2.75,2.93-.37.4-.47.72-.49.99-.04.58.18,1.16-.47,1.61-.26.18-.7.15-.78.43-.09-.2.02-.51.23-.6-.26-.12-.34-.77.2-.94-.17.16-.07.42.07.46.17.05.37.02.45-.43.09-.52-.09-.92.64-1.67.73-.75,2.02-2.05,2.82-2.86l.08.08h0Zm-5.27,4.84c.19,0,.35.16.35.35s-.16.35-.35.35-.35-.16-.35-.35.16-.35.35-.35h0Zm5.19,5.62l.08-.08c-.82-.8-2.11-2.09-2.86-2.82-.75-.73-1.15-.55-1.67-.64-.45-.08-.48-.27-.43-.45.04-.14.31-.24.46-.07-.17-.53-.82-.46-.94-.2-.09-.21-.41-.32-.6-.23.28.08.25.52.43.78.45.65,1.03.43,1.61.47.27.02.59.12.99.49.75.69,2.07,1.92,2.93,2.75h0Zm-10.47-.08c.82-.86,2.06-2.17,2.75-2.92.37-.4.47-.72.49-.99.04-.58-.18-1.16.47-1.61.26-.18.7-.15.78-.43.09.2-.02.51-.23.6.26.12.34.77-.2.94.17-.16.07-.42-.07-.46-.17-.05-.37-.02-.45.43-.09.52.09.92-.64,1.67-.73.75-2.03,2.04-2.83,2.86l-.08-.08h0Zm.09-10.46l-.08.08c.82.8,2.1,2.09,2.86,2.83.75.73,1.15.55,1.67.64.45.08.48.27.43.45-.04.14-.31.24-.46.07.17.53.82.46.94.2.09.21.41.32.6.23-.28-.08-.25-.52-.43-.78-.45-.65-1.03-.43-1.61-.47-.27-.02-.59-.12-.99-.49-.75-.69-2.07-1.93-2.92-2.75Z" opacity="0.2" style="fill:#a2826b; fill-rule:evenodd; stroke-width:0px;"/><path d="m120.34,26.2c-.82.86-2.05,2.18-2.75,2.93-.37.4-.47.72-.49.99-.04.58.18,1.16-.47,1.61-.26.18-.7.15-.78.43-.09-.2.02-.51.23-.6-.26-.12-.34-.77.2-.94-.17.16-.07.42.07.46.17.05.37.02.45-.43.09-.52-.09-.92.64-1.67.73-.75,2.02-2.05,2.82-2.86l.08.08h0Zm-5.27,4.84c.19,0,.35.16.35.35s-.16.35-.35.35-.35-.16-.35-.35.16-.35.35-.35h0Zm5.19,5.62l.08-.08c-.82-.8-2.11-2.09-2.86-2.82-.75-.73-1.15-.55-1.67-.64-.45-.08-.48-.27-.43-.45.04-.14.31-.24.46-.07-.17-.53-.82-.46-.94-.2-.09-.21-.41-.32-.6-.23.28.08.25.52.43.78.45.65,1.03.43,1.61.47.27.02.59.12.99.49.75.69,2.07,1.92,2.93,2.75h0Zm-10.47-.08c.82-.86,2.06-2.17,2.75-2.92.37-.4.47-.72.49-.99.04-.58-.18-1.16.47-1.61.26-.18.7-.15.78-.43.09.2-.02.51-.23.6.26.12.34.77-.2.94.17-.16.07-.42-.07-.46-.17-.05-.37-.02-.45.43-.09.52.09.92-.64,1.67-.73.75-2.03,2.04-2.83,2.86l-.08-.08h0Zm.09-10.46l-.08.08c.82.8,2.1,2.09,2.86,2.83.75.73,1.15.55,1.67.64.45.08.48.27.43.45-.04.14-.31.24-.46.07.17.53.82.46.94.2.09.21.41.32.6.23-.28-.08-.25-.52-.43-.78-.45-.65-1.03-.43-1.61-.47-.27-.02-.59-.12-.99-.49-.75-.69-2.07-1.93-2.92-2.75Z" opacity="0.2" style="fill:#a2826b; fill-rule:evenodd; stroke-width:0px;"/><path d="m125.53,19.04v1.02c-.24.11-.65.06-.78-.35.16.17.42.07.46-.07.05-.17.02-.37-.43-.45-.52-.09-.92.09-1.67-.64-.75-.73-2.04-2.03-2.86-2.83l.08-.08c.86.82,2.17,2.06,2.92,2.75.4.37.72.47.99.49.45.03.89-.09,1.27.14h0Zm0,1.54v.7c-.19,0-.35-.16-.35-.35s.16-.35.35-.35h0Zm0,1.22v1.02c-.12-.07-.23-.18-.33-.33-.18-.26-.15-.7-.43-.78.2-.09.51.02.6.23.03-.06.09-.11.16-.15h0Zm-5.27,4.32l.08.08c.8-.82,2.1-2.11,2.83-2.86.73-.75.55-1.15.64-1.67.08-.45.27-.48.45-.43.14.04.24.31.07.46.53-.17.46-.82.2-.94.21-.09.32-.41.23-.6-.08.28-.52.25-.78.43-.65.45-.43,1.03-.47,1.61-.02.26-.12.59-.49.99-.69.75-1.93,2.07-2.75,2.92Z" opacity="0.2" style="fill:#a2826b; fill-rule:evenodd; stroke-width:0px;"/><path d="m88.95,36.66c-.82.86-2.05,2.18-2.75,2.93-.37.4-.47.72-.49.99-.04.58.18,1.16-.47,1.61-.26.18-.7.15-.78.43-.09-.2.02-.51.23-.6-.26-.12-.34-.77.2-.94-.17.16-.07.42.07.46.17.05.37.02.45-.43.09-.52-.09-.92.64-1.67.73-.75,2.02-2.05,2.82-2.86l.08.08h0Zm-5.27,7.08c.39.24.83.12,1.27.14.27.02.59.12.99.49.75.69,2.07,1.92,2.93,2.75l.08-.08c-.82-.8-2.11-2.09-2.86-2.82-.75-.73-1.15-.55-1.67-.64-.45-.08-.48-.27-.43-.45.04-.14.31-.24.46-.07-.13-.41-.54-.46-.78-.35v1.02h0Zm0-1.54v-.7c.19,0,.35.16.35.35s-.16.35-.35.35h0Zm0-1.22c.07-.04.13-.09.16-.15.09.21.41.32.6.23-.28-.08-.25-.52-.43-.78-.11-.15-.22-.25-.33-.33v1.02Z" opacity="0.2" style="fill:#a2826b; fill-rule:evenodd; stroke-width:0px;"/><path d="m99.42,47.12c-.82.86-2.05,2.18-2.75,2.93-.37.4-.47.72-.49.99-.04.58.18,1.16-.47,1.61-.26.18-.7.15-.78.43-.09-.2.02-.51.23-.6-.26-.12-.34-.77.2-.94-.17.16-.07.42.07.46.17.05.37.02.45-.43.09-.52-.09-.92.64-1.67.73-.75,2.02-2.05,2.82-2.86l.08.08h0Zm-5.27,4.84c.19,0,.35.16.35.35s-.16.35-.35.35-.35-.16-.35-.35.16-.35.35-.35h0Zm5.19,5.62l.08-.08c-.82-.8-2.11-2.09-2.86-2.82-.75-.73-1.15-.55-1.67-.64-.45-.08-.48-.27-.43-.45.04-.14.31-.24.46-.07-.17-.53-.82-.46-.94-.2-.09-.21-.41-.32-.6-.23.28.08.25.52.43.78.45.65,1.03.43,1.61.47.27.02.59.12.99.49.75.69,2.07,1.92,2.93,2.75h0Zm-10.47-.08c.82-.86,2.06-2.17,2.75-2.92.37-.4.47-.72.49-.99.04-.58-.18-1.16.47-1.61.26-.18.7-.15.78-.43.09.2-.02.51-.23.6.26.12.34.77-.2.94.17-.16.07-.42-.07-.46-.17-.05-.37-.02-.45.43-.09.52.09.92-.64,1.67-.73.75-2.03,2.04-2.83,2.86l-.08-.08h0Zm.09-10.46l-.08.08c.82.8,2.1,2.09,2.86,2.83.75.73,1.15.55,1.67.64.45.08.48.27.43.45-.04.14-.31.24-.46.07.17.53.82.46.94.2.09.21.41.32.6.23-.28-.08-.25-.52-.43-.78-.45-.65-1.03-.43-1.61-.47-.27-.02-.59-.12-.99-.49-.75-.69-2.07-1.93-2.92-2.75Z" opacity="0.2" style="fill:#a2826b; fill-rule:evenodd; stroke-width:0px;"/><path d="m109.88,36.66c-.82.86-2.05,2.18-2.75,2.93-.37.4-.47.72-.49.99-.04.58.18,1.16-.47,1.61-.26.18-.7.15-.78.43-.09-.2.02-.51.23-.6-.26-.12-.34-.77.2-.94-.17.16-.07.42.07.46.17.05.37.02.45-.43.09-.52-.09-.92.64-1.67.73-.75,2.02-2.05,2.82-2.86l.08.08h0Zm-5.27,4.84c.19,0,.35.16.35.35s-.16.35-.35.35-.35-.16-.35-.35.16-.35.35-.35h0Zm5.19,5.62l.08-.08c-.82-.8-2.11-2.09-2.86-2.82-.75-.73-1.15-.55-1.67-.64-.45-.08-.48-.27-.43-.45.04-.14.31-.24.46-.07-.17-.53-.82-.46-.94-.2-.09-.21-.41-.32-.6-.23.28.08.25.52.43.78.45.65,1.03.43,1.61.47.27.02.59.12.99.49.75.69,2.07,1.92,2.93,2.75h0Zm-10.47-.08c.82-.86,2.06-2.17,2.75-2.92.37-.4.47-.72.49-.99.04-.58-.18-1.16.47-1.61.26-.18.7-.15.78-.43.09.2-.02.51-.23.6.26.12.34.77-.2.94.17-.16.07-.42-.07-.46-.17-.05-.37-.02-.45.43-.09.52.09.92-.64,1.67-.73.75-2.03,2.04-2.83,2.86l-.08-.08h0Zm.09-10.46l-.08.08c.82.8,2.1,2.09,2.86,2.83.75.73,1.15.55,1.67.64.45.08.48.27.43.45-.04.14-.31.24-.46.07.17.53.82.46.94.2.09.21.41.32.6.23-.28-.08-.25-.52-.43-.78-.45-.65-1.03-.43-1.61-.47-.27-.02-.59-.12-.99-.49-.75-.69-2.07-1.93-2.92-2.75Z" opacity="0.2" style="fill:#a2826b; fill-rule:evenodd; stroke-width:0px;"/><path d="m120.34,47.12c-.82.86-2.05,2.18-2.75,2.93-.37.4-.47.72-.49.99-.04.58.18,1.16-.47,1.61-.26.18-.7.15-.78.43-.09-.2.02-.51.23-.6-.26-.12-.34-.77.2-.94-.17.16-.07.42.07.46.17.05.37.02.45-.43.09-.52-.09-.92.64-1.67.73-.75,2.02-2.05,2.82-2.86l.08.08h0Zm-5.27,4.84c.19,0,.35.16.35.35s-.16.35-.35.35-.35-.16-.35-.35.16-.35.35-.35h0Zm5.19,5.62l.08-.08c-.82-.8-2.11-2.09-2.86-2.82-.75-.73-1.15-.55-1.67-.64-.45-.08-.48-.27-.43-.45.04-.14.31-.24.46-.07-.17-.53-.82-.46-.94-.2-.09-.21-.41-.32-.6-.23.28.08.25.52.43.78.45.65,1.03.43,1.61.47.27.02.59.12.99.49.75.69,2.07,1.92,2.93,2.75h0Zm-10.47-.08c.82-.86,2.06-2.17,2.75-2.92.37-.4.47-.72.49-.99.04-.58-.18-1.16.47-1.61.26-.18.7-.15.78-.43.09.2-.02.51-.23.6.26.12.34.77-.2.94.17-.16.07-.42-.07-.46-.17-.05-.37-.02-.45.43-.09.52.09.92-.64,1.67-.73.75-2.03,2.04-2.83,2.86l-.08-.08h0Zm.09-10.46l-.08.08c.82.8,2.1,2.09,2.86,2.83.75.73,1.15.55,1.67.64.45.08.48.27.43.45-.04.14-.31.24-.46.07.17.53.82.46.94.2.09.21.41.32.6.23-.28-.08-.25-.52-.43-.78-.45-.65-1.03-.43-1.61-.47-.27-.02-.59-.12-.99-.49-.75-.69-2.07-1.93-2.92-2.75Z" opacity="0.2" style="fill:#a2826b; fill-rule:evenodd; stroke-width:0px;"/><path d="m125.53,39.96v1.02c-.24.11-.65.06-.78-.35.16.17.42.07.46-.07.05-.17.02-.37-.43-.45-.52-.09-.92.09-1.67-.64-.75-.73-2.04-2.03-2.86-2.83l.08-.08c.86.82,2.17,2.06,2.92,2.75.4.37.72.47.99.49.45.03.89-.09,1.27.14h0Zm0,1.54v.7c-.19,0-.35-.16-.35-.35s.16-.35.35-.35h0Zm0,1.22v1.02c-.12-.07-.23-.18-.33-.33-.18-.26-.15-.7-.43-.78.2-.09.51.02.6.23.03-.06.09-.11.16-.15h0Zm-5.27,4.32l.08.08c.8-.82,2.1-2.11,2.83-2.86.73-.75.55-1.15.64-1.67.08-.45.27-.48.45-.43.14.04.24.31.07.46.53-.17.46-.82.2-.94.21-.09.32-.41.23-.6-.08.28-.52.25-.78.43-.65.45-.43,1.03-.47,1.61-.02.26-.12.59-.49.99-.69.75-1.93,2.07-2.75,2.92Z" opacity="0.2" style="fill:#a2826b; fill-rule:evenodd; stroke-width:0px;"/><path d="m88.95,57.58c-.82.86-2.05,2.18-2.75,2.93-.37.4-.47.72-.49.99-.04.58.18,1.16-.47,1.61-.26.18-.7.15-.78.43-.09-.2.02-.51.23-.6-.26-.12-.34-.77.2-.94-.17.16-.07.42.07.46.17.05.37.02.45-.43.09-.52-.09-.92.64-1.67.73-.75,2.02-2.05,2.82-2.86l.08.08h0Zm-5.27,7.08c.39.24.83.12,1.27.14.27.02.59.12.99.49.75.69,2.07,1.92,2.93,2.75l.08-.08c-.82-.8-2.11-2.09-2.86-2.82-.75-.73-1.15-.55-1.67-.64-.45-.08-.48-.27-.43-.45.04-.14.31-.24.46-.07-.13-.41-.54-.46-.78-.35v1.02h0Zm0-1.54v-.7c.19,0,.35.16.35.35s-.16.35-.35.35h0Zm0-1.22c.07-.04.13-.09.16-.15.09.21.41.32.6.23-.28-.08-.25-.52-.43-.78-.11-.15-.22-.25-.33-.33v1.02Z" opacity="0.2" style="fill:#a2826b; fill-rule:evenodd; stroke-width:0px;"/><path d="m99.42,68.04c-.82.86-2.05,2.18-2.75,2.93-.37.4-.47.72-.49.99-.04.58.18,1.16-.47,1.61-.26.18-.7.15-.78.43-.09-.2.02-.51.23-.6-.26-.12-.34-.77.2-.94-.17.16-.07.42.07.46.17.05.37.02.45-.43.09-.52-.09-.92.64-1.67.73-.75,2.02-2.05,2.82-2.86l.08.08h0Zm-5.27,4.84c.19,0,.35.16.35.35s-.16.35-.35.35-.35-.16-.35-.35.16-.35.35-.35h0Zm5.19,5.62l.08-.08c-.82-.8-2.11-2.09-2.86-2.82-.75-.73-1.15-.55-1.67-.64-.45-.08-.48-.27-.43-.45.04-.14.31-.24.46-.07-.17-.53-.82-.46-.94-.2-.09-.21-.41-.32-.6-.23.28.08.25.52.43.78.45.65,1.03.43,1.61.47.27.02.59.12.99.49.75.69,2.07,1.92,2.93,2.75h0Zm-10.47-.08c.82-.86,2.06-2.17,2.75-2.92.37-.4.47-.72.49-.99.04-.58-.18-1.16.47-1.61.26-.18.7-.15.78-.43.09.2-.02.51-.23.6.26.12.34.77-.2.94.17-.16.07-.42-.07-.46-.17-.05-.37-.02-.45.43-.09.52.09.92-.64,1.67-.73.75-2.03,2.04-2.83,2.86l-.08-.08h0Zm.09-10.46l-.08.08c.82.8,2.1,2.09,2.86,2.83.75.73,1.15.55,1.67.64.45.08.48.27.43.45-.04.14-.31.24-.46.07.17.53.82.46.94.2.09.21.41.32.6.23-.28-.08-.25-.52-.43-.78-.45-.65-1.03-.43-1.61-.47-.27-.02-.59-.12-.99-.49-.75-.69-2.07-1.93-2.92-2.75Z" opacity="0.2" style="fill:#a2826b; fill-rule:evenodd; stroke-width:0px;"/><path d="m109.88,57.58c-.82.86-2.05,2.18-2.75,2.93-.37.4-.47.72-.49.99-.04.58.18,1.16-.47,1.61-.26.18-.7.15-.78.43-.09-.2.02-.51.23-.6-.26-.12-.34-.77.2-.94-.17.16-.07.42.07.46.17.05.37.02.45-.43.09-.52-.09-.92.64-1.67.73-.75,2.02-2.05,2.82-2.86l.08.08h0Zm-5.27,4.84c.19,0,.35.16.35.35s-.16.35-.35.35-.35-.16-.35-.35.16-.35.35-.35h0Zm5.19,5.62l.08-.08c-.82-.8-2.11-2.09-2.86-2.82-.75-.73-1.15-.55-1.67-.64-.45-.08-.48-.27-.43-.45.04-.14.31-.24.46-.07-.17-.53-.82-.46-.94-.2-.09-.21-.41-.32-.6-.23.28.08.25.52.43.78.45.65,1.03.43,1.61.47.27.02.59.12.99.49.75.69,2.07,1.92,2.93,2.75h0Zm-10.47-.08c.82-.86,2.06-2.17,2.75-2.92.37-.4.47-.72.49-.99.04-.58-.18-1.16.47-1.61.26-.18.7-.15.78-.43.09.2-.02.51-.23.6.26.12.34.77-.2.94.17-.16.07-.42-.07-.46-.17-.05-.37-.02-.45.43-.09.52.09.92-.64,1.67-.73.75-2.03,2.04-2.83,2.86l-.08-.08h0Zm.09-10.46l-.08.08c.82.8,2.1,2.09,2.86,2.83.75.73,1.15.55,1.67.64.45.08.48.27.43.45-.04.14-.31.24-.46.07.17.53.82.46.94.2.09.21.41.32.6.23-.28-.08-.25-.52-.43-.78-.45-.65-1.03-.43-1.61-.47-.27-.02-.59-.12-.99-.49-.75-.69-2.07-1.93-2.92-2.75Z" opacity="0.2" style="fill:#a2826b; fill-rule:evenodd; stroke-width:0px;"/><path d="m120.34,68.04c-.82.86-2.05,2.18-2.75,2.93-.37.4-.47.72-.49.99-.04.58.18,1.16-.47,1.61-.26.18-.7.15-.78.43-.09-.2.02-.51.23-.6-.26-.12-.34-.77.2-.94-.17.16-.07.42.07.46.17.05.37.02.45-.43.09-.52-.09-.92.64-1.67.73-.75,2.02-2.05,2.82-2.86l.08.08h0Zm-5.27,4.84c.19,0,.35.16.35.35s-.16.35-.35.35-.35-.16-.35-.35.16-.35.35-.35h0Zm5.19,5.62l.08-.08c-.82-.8-2.11-2.09-2.86-2.82-.75-.73-1.15-.55-1.67-.64-.45-.08-.48-.27-.43-.45.04-.14.31-.24.46-.07-.17-.53-.82-.46-.94-.2-.09-.21-.41-.32-.6-.23.28.08.25.52.43.78.45.65,1.03.43,1.61.47.27.02.59.12.99.49.75.69,2.07,1.92,2.93,2.75h0Zm-10.47-.08c.82-.86,2.06-2.17,2.75-2.92.37-.4.47-.72.49-.99.04-.58-.18-1.16.47-1.61.26-.18.7-.15.78-.43.09.2-.02.51-.23.6.26.12.34.77-.2.94.17-.16.07-.42-.07-.46-.17-.05-.37-.02-.45.43-.09.52.09.92-.64,1.67-.73.75-2.03,2.04-2.83,2.86l-.08-.08h0Zm.09-10.46l-.08.08c.82.8,2.1,2.09,2.86,2.83.75.73,1.15.55,1.67.64.45.08.48.27.43.45-.04.14-.31.24-.46.07.17.53.82.46.94.2.09.21.41.32.6.23-.28-.08-.25-.52-.43-.78-.45-.65-1.03-.43-1.61-.47-.27-.02-.59-.12-.99-.49-.75-.69-2.07-1.93-2.92-2.75Z" opacity="0.2" style="fill:#a2826b; fill-rule:evenodd; stroke-width:0px;"/><path d="m125.53,60.88v1.02c-.24.11-.65.06-.78-.35.16.17.42.07.46-.07.05-.17.02-.37-.43-.45-.52-.09-.92.09-1.67-.64-.75-.73-2.04-2.03-2.86-2.83l.08-.08c.86.82,2.17,2.06,2.92,2.75.4.37.72.47.99.49.45.03.89-.09,1.27.14h0Zm0,1.54v.7c-.19,0-.35-.16-.35-.35s.16-.35.35-.35h0Zm0,1.22v1.02c-.12-.07-.23-.18-.33-.33-.18-.26-.15-.7-.43-.78.2-.09.51.02.6.23.03-.06.09-.11.16-.15h0Zm-5.27,4.32l.08.08c.8-.82,2.1-2.11,2.83-2.86.73-.75.55-1.15.64-1.67.08-.45.27-.48.45-.43.14.04.24.31.07.46.53-.17.46-.82.2-.94.21-.09.32-.41.23-.6-.08.28-.52.25-.78.43-.65.45-.43,1.03-.47,1.61-.02.27-.12.59-.49.99-.69.75-1.93,2.07-2.75,2.92Z" opacity="0.2" style="fill:#a2826b; fill-rule:evenodd; stroke-width:0px;"/><path d="m88.95,78.51c-.82.86-2.05,2.18-2.75,2.93-.37.4-.47.72-.49.99-.04.58.18,1.16-.47,1.61-.26.18-.7.15-.78.43-.09-.2.02-.51.23-.6-.26-.12-.34-.77.2-.94-.17.16-.07.42.07.46.17.05.37.02.45-.43.09-.52-.09-.92.64-1.67.73-.75,2.02-2.05,2.82-2.86l.08.08h0Zm-5.27,7.08c.39.24.83.12,1.27.14.27.02.59.12.99.49.75.69,2.07,1.92,2.93,2.75l.08-.08c-.82-.8-2.11-2.09-2.86-2.82-.75-.73-1.15-.55-1.67-.64-.45-.08-.48-.27-.43-.45.04-.14.31-.24.46-.07-.13-.41-.54-.46-.78-.35v1.02h0Zm0-1.54v-.7c.19,0,.35.16.35.35s-.16.35-.35.35h0Zm0-1.22c.07-.04.13-.09.16-.15.09.21.41.32.6.23-.28-.08-.25-.52-.43-.78-.11-.15-.22-.25-.33-.33v1.02Z" opacity="0.2" style="fill:#a2826b; fill-rule:evenodd; stroke-width:0px;"/><path d="m99.42,88.97c-.82.86-2.05,2.18-2.75,2.93-.37.4-.47.72-.49.99-.04.58.18,1.16-.47,1.61-.26.18-.7.15-.78.43-.09-.2.02-.51.23-.6-.26-.12-.34-.77.2-.94-.17.16-.07.42.07.46.17.05.37.02.45-.43.09-.52-.09-.92.64-1.67.73-.75,2.02-2.05,2.82-2.86l.08.08h0Zm-5.27,4.84c.19,0,.35.16.35.35s-.16.35-.35.35-.35-.16-.35-.35.16-.35.35-.35h0Zm5.19,5.62l.08-.08c-.82-.8-2.11-2.09-2.86-2.82-.75-.73-1.15-.55-1.67-.64-.45-.08-.48-.27-.43-.45.04-.14.31-.24.46-.07-.17-.53-.82-.46-.94-.2-.09-.21-.41-.32-.6-.23.28.08.25.52.43.78.45.65,1.03.43,1.61.47.27.02.59.12.99.49.75.69,2.07,1.92,2.93,2.75h0Zm-10.47-.08c.82-.86,2.06-2.17,2.75-2.92.37-.4.47-.72.49-.99.04-.58-.18-1.16.47-1.61.26-.18.7-.15.78-.43.09.2-.02.51-.23.6.26.12.34.77-.2.94.17-.16.07-.42-.07-.46-.17-.05-.37-.02-.45.43-.09.52.09.92-.64,1.67-.73.75-2.03,2.04-2.83,2.86l-.08-.08h0Zm.09-10.46l-.08.08c.82.8,2.1,2.09,2.86,2.83.75.73,1.15.55,1.67.64.45.08.48.27.43.45-.04.14-.31.24-.46.07.17.53.82.46.94.2.09.21.41.32.6.23-.28-.08-.25-.52-.43-.78-.45-.65-1.03-.43-1.61-.47-.27-.02-.59-.12-.99-.49-.75-.69-2.07-1.93-2.92-2.75Z" opacity="0.2" style="fill:#a2826b; fill-rule:evenodd; stroke-width:0px;"/><path d="m109.88,78.51c-.82.86-2.05,2.18-2.75,2.93-.37.4-.47.72-.49.99-.04.58.18,1.16-.47,1.61-.26.18-.7.15-.78.43-.09-.2.02-.51.23-.6-.26-.12-.34-.77.2-.94-.17.16-.07.42.07.46.17.05.37.02.45-.43.09-.52-.09-.92.64-1.67.73-.75,2.02-2.05,2.82-2.86l.08.08h0Zm-5.27,4.84c.19,0,.35.16.35.35s-.16.35-.35.35-.35-.16-.35-.35.16-.35.35-.35h0Zm5.19,5.62l.08-.08c-.82-.8-2.11-2.09-2.86-2.82-.75-.73-1.15-.55-1.67-.64-.45-.08-.48-.27-.43-.45.04-.14.31-.24.46-.07-.17-.53-.82-.46-.94-.2-.09-.21-.41-.32-.6-.23.28.08.25.52.43.78.45.65,1.03.43,1.61.47.27.02.59.12.99.49.75.69,2.07,1.92,2.93,2.75h0Zm-10.47-.08c.82-.86,2.06-2.17,2.75-2.92.37-.4.47-.72.49-.99.04-.58-.18-1.16.47-1.61.26-.18.7-.15.78-.43.09.2-.02.51-.23.6.26.12.34.77-.2.94.17-.16.07-.42-.07-.46-.17-.05-.37-.02-.45.43-.09.52.09.92-.64,1.67-.73.75-2.03,2.04-2.83,2.86l-.08-.08h0Zm.09-10.46l-.08.08c.82.8,2.1,2.09,2.86,2.83.75.73,1.15.55,1.67.64.45.08.48.27.43.45-.04.14-.31.24-.46.07.17.53.82.46.94.2.09.21.41.32.6.23-.28-.08-.25-.52-.43-.78-.45-.65-1.03-.43-1.61-.47-.27-.02-.59-.12-.99-.49-.75-.69-2.07-1.93-2.92-2.75Z" opacity="0.2" style="fill:#a2826b; fill-rule:evenodd; stroke-width:0px;"/><path d="m120.34,88.97c-.82.86-2.05,2.18-2.75,2.93-.37.4-.47.72-.49.99-.04.58.18,1.16-.47,1.61-.26.18-.7.15-.78.43-.09-.2.02-.51.23-.6-.26-.12-.34-.77.2-.94-.17.16-.07.42.07.46.17.05.37.02.45-.43.09-.52-.09-.92.64-1.67.73-.75,2.02-2.05,2.82-2.86l.08.08h0Zm-5.27,4.84c.19,0,.35.16.35.35s-.16.35-.35.35-.35-.16-.35-.35.16-.35.35-.35h0Zm5.19,5.62l.08-.08c-.82-.8-2.11-2.09-2.86-2.82-.75-.73-1.15-.55-1.67-.64-.45-.08-.48-.27-.43-.45.04-.14.31-.24.46-.07-.17-.53-.82-.46-.94-.2-.09-.21-.41-.32-.6-.23.28.08.25.52.43.78.45.65,1.03.43,1.61.47.27.02.59.12.99.49.75.69,2.07,1.92,2.93,2.75h0Zm-10.47-.08c.82-.86,2.06-2.17,2.75-2.92.37-.4.47-.72.49-.99.04-.58-.18-1.16.47-1.61.26-.18.7-.15.78-.43.09.2-.02.51-.23.6.26.12.34.77-.2.94.17-.16.07-.42-.07-.46-.17-.05-.37-.02-.45.43-.09.52.09.92-.64,1.67-.73.75-2.03,2.04-2.83,2.86l-.08-.08h0Zm.09-10.46l-.08.08c.82.8,2.1,2.09,2.86,2.83.75.73,1.15.55,1.67.64.45.08.48.27.43.45-.04.14-.31.24-.46.07.17.53.82.46.94.2.09.21.41.32.6.23-.28-.08-.25-.52-.43-.78-.45-.65-1.03-.43-1.61-.47-.27-.02-.59-.12-.99-.49-.75-.69-2.07-1.93-2.92-2.75Z" opacity="0.2" style="fill:#a2826b; fill-rule:evenodd; stroke-width:0px;"/><path d="m125.53,81.81v1.02c-.24.11-.65.06-.78-.35.16.17.42.07.46-.07.05-.17.02-.37-.43-.45-.52-.09-.92.09-1.67-.64-.75-.73-2.04-2.03-2.86-2.83l.08-.08c.86.82,2.17,2.06,2.92,2.75.4.37.72.47.99.49.45.03.89-.09,1.27.14h0Zm0,1.54v.7c-.19,0-.35-.16-.35-.35s.16-.35.35-.35h0Zm0,1.22v1.02c-.12-.07-.23-.18-.33-.33-.18-.26-.15-.7-.43-.78.2-.09.51.02.6.23.03-.06.09-.11.16-.15h0Zm-5.27,4.32l.08.08c.8-.82,2.1-2.11,2.83-2.86.73-.75.55-1.15.64-1.67.08-.45.27-.48.45-.43.14.04.24.31.07.46.53-.17.46-.82.2-.94.21-.09.32-.41.23-.6-.08.28-.52.25-.78.43-.65.45-.43,1.03-.47,1.61-.02.27-.12.59-.49.99-.69.75-1.93,2.07-2.75,2.92Z" opacity="0.2" style="fill:#a2826b; fill-rule:evenodd; stroke-width:0px;"/><path d="m88.95,99.43c-.82.86-2.05,2.18-2.75,2.93-.37.4-.47.72-.49.99-.04.58.18,1.16-.47,1.61-.26.18-.7.15-.78.43-.09-.2.02-.51.23-.6-.26-.12-.34-.77.2-.94-.17.16-.07.42.07.46.17.05.37.02.45-.43.09-.52-.09-.92.64-1.67.73-.75,2.02-2.05,2.82-2.86l.08.08h0Zm-5.27,7.08c.39.24.83.12,1.27.14.27.02.59.12.99.49.75.69,2.07,1.92,2.93,2.75l.08-.08c-.82-.8-2.11-2.09-2.86-2.82-.75-.73-1.15-.55-1.67-.64-.45-.08-.48-.27-.43-.45.04-.14.31-.24.46-.07-.13-.41-.54-.46-.78-.35v1.02h0Zm0-1.54v-.7c.19,0,.35.16.35.35s-.16.35-.35.35h0Zm0-1.22c.07-.04.13-.09.16-.15.09.21.41.32.6.23-.28-.08-.25-.52-.43-.78-.11-.15-.22-.25-.33-.33v1.02Z" opacity="0.2" style="fill:#a2826b; fill-rule:evenodd; stroke-width:0px;"/><path d="m99.42,109.89c-.82.86-2.05,2.18-2.75,2.93-.37.4-.47.72-.49.99-.04.58.18,1.16-.47,1.61-.26.18-.7.15-.78.43-.09-.2.02-.51.23-.6-.26-.12-.34-.77.2-.94-.17.16-.07.42.07.46.17.05.37.02.45-.43.09-.52-.09-.92.64-1.67.73-.75,2.02-2.05,2.82-2.86l.08.08h0Zm-5.27,4.84c.19,0,.35.16.35.35s-.16.35-.35.35-.35-.16-.35-.35.16-.35.35-.35h0Zm5.19,5.62l.08-.08c-.82-.8-2.11-2.09-2.86-2.82-.75-.73-1.15-.55-1.67-.64-.45-.08-.48-.27-.43-.45.04-.14.31-.24.46-.07-.17-.53-.82-.46-.94-.2-.09-.21-.41-.32-.6-.23.28.08.25.52.43.78.45.65,1.03.43,1.61.47.27.02.59.12.99.49.75.69,2.07,1.92,2.93,2.75h0Zm-10.47-.08c.82-.86,2.06-2.17,2.75-2.92.37-.4.47-.72.49-.99.04-.58-.18-1.16.47-1.61.26-.18.7-.15.78-.43.09.2-.02.51-.23.6.26.12.34.77-.2.94.17-.16.07-.42-.07-.46-.17-.05-.37-.02-.45.43-.09.52.09.92-.64,1.67-.73.75-2.03,2.04-2.83,2.86l-.08-.08h0Zm.09-10.46l-.08.08c.82.8,2.1,2.09,2.86,2.83.75.73,1.15.55,1.67.64.45.08.48.27.43.45-.04.14-.31.24-.46.07.17.53.82.46.94.2.09.21.41.32.6.23-.28-.08-.25-.52-.43-.78-.45-.65-1.03-.43-1.61-.47-.27-.02-.59-.12-.99-.49-.75-.69-2.07-1.93-2.92-2.75Z" opacity="0.2" style="fill:#a2826b; fill-rule:evenodd; stroke-width:0px;"/><path d="m109.88,99.43c-.82.86-2.05,2.18-2.75,2.93-.37.4-.47.72-.49.99-.04.58.18,1.16-.47,1.61-.26.18-.7.15-.78.43-.09-.2.02-.51.23-.6-.26-.12-.34-.77.2-.94-.17.16-.07.42.07.46.17.05.37.02.45-.43.09-.52-.09-.92.64-1.67.73-.75,2.02-2.05,2.82-2.86l.08.08h0Zm-5.27,4.84c.19,0,.35.16.35.35s-.16.35-.35.35-.35-.16-.35-.35.16-.35.35-.35h0Zm5.19,5.62l.08-.08c-.82-.8-2.11-2.09-2.86-2.82-.75-.73-1.15-.55-1.67-.64-.45-.08-.48-.27-.43-.45.04-.14.31-.24.46-.07-.17-.53-.82-.46-.94-.2-.09-.21-.41-.32-.6-.23.28.08.25.52.43.78.45.65,1.03.43,1.61.47.27.02.59.12.99.49.75.69,2.07,1.92,2.93,2.75h0Zm-10.47-.08c.82-.86,2.06-2.17,2.75-2.92.37-.4.47-.72.49-.99.04-.58-.18-1.16.47-1.61.26-.18.7-.15.78-.43.09.2-.02.51-.23.6.26.12.34.77-.2.94.17-.16.07-.42-.07-.46-.17-.05-.37-.02-.45.43-.09.52.09.92-.64,1.67-.73.75-2.03,2.04-2.83,2.86l-.08-.08h0Zm.09-10.46l-.08.08c.82.8,2.1,2.09,2.86,2.83.75.73,1.15.55,1.67.64.45.08.48.27.43.45-.04.14-.31.24-.46.07.17.53.82.46.94.2.09.21.41.32.6.23-.28-.08-.25-.52-.43-.78-.45-.65-1.03-.43-1.61-.47-.27-.02-.59-.12-.99-.49-.75-.69-2.07-1.93-2.92-2.75Z" opacity="0.2" style="fill:#a2826b; fill-rule:evenodd; stroke-width:0px;"/><path d="m120.34,109.89c-.82.86-2.05,2.18-2.75,2.93-.37.4-.47.72-.49.99-.04.58.18,1.16-.47,1.61-.26.18-.7.15-.78.43-.09-.2.02-.51.23-.6-.26-.12-.34-.77.2-.94-.17.16-.07.42.07.46.17.05.37.02.45-.43.09-.52-.09-.92.64-1.67.73-.75,2.02-2.05,2.82-2.86l.08.08h0Zm-5.27,4.84c.19,0,.35.16.35.35s-.16.35-.35.35-.35-.16-.35-.35.16-.35.35-.35h0Zm5.19,5.62l.08-.08c-.82-.8-2.11-2.09-2.86-2.82-.75-.73-1.15-.55-1.67-.64-.45-.08-.48-.27-.43-.45.04-.14.31-.24.46-.07-.17-.53-.82-.46-.94-.2-.09-.21-.41-.32-.6-.23.28.08.25.52.43.78.45.65,1.03.43,1.61.47.27.02.59.12.99.49.75.69,2.07,1.92,2.93,2.75h0Zm-10.47-.08c.82-.86,2.06-2.17,2.75-2.92.37-.4.47-.72.49-.99.04-.58-.18-1.16.47-1.61.26-.18.7-.15.78-.43.09.2-.02.51-.23.6.26.12.34.77-.2.94.17-.16.07-.42-.07-.46-.17-.05-.37-.02-.45.43-.09.52.09.92-.64,1.67-.73.75-2.03,2.04-2.83,2.86l-.08-.08h0Zm.09-10.46l-.08.08c.82.8,2.1,2.09,2.86,2.83.75.73,1.15.55,1.67.64.45.08.48.27.43.45-.04.14-.31.24-.46.07.17.53.82.46.94.2.09.21.41.32.6.23-.28-.08-.25-.52-.43-.78-.45-.65-1.03-.43-1.61-.47-.27-.02-.59-.12-.99-.49-.75-.69-2.07-1.93-2.92-2.75Z" opacity="0.2" style="fill:#a2826b; fill-rule:evenodd; stroke-width:0px;"/><path d="m125.53,102.73v1.02c-.24.11-.65.06-.78-.35.16.17.42.07.46-.07.05-.17.02-.37-.43-.45-.52-.09-.92.09-1.67-.64-.75-.73-2.04-2.03-2.86-2.83l.08-.08c.86.82,2.17,2.06,2.92,2.75.4.37.72.47.99.49.45.03.89-.09,1.27.14h0Zm0,1.54v.7c-.19,0-.35-.16-.35-.35s.16-.35.35-.35h0Zm0,1.22v1.02c-.12-.07-.23-.18-.33-.33-.18-.26-.15-.7-.43-.78.2-.09.51.02.6.23.03-.06.09-.11.16-.15h0Zm-5.27,4.32l.08.08c.8-.82,2.1-2.11,2.83-2.86.73-.75.55-1.15.64-1.67.08-.45.27-.48.45-.43.14.04.24.31.07.46.53-.17.46-.82.2-.94.21-.09.32-.41.23-.6-.08.28-.52.25-.78.43-.65.45-.43,1.03-.47,1.61-.02.27-.12.59-.49.99-.69.75-1.93,2.07-2.75,2.92Z" opacity="0.2" style="fill:#a2826b; fill-rule:evenodd; stroke-width:0px;"/><path d="m88.95,120.35c-.82.86-2.05,2.18-2.75,2.93-.37.4-.47.72-.49.99-.03.45.09.89-.14,1.27h-1.03c-.11-.24-.06-.65.35-.78-.17.16-.07.42.07.46.17.05.37.02.45-.43.09-.52-.09-.92.64-1.67.73-.75,2.02-2.05,2.82-2.86l.08.08h0Zm-4.92,5.19h-.35v-.35c.19,0,.35.16.35.35h0Zm-.35-.86c.07-.04.13-.09.16-.15.09.21.41.32.6.23-.28-.08-.25-.52-.43-.78-.11-.15-.22-.25-.33-.33v1.02Z" opacity="0.2" style="fill:#a2826b; fill-rule:evenodd; stroke-width:0px;"/><path d="m109.88,120.35c-.82.86-2.05,2.18-2.75,2.93-.37.4-.47.72-.49.99-.03.45.09.89-.14,1.27h-1.03c-.11-.24-.06-.65.35-.78-.17.16-.07.42.07.46.17.05.37.02.45-.43.09-.52-.09-.92.64-1.67.73-.75,2.02-2.05,2.82-2.86l.08.08h0Zm-4.92,5.19h-.7c0-.19.16-.35.35-.35s.35.16.35.35h0Zm-1.22,0h-1.02c.07-.12.17-.23.32-.33.26-.18.7-.15.78-.43.09.2-.02.51-.23.6.06.03.11.08.15.16h0Zm-4.32-5.27l-.08.08c.82.8,2.1,2.09,2.86,2.83.75.73,1.15.55,1.67.64.45.08.48.27.43.45-.04.14-.31.24-.46.07.17.53.82.46.94.2.09.21.41.32.6.23-.28-.08-.25-.52-.43-.78-.45-.65-1.03-.43-1.61-.47-.27-.02-.59-.12-.99-.49-.75-.69-2.07-1.93-2.92-2.75Z" opacity="0.2" style="fill:#a2826b; fill-rule:evenodd; stroke-width:0px;"/><path d="m125.53,123.66v1.02c-.24.11-.65.06-.78-.35.16.17.42.07.46-.07.05-.17.02-.37-.43-.45-.52-.09-.92.09-1.67-.64-.75-.73-2.04-2.03-2.86-2.83l.08-.08c.86.82,2.17,2.06,2.92,2.75.4.37.72.47.99.49.45.03.89-.09,1.27.14h0Zm0,1.54v.35h-.35c0-.19.16-.35.35-.35h0Zm-.87.35c-.04-.07-.09-.13-.15-.16.21-.09.32-.41.23-.6-.08.28-.52.25-.78.43-.15.1-.25.22-.32.33h1.02Z" opacity="0.2" style="fill:#a2826b; fill-rule:evenodd; stroke-width:0px;"/></g></svg>